<svg width="64" height="64" viewBox="0 0 64 64" fill="none" xmlns="http://www.w3.org/2000/svg">
<circle cx="32" cy="32" r="32" fill="#DF263E"/>
<path d="M41.9048 26.6667H31.4286C30.2731 26.6667 29.3333 27.6064 29.3333 28.7619V45.5238C29.3333 46.6793 30.2731 47.619 31.4286 47.619H41.9048C43.0603 47.619 44 46.6793 44 45.5238V28.7619C44 27.6064 43.0603 26.6667 41.9048 26.6667ZM31.4286 45.5238V45.3333V34.6667V28.7619H41.9048L41.9055 34.6667L41.9062 40L41.9069 45.5238H31.4286Z" fill="white"/>
<path fill-rule="evenodd" clip-rule="evenodd" d="M21.3333 20H42.6667C44.1373 20 45.3333 21.196 45.3333 22.6667V37.3333C45.3333 38.804 44.1373 40 42.6667 40H41.9062L41.9055 34.6667H42.6693L42.6667 22.6667H21.3333V34.6667H31.4286V45.3333H26.6667V42.6667H30.6667V40H21.3333C19.8627 40 18.6667 38.804 18.6667 37.3333V22.6667C18.6667 21.196 19.8627 20 21.3333 20Z" fill="white"/>
<path d="M36.6667 44.4761C37.2453 44.4761 37.7143 44.0071 37.7143 43.4285C37.7143 42.8499 37.2453 42.3809 36.6667 42.3809C36.0881 42.3809 35.6191 42.8499 35.6191 43.4285C35.6191 44.0071 36.0881 44.4761 36.6667 44.4761Z" fill="white"/>
</svg>
