<svg width="530" height="530" viewBox="0 0 530 530" fill="none" xmlns="http://www.w3.org/2000/svg">
<g filter="url(#filter0_d)">
<mask id="path-1-inside-1" fill="white">
<path d="M473.829 384.615C450.986 419.79 419.628 448.625 382.665 468.445C345.702 488.264 304.332 498.426 262.392 497.986L263.957 348.595C280.733 348.77 297.281 344.706 312.066 336.778C326.851 328.85 339.394 317.316 348.532 303.246L473.829 384.615Z"/>
</mask>
<path d="M473.829 384.615C450.986 419.79 419.628 448.625 382.665 468.445C345.702 488.264 304.332 498.426 262.392 497.986L263.957 348.595C280.733 348.77 297.281 344.706 312.066 336.778C326.851 328.85 339.394 317.316 348.532 303.246L473.829 384.615Z" fill="#CA374A" stroke="#161616" stroke-opacity="0.15" stroke-width="4" mask="url(#path-1-inside-1)"/>
<mask id="path-2-inside-2" fill="white">
<path d="M251.968 497.659C210.084 495.464 169.434 482.724 133.788 460.623C98.1423 438.522 68.6568 407.775 48.0677 371.235L178.227 297.894C186.463 312.51 198.257 324.809 212.515 333.649C226.773 342.49 243.034 347.585 259.787 348.464L251.968 497.659Z"/>
</mask>
<path d="M251.968 497.659C210.084 495.464 169.434 482.724 133.788 460.623C98.1423 438.522 68.6568 407.775 48.0677 371.235L178.227 297.894C186.463 312.51 198.257 324.809 212.515 333.649C226.773 342.49 243.034 347.585 259.787 348.464L251.968 497.659Z" fill="white" stroke="#161616" stroke-opacity="0.15" stroke-width="4" mask="url(#path-2-inside-2)"/>
<mask id="path-3-inside-3" fill="white">
<path d="M43.1394 362.044C24.0984 324.674 14.8054 283.099 16.1229 241.179C17.4403 199.258 29.3254 158.349 50.6753 122.249L179.27 198.299C170.73 212.74 165.976 229.103 165.449 245.871C164.922 262.64 168.639 279.269 176.256 294.217L43.1394 362.044Z"/>
</mask>
<path d="M43.1394 362.044C24.0984 324.674 14.8054 283.099 16.1229 241.179C17.4403 199.258 29.3254 158.349 50.6753 122.249L179.27 198.299C170.73 212.74 165.976 229.103 165.449 245.871C164.922 262.64 168.639 279.269 176.256 294.217L43.1394 362.044Z" fill="white" stroke="#161616" stroke-opacity="0.15" stroke-width="4" mask="url(#path-3-inside-3)"/>
<mask id="path-4-inside-4" fill="white">
<path d="M56.1711 113.385C79.014 78.2099 110.372 49.3748 147.335 29.5554C184.298 9.736 225.669 -0.425561 267.608 0.0136537L266.043 149.405C249.267 149.23 232.719 153.294 217.934 161.222C203.149 169.15 190.606 180.684 181.468 194.754L56.1711 113.385Z"/>
</mask>
<path d="M56.1711 113.385C79.014 78.2099 110.372 49.3748 147.335 29.5554C184.298 9.736 225.669 -0.425561 267.608 0.0136537L266.043 149.405C249.267 149.23 232.719 153.294 217.934 161.222C203.149 169.15 190.606 180.684 181.468 194.754L56.1711 113.385Z" fill="white" stroke="#161616" stroke-opacity="0.15" stroke-width="4" mask="url(#path-4-inside-4)"/>
<mask id="path-5-inside-5" fill="white">
<path d="M278.032 0.341248C319.916 2.5363 360.566 15.2755 396.212 37.3768C431.858 59.478 461.343 90.2252 481.932 126.765L351.773 200.106C343.537 185.49 331.743 173.191 317.485 164.351C303.227 155.51 286.966 150.415 270.213 149.536L278.032 0.341248Z"/>
</mask>
<path d="M278.032 0.341248C319.916 2.5363 360.566 15.2755 396.212 37.3768C431.858 59.478 461.343 90.2252 481.932 126.765L351.773 200.106C343.537 185.49 331.743 173.191 317.485 164.351C303.227 155.51 286.966 150.415 270.213 149.536L278.032 0.341248Z" fill="white" stroke="#161616" stroke-opacity="0.15" stroke-width="4" mask="url(#path-5-inside-5)"/>
<mask id="path-6-inside-6" fill="white">
<path d="M486.861 135.956C505.902 173.326 515.195 214.901 513.877 256.821C512.56 298.742 500.675 339.651 479.325 375.751L350.73 299.701C359.27 285.26 364.024 268.897 364.551 252.129C365.078 235.36 361.361 218.731 353.744 203.783L486.861 135.956Z"/>
</mask>
<path d="M486.861 135.956C505.902 173.326 515.195 214.901 513.877 256.821C512.56 298.742 500.675 339.651 479.325 375.751L350.73 299.701C359.27 285.26 364.024 268.897 364.551 252.129C365.078 235.36 361.361 218.731 353.744 203.783L486.861 135.956Z" fill="white" stroke="#161616" stroke-opacity="0.15" stroke-width="4" mask="url(#path-6-inside-6)"/>
<path d="M330.002 404.12C331.428 404.12 332.522 404.393 333.283 404.94C334.055 405.477 334.44 406.282 334.44 407.357C334.44 407.942 334.333 408.445 334.118 408.865C333.913 409.275 333.61 409.612 333.21 409.876C332.82 410.13 332.341 410.315 331.775 410.432C331.208 410.55 330.569 410.608 329.856 410.608H328.728V414.373H327.307V404.369C327.708 404.271 328.152 404.207 328.64 404.178C329.138 404.139 329.592 404.12 330.002 404.12ZM330.12 405.365C329.514 405.365 329.05 405.379 328.728 405.409V409.393H329.797C330.286 409.393 330.725 409.363 331.116 409.305C331.506 409.236 331.833 409.129 332.097 408.982C332.37 408.826 332.58 408.616 332.727 408.353C332.873 408.089 332.946 407.752 332.946 407.342C332.946 406.951 332.868 406.629 332.712 406.375C332.566 406.121 332.361 405.921 332.097 405.775C331.843 405.618 331.545 405.511 331.203 405.452C330.862 405.394 330.5 405.365 330.12 405.365ZM338.416 414.519C337.576 414.499 336.98 414.319 336.629 413.977C336.277 413.635 336.101 413.103 336.101 412.381V403.241L337.464 403.006V412.161C337.464 412.385 337.483 412.571 337.522 412.717C337.561 412.864 337.625 412.981 337.713 413.069C337.8 413.157 337.918 413.225 338.064 413.274C338.211 413.313 338.391 413.347 338.606 413.377L338.416 414.519ZM342.714 413.391C343.036 413.391 343.319 413.386 343.563 413.377C343.817 413.357 344.027 413.328 344.193 413.289V411.018C344.095 410.97 343.934 410.93 343.71 410.901C343.495 410.862 343.231 410.843 342.919 410.843C342.714 410.843 342.494 410.857 342.26 410.887C342.035 410.916 341.825 410.979 341.63 411.077C341.444 411.165 341.288 411.292 341.161 411.458C341.034 411.614 340.971 411.824 340.971 412.088C340.971 412.576 341.127 412.918 341.439 413.113C341.752 413.298 342.177 413.391 342.714 413.391ZM342.596 406.566C343.143 406.566 343.602 406.639 343.973 406.785C344.354 406.922 344.657 407.122 344.881 407.386C345.116 407.64 345.282 407.947 345.379 408.309C345.477 408.66 345.526 409.051 345.526 409.48V414.241C345.409 414.26 345.243 414.29 345.028 414.329C344.823 414.358 344.588 414.387 344.325 414.416C344.061 414.446 343.773 414.47 343.461 414.49C343.158 414.519 342.855 414.534 342.553 414.534C342.123 414.534 341.727 414.49 341.366 414.402C341.005 414.314 340.692 414.177 340.429 413.992C340.165 413.796 339.96 413.543 339.814 413.23C339.667 412.918 339.594 412.542 339.594 412.102C339.594 411.682 339.677 411.321 339.843 411.018C340.019 410.716 340.253 410.472 340.546 410.286C340.839 410.1 341.181 409.964 341.571 409.876C341.962 409.788 342.372 409.744 342.802 409.744C342.938 409.744 343.08 409.754 343.226 409.773C343.373 409.783 343.509 409.803 343.636 409.832C343.773 409.851 343.89 409.871 343.988 409.891C344.086 409.91 344.154 409.925 344.193 409.934V409.554C344.193 409.329 344.169 409.109 344.12 408.895C344.071 408.67 343.983 408.475 343.856 408.309C343.729 408.133 343.553 407.996 343.329 407.899C343.114 407.791 342.831 407.737 342.479 407.737C342.03 407.737 341.635 407.772 341.293 407.84C340.961 407.899 340.712 407.962 340.546 408.03L340.385 406.903C340.561 406.824 340.853 406.751 341.264 406.683C341.674 406.605 342.118 406.566 342.596 406.566ZM347.788 406.976C348.101 406.898 348.516 406.815 349.033 406.727C349.551 406.639 350.146 406.595 350.82 406.595C351.426 406.595 351.929 406.683 352.329 406.859C352.729 407.025 353.047 407.264 353.281 407.576C353.525 407.879 353.696 408.245 353.794 408.675C353.891 409.104 353.94 409.578 353.94 410.096V414.373H352.578V410.389C352.578 409.92 352.544 409.519 352.475 409.187C352.417 408.855 352.314 408.587 352.168 408.382C352.021 408.177 351.826 408.03 351.582 407.942C351.338 407.845 351.035 407.796 350.674 407.796C350.527 407.796 350.376 407.801 350.22 407.811C350.063 407.82 349.912 407.835 349.766 407.855C349.629 407.864 349.502 407.879 349.385 407.899C349.277 407.918 349.199 407.933 349.15 407.942V414.373H347.788V406.976ZM356.199 406.976C356.511 406.898 356.926 406.815 357.444 406.727C357.961 406.639 358.557 406.595 359.231 406.595C359.836 406.595 360.339 406.683 360.74 406.859C361.14 407.025 361.457 407.264 361.692 407.576C361.936 407.879 362.107 408.245 362.204 408.675C362.302 409.104 362.351 409.578 362.351 410.096V414.373H360.989V410.389C360.989 409.92 360.954 409.519 360.886 409.187C360.827 408.855 360.725 408.587 360.578 408.382C360.432 408.177 360.237 408.03 359.993 407.942C359.748 407.845 359.446 407.796 359.084 407.796C358.938 407.796 358.787 407.801 358.63 407.811C358.474 407.82 358.323 407.835 358.176 407.855C358.04 407.864 357.913 407.879 357.795 407.899C357.688 407.918 357.61 407.933 357.561 407.942V414.373H356.199V406.976ZM365.972 414.373H364.61V406.756H365.972V414.373ZM365.283 405.379C365.039 405.379 364.829 405.301 364.653 405.145C364.487 404.979 364.404 404.759 364.404 404.486C364.404 404.212 364.487 403.998 364.653 403.841C364.829 403.675 365.039 403.592 365.283 403.592C365.527 403.592 365.732 403.675 365.898 403.841C366.074 403.998 366.162 404.212 366.162 404.486C366.162 404.759 366.074 404.979 365.898 405.145C365.732 405.301 365.527 405.379 365.283 405.379ZM368.314 406.976C368.627 406.898 369.042 406.815 369.559 406.727C370.077 406.639 370.672 406.595 371.346 406.595C371.952 406.595 372.454 406.683 372.855 406.859C373.255 407.025 373.572 407.264 373.807 407.576C374.051 407.879 374.222 408.245 374.319 408.675C374.417 409.104 374.466 409.578 374.466 410.096V414.373H373.104V410.389C373.104 409.92 373.07 409.519 373.001 409.187C372.943 408.855 372.84 408.587 372.694 408.382C372.547 408.177 372.352 408.03 372.108 407.942C371.864 407.845 371.561 407.796 371.2 407.796C371.053 407.796 370.902 407.801 370.746 407.811C370.589 407.82 370.438 407.835 370.292 407.855C370.155 407.864 370.028 407.879 369.911 407.899C369.803 407.918 369.725 407.933 369.676 407.942V414.373H368.314V406.976ZM381.5 413.611C381.383 413.689 381.153 413.792 380.811 413.918C380.479 414.036 380.089 414.094 379.64 414.094C379.181 414.094 378.746 414.021 378.336 413.875C377.936 413.728 377.584 413.503 377.281 413.201C376.979 412.888 376.739 412.503 376.564 412.044C376.388 411.585 376.3 411.038 376.3 410.403C376.3 409.847 376.383 409.339 376.549 408.88C376.715 408.411 376.954 408.011 377.267 407.679C377.589 407.337 377.98 407.073 378.439 406.888C378.897 406.693 379.415 406.595 379.991 406.595C380.626 406.595 381.178 406.644 381.646 406.741C382.125 406.829 382.525 406.912 382.847 406.99V413.787C382.847 414.958 382.545 415.808 381.939 416.335C381.334 416.863 380.416 417.126 379.186 417.126C378.707 417.126 378.253 417.087 377.823 417.009C377.403 416.931 377.037 416.838 376.725 416.731L376.974 415.544C377.247 415.652 377.579 415.744 377.97 415.823C378.37 415.91 378.785 415.954 379.215 415.954C380.025 415.954 380.606 415.793 380.958 415.471C381.319 415.149 381.5 414.636 381.5 413.933V413.611ZM381.485 407.957C381.348 407.918 381.163 407.884 380.929 407.855C380.704 407.816 380.396 407.796 380.006 407.796C379.273 407.796 378.707 408.035 378.307 408.514C377.916 408.992 377.721 409.627 377.721 410.418C377.721 410.857 377.775 411.233 377.882 411.546C377.999 411.858 378.15 412.117 378.336 412.322C378.531 412.527 378.751 412.678 378.995 412.776C379.249 412.874 379.508 412.922 379.771 412.922C380.133 412.922 380.465 412.874 380.767 412.776C381.07 412.669 381.309 412.547 381.485 412.41V407.957Z" fill="white"/>
<path d="M350.154 380.756C350.595 380.574 351.051 380.369 351.521 380.141C352.007 379.898 352.478 379.64 352.934 379.366C353.39 379.078 353.823 378.781 354.233 378.478C354.658 378.159 355.038 377.824 355.372 377.475H357.742V393.265H354.347V381.895C353.891 382.199 353.382 382.48 352.82 382.738C352.258 382.981 351.711 383.194 351.18 383.376L350.154 380.756Z" fill="white"/>
<path d="M154.46 414.373C154.294 413.933 154.138 413.503 153.991 413.084C153.845 412.654 153.693 412.219 153.537 411.78H148.938L148.015 414.373H146.536C146.926 413.298 147.293 412.307 147.634 411.399C147.976 410.481 148.308 409.612 148.63 408.792C148.962 407.972 149.289 407.191 149.612 406.448C149.934 405.697 150.271 404.954 150.622 404.222H151.926C152.277 404.954 152.614 405.697 152.937 406.448C153.259 407.191 153.581 407.972 153.903 408.792C154.235 409.612 154.572 410.481 154.914 411.399C155.256 412.307 155.622 413.298 156.012 414.373H154.46ZM153.127 410.608C152.814 409.759 152.502 408.938 152.19 408.148C151.887 407.347 151.569 406.58 151.237 405.848C150.896 406.58 150.569 407.347 150.256 408.148C149.953 408.938 149.651 409.759 149.348 410.608H153.127ZM157.303 406.976C157.615 406.898 158.03 406.815 158.548 406.727C159.065 406.639 159.661 406.595 160.335 406.595C160.94 406.595 161.443 406.683 161.843 406.859C162.244 407.025 162.561 407.264 162.795 407.576C163.039 407.879 163.21 408.245 163.308 408.675C163.406 409.104 163.454 409.578 163.454 410.096V414.373H162.092V410.389C162.092 409.92 162.058 409.519 161.99 409.187C161.931 408.855 161.829 408.587 161.682 408.382C161.536 408.177 161.34 408.03 161.096 407.942C160.852 407.845 160.549 407.796 160.188 407.796C160.042 407.796 159.89 407.801 159.734 407.811C159.578 407.82 159.426 407.835 159.28 407.855C159.143 407.864 159.016 407.879 158.899 407.899C158.792 407.918 158.714 407.933 158.665 407.942V414.373H157.303V406.976ZM168.291 413.391C168.613 413.391 168.896 413.386 169.141 413.377C169.394 413.357 169.604 413.328 169.77 413.289V411.018C169.673 410.97 169.512 410.93 169.287 410.901C169.072 410.862 168.809 410.843 168.496 410.843C168.291 410.843 168.071 410.857 167.837 410.887C167.612 410.916 167.402 410.979 167.207 411.077C167.022 411.165 166.865 411.292 166.738 411.458C166.612 411.614 166.548 411.824 166.548 412.088C166.548 412.576 166.704 412.918 167.017 413.113C167.329 413.298 167.754 413.391 168.291 413.391ZM168.174 406.566C168.721 406.566 169.18 406.639 169.551 406.785C169.932 406.922 170.234 407.122 170.459 407.386C170.693 407.64 170.859 407.947 170.957 408.309C171.054 408.66 171.103 409.051 171.103 409.48V414.241C170.986 414.26 170.82 414.29 170.605 414.329C170.4 414.358 170.166 414.387 169.902 414.416C169.639 414.446 169.351 414.47 169.038 414.49C168.735 414.519 168.433 414.534 168.13 414.534C167.7 414.534 167.305 414.49 166.944 414.402C166.582 414.314 166.27 414.177 166.006 413.992C165.742 413.796 165.537 413.543 165.391 413.23C165.244 412.918 165.171 412.542 165.171 412.102C165.171 411.682 165.254 411.321 165.42 411.018C165.596 410.716 165.83 410.472 166.123 410.286C166.416 410.1 166.758 409.964 167.149 409.876C167.539 409.788 167.949 409.744 168.379 409.744C168.516 409.744 168.657 409.754 168.804 409.773C168.95 409.783 169.087 409.803 169.214 409.832C169.351 409.851 169.468 409.871 169.565 409.891C169.663 409.91 169.731 409.925 169.77 409.934V409.554C169.77 409.329 169.746 409.109 169.697 408.895C169.648 408.67 169.56 408.475 169.434 408.309C169.307 408.133 169.131 407.996 168.906 407.899C168.691 407.791 168.408 407.737 168.057 407.737C167.608 407.737 167.212 407.772 166.87 407.84C166.538 407.899 166.289 407.962 166.123 408.03L165.962 406.903C166.138 406.824 166.431 406.751 166.841 406.683C167.251 406.605 167.695 406.566 168.174 406.566ZM175.651 414.519C174.811 414.499 174.215 414.319 173.864 413.977C173.512 413.635 173.336 413.103 173.336 412.381V403.241L174.699 403.006V412.161C174.699 412.385 174.718 412.571 174.757 412.717C174.796 412.864 174.86 412.981 174.948 413.069C175.035 413.157 175.153 413.225 175.299 413.274C175.446 413.313 175.626 413.347 175.841 413.377L175.651 414.519ZM176.477 415.793C176.585 415.842 176.721 415.886 176.887 415.925C177.063 415.974 177.234 415.998 177.4 415.998C177.937 415.998 178.357 415.876 178.66 415.632C178.962 415.398 179.236 415.012 179.48 414.475C178.865 413.303 178.289 412.063 177.752 410.755C177.224 409.436 176.785 408.104 176.433 406.756H177.898C178.005 407.195 178.132 407.669 178.279 408.177C178.435 408.685 178.606 409.207 178.792 409.744C178.977 410.281 179.177 410.818 179.392 411.355C179.607 411.892 179.831 412.41 180.066 412.908C180.437 411.883 180.759 410.867 181.033 409.861C181.306 408.855 181.565 407.82 181.809 406.756H183.215C182.863 408.191 182.473 409.573 182.043 410.901C181.614 412.219 181.15 413.455 180.652 414.607C180.456 415.046 180.251 415.422 180.037 415.735C179.831 416.057 179.602 416.321 179.348 416.526C179.094 416.731 178.806 416.882 178.484 416.98C178.171 417.077 177.815 417.126 177.415 417.126C177.307 417.126 177.195 417.116 177.078 417.097C176.961 417.087 176.843 417.068 176.726 417.038C176.619 417.019 176.516 416.994 176.419 416.965C176.331 416.936 176.267 416.911 176.228 416.892L176.477 415.793ZM186.424 413.391C186.98 413.391 187.39 413.318 187.654 413.171C187.927 413.025 188.064 412.791 188.064 412.468C188.064 412.136 187.932 411.873 187.669 411.677C187.405 411.482 186.971 411.262 186.365 411.018C186.072 410.901 185.789 410.784 185.516 410.667C185.252 410.54 185.022 410.393 184.827 410.227C184.632 410.061 184.476 409.861 184.358 409.627C184.241 409.393 184.183 409.104 184.183 408.763C184.183 408.089 184.432 407.557 184.93 407.166C185.428 406.766 186.106 406.566 186.966 406.566C187.18 406.566 187.395 406.58 187.61 406.61C187.825 406.629 188.025 406.658 188.211 406.697C188.396 406.727 188.557 406.761 188.694 406.8C188.84 406.839 188.953 406.873 189.031 406.903L188.782 408.074C188.635 407.996 188.406 407.918 188.093 407.84C187.781 407.752 187.405 407.708 186.966 407.708C186.585 407.708 186.253 407.786 185.97 407.942C185.686 408.089 185.545 408.323 185.545 408.646C185.545 408.812 185.574 408.958 185.633 409.085C185.701 409.212 185.799 409.329 185.926 409.436C186.062 409.534 186.228 409.627 186.424 409.715C186.619 409.803 186.853 409.895 187.127 409.993C187.488 410.13 187.81 410.266 188.093 410.403C188.377 410.53 188.616 410.681 188.811 410.857C189.016 411.033 189.172 411.248 189.28 411.502C189.387 411.746 189.441 412.049 189.441 412.41C189.441 413.113 189.177 413.645 188.65 414.006C188.133 414.368 187.39 414.548 186.424 414.548C185.75 414.548 185.223 414.49 184.842 414.373C184.461 414.265 184.202 414.182 184.066 414.124L184.315 412.952C184.471 413.01 184.72 413.098 185.062 413.215C185.403 413.333 185.857 413.391 186.424 413.391ZM192.55 414.373H191.188V406.756H192.55V414.373ZM191.862 405.379C191.618 405.379 191.408 405.301 191.232 405.145C191.066 404.979 190.983 404.759 190.983 404.486C190.983 404.212 191.066 403.998 191.232 403.841C191.408 403.675 191.618 403.592 191.862 403.592C192.106 403.592 192.311 403.675 192.477 403.841C192.653 403.998 192.741 404.212 192.741 404.486C192.741 404.759 192.653 404.979 192.477 405.145C192.311 405.301 192.106 405.379 191.862 405.379ZM196.665 413.391C197.222 413.391 197.632 413.318 197.896 413.171C198.169 413.025 198.306 412.791 198.306 412.468C198.306 412.136 198.174 411.873 197.91 411.677C197.647 411.482 197.212 411.262 196.607 411.018C196.314 410.901 196.03 410.784 195.757 410.667C195.493 410.54 195.264 410.393 195.069 410.227C194.873 410.061 194.717 409.861 194.6 409.627C194.483 409.393 194.424 409.104 194.424 408.763C194.424 408.089 194.673 407.557 195.171 407.166C195.669 406.766 196.348 406.566 197.207 406.566C197.422 406.566 197.637 406.58 197.852 406.61C198.066 406.629 198.267 406.658 198.452 406.697C198.638 406.727 198.799 406.761 198.935 406.8C199.082 406.839 199.194 406.873 199.272 406.903L199.023 408.074C198.877 407.996 198.647 407.918 198.335 407.84C198.022 407.752 197.647 407.708 197.207 407.708C196.826 407.708 196.494 407.786 196.211 407.942C195.928 408.089 195.786 408.323 195.786 408.646C195.786 408.812 195.816 408.958 195.874 409.085C195.943 409.212 196.04 409.329 196.167 409.436C196.304 409.534 196.47 409.627 196.665 409.715C196.86 409.803 197.095 409.895 197.368 409.993C197.73 410.13 198.052 410.266 198.335 410.403C198.618 410.53 198.857 410.681 199.053 410.857C199.258 411.033 199.414 411.248 199.521 411.502C199.629 411.746 199.682 412.049 199.682 412.41C199.682 413.113 199.419 413.645 198.892 414.006C198.374 414.368 197.632 414.548 196.665 414.548C195.991 414.548 195.464 414.49 195.083 414.373C194.702 414.265 194.444 414.182 194.307 414.124L194.556 412.952C194.712 413.01 194.961 413.098 195.303 413.215C195.645 413.333 196.099 413.391 196.665 413.391Z" fill="#161616"/>
<path d="M178.164 381.622C178.164 382.199 178.051 382.753 177.823 383.285C177.595 383.817 177.299 384.333 176.934 384.834C176.57 385.321 176.159 385.791 175.704 386.247C175.248 386.703 174.8 387.136 174.359 387.546C174.132 387.758 173.881 388.001 173.608 388.275C173.349 388.533 173.099 388.799 172.856 389.072C172.613 389.346 172.392 389.604 172.195 389.847C172.013 390.075 171.899 390.265 171.853 390.417H178.643V393.265H168.117C168.086 393.098 168.071 392.885 168.071 392.627C168.071 392.368 168.071 392.186 168.071 392.08C168.071 391.351 168.185 390.682 168.413 390.075C168.656 389.467 168.967 388.905 169.347 388.389C169.727 387.857 170.152 387.364 170.623 386.908C171.109 386.452 171.587 385.996 172.058 385.541C172.423 385.191 172.765 384.865 173.084 384.561C173.403 384.242 173.684 383.938 173.927 383.65C174.17 383.346 174.359 383.05 174.496 382.761C174.633 382.457 174.701 382.153 174.701 381.85C174.701 381.181 174.511 380.71 174.132 380.437C173.752 380.164 173.281 380.027 172.719 380.027C172.309 380.027 171.922 380.095 171.557 380.232C171.208 380.354 170.881 380.505 170.577 380.688C170.289 380.855 170.038 381.029 169.825 381.212C169.613 381.379 169.453 381.516 169.347 381.622L167.661 379.252C168.329 378.63 169.104 378.121 169.985 377.726C170.881 377.316 171.838 377.111 172.856 377.111C173.782 377.111 174.58 377.217 175.248 377.43C175.916 377.642 176.463 377.946 176.889 378.341C177.329 378.721 177.648 379.192 177.845 379.754C178.058 380.3 178.164 380.923 178.164 381.622Z" fill="#161616"/>
<path d="M127.216 92.9182H128.637V103.069H127.216V92.9182ZM131.062 95.6718C131.374 95.5937 131.784 95.5107 132.292 95.4228C132.81 95.335 133.405 95.291 134.079 95.291C134.567 95.291 134.978 95.3594 135.31 95.4961C135.642 95.623 135.92 95.8134 136.144 96.0673C136.213 96.0185 136.32 95.9501 136.467 95.8623C136.613 95.7744 136.794 95.6914 137.009 95.6133C137.223 95.5254 137.463 95.4521 137.726 95.3935C137.99 95.3252 138.273 95.291 138.576 95.291C139.162 95.291 139.64 95.3789 140.011 95.5547C140.382 95.7207 140.67 95.9599 140.875 96.2724C141.09 96.5848 141.232 96.9559 141.3 97.3855C141.378 97.8152 141.417 98.2839 141.417 98.7917V103.069H140.055V99.0846C140.055 98.6354 140.031 98.2497 139.982 97.9275C139.943 97.6053 139.86 97.3367 139.733 97.1219C139.616 96.9071 139.45 96.7508 139.235 96.6532C139.03 96.5458 138.761 96.4921 138.429 96.4921C137.97 96.4921 137.59 96.5555 137.287 96.6825C136.994 96.7997 136.794 96.9071 136.686 97.0047C136.764 97.2586 136.823 97.5369 136.862 97.8396C136.901 98.1423 136.921 98.4597 136.921 98.7917V103.069H135.559V99.0846C135.559 98.6354 135.534 98.2497 135.485 97.9275C135.436 97.6053 135.349 97.3367 135.222 97.1219C135.104 96.9071 134.938 96.7508 134.724 96.6532C134.519 96.5458 134.255 96.4921 133.933 96.4921C133.796 96.4921 133.65 96.497 133.493 96.5067C133.337 96.5165 133.186 96.5311 133.039 96.5507C132.903 96.5604 132.776 96.5751 132.658 96.5946C132.541 96.6141 132.463 96.6288 132.424 96.6385V103.069H131.062V95.6718ZM148.965 99.275C148.965 98.3864 148.746 97.7029 148.306 97.2244C147.867 96.746 147.281 96.5067 146.549 96.5067C146.139 96.5067 145.816 96.5214 145.582 96.5507C145.357 96.58 145.177 96.6141 145.04 96.6532V101.457C145.206 101.594 145.445 101.726 145.758 101.853C146.07 101.98 146.412 102.043 146.783 102.043C147.174 102.043 147.506 101.975 147.779 101.838C148.062 101.692 148.292 101.496 148.467 101.252C148.643 100.998 148.77 100.706 148.848 100.374C148.926 100.032 148.965 99.6656 148.965 99.275ZM150.386 99.275C150.386 99.8511 150.308 100.383 150.152 100.872C150.005 101.36 149.786 101.78 149.493 102.131C149.2 102.483 148.838 102.756 148.409 102.951C147.989 103.147 147.506 103.244 146.959 103.244C146.519 103.244 146.129 103.186 145.787 103.069C145.455 102.951 145.206 102.839 145.04 102.732V105.778H143.678V95.6865C144 95.6084 144.4 95.5254 144.879 95.4375C145.367 95.3398 145.929 95.291 146.563 95.291C147.149 95.291 147.676 95.3838 148.145 95.5693C148.614 95.7548 149.014 96.0185 149.346 96.3603C149.678 96.702 149.932 97.1219 150.108 97.6199C150.293 98.1081 150.386 98.6598 150.386 99.275ZM154.588 103.215C153.748 103.196 153.153 103.015 152.801 102.673C152.449 102.331 152.274 101.799 152.274 101.077V91.9368L153.636 91.7025V100.857C153.636 101.081 153.655 101.267 153.694 101.413C153.734 101.56 153.797 101.677 153.885 101.765C153.973 101.853 154.09 101.921 154.236 101.97C154.383 102.009 154.564 102.043 154.778 102.073L154.588 103.215ZM155.883 99.275C155.883 98.6013 155.981 98.0154 156.176 97.5174C156.372 97.0096 156.63 96.5897 156.953 96.2577C157.275 95.9257 157.646 95.6767 158.066 95.5107C158.486 95.3447 158.915 95.2617 159.355 95.2617C160.38 95.2617 161.166 95.584 161.713 96.2284C162.26 96.8631 162.533 97.8347 162.533 99.1432C162.533 99.2018 162.533 99.2799 162.533 99.3775C162.533 99.4654 162.528 99.5484 162.518 99.6265H157.304C157.363 100.417 157.592 101.018 157.992 101.428C158.393 101.838 159.018 102.043 159.867 102.043C160.346 102.043 160.746 102.004 161.068 101.926C161.4 101.838 161.649 101.755 161.815 101.677L162.006 102.82C161.84 102.907 161.547 103 161.127 103.098C160.717 103.196 160.248 103.244 159.721 103.244C159.057 103.244 158.481 103.147 157.992 102.951C157.514 102.746 157.119 102.468 156.806 102.117C156.494 101.765 156.259 101.35 156.103 100.872C155.957 100.383 155.883 99.8511 155.883 99.275ZM161.112 98.528C161.122 97.9128 160.966 97.41 160.644 97.0194C160.331 96.619 159.897 96.4188 159.34 96.4188C159.028 96.4188 158.749 96.4823 158.505 96.6093C158.271 96.7264 158.071 96.8827 157.905 97.078C157.739 97.2733 157.607 97.4978 157.509 97.7517C157.421 98.0056 157.363 98.2644 157.333 98.528H161.112ZM164.49 95.6718C164.802 95.5937 165.212 95.5107 165.72 95.4228C166.238 95.335 166.833 95.291 167.507 95.291C167.995 95.291 168.405 95.3594 168.737 95.4961C169.069 95.623 169.348 95.8134 169.572 96.0673C169.641 96.0185 169.748 95.9501 169.895 95.8623C170.041 95.7744 170.222 95.6914 170.437 95.6133C170.651 95.5254 170.891 95.4521 171.154 95.3935C171.418 95.3252 171.701 95.291 172.004 95.291C172.59 95.291 173.068 95.3789 173.439 95.5547C173.81 95.7207 174.098 95.9599 174.303 96.2724C174.518 96.5848 174.66 96.9559 174.728 97.3855C174.806 97.8152 174.845 98.2839 174.845 98.7917V103.069H173.483V99.0846C173.483 98.6354 173.459 98.2497 173.41 97.9275C173.371 97.6053 173.288 97.3367 173.161 97.1219C173.044 96.9071 172.878 96.7508 172.663 96.6532C172.458 96.5458 172.189 96.4921 171.857 96.4921C171.398 96.4921 171.018 96.5555 170.715 96.6825C170.422 96.7997 170.222 96.9071 170.114 97.0047C170.192 97.2586 170.251 97.5369 170.29 97.8396C170.329 98.1423 170.349 98.4597 170.349 98.7917V103.069H168.986V99.0846C168.986 98.6354 168.962 98.2497 168.913 97.9275C168.864 97.6053 168.777 97.3367 168.65 97.1219C168.532 96.9071 168.366 96.7508 168.152 96.6532C167.947 96.5458 167.683 96.4921 167.361 96.4921C167.224 96.4921 167.077 96.497 166.921 96.5067C166.765 96.5165 166.614 96.5311 166.467 96.5507C166.33 96.5604 166.204 96.5751 166.086 96.5946C165.969 96.6141 165.891 96.6288 165.852 96.6385V103.069H164.49V95.6718ZM176.681 99.275C176.681 98.6013 176.779 98.0154 176.974 97.5174C177.169 97.0096 177.428 96.5897 177.75 96.2577C178.072 95.9257 178.443 95.6767 178.863 95.5107C179.283 95.3447 179.713 95.2617 180.152 95.2617C181.178 95.2617 181.964 95.584 182.51 96.2284C183.057 96.8631 183.331 97.8347 183.331 99.1432C183.331 99.2018 183.331 99.2799 183.331 99.3775C183.331 99.4654 183.326 99.5484 183.316 99.6265H178.102C178.16 100.417 178.39 101.018 178.79 101.428C179.19 101.838 179.815 102.043 180.665 102.043C181.143 102.043 181.544 102.004 181.866 101.926C182.198 101.838 182.447 101.755 182.613 101.677L182.803 102.82C182.637 102.907 182.344 103 181.925 103.098C181.514 103.196 181.046 103.244 180.518 103.244C179.854 103.244 179.278 103.147 178.79 102.951C178.312 102.746 177.916 102.468 177.604 102.117C177.291 101.765 177.057 101.35 176.901 100.872C176.754 100.383 176.681 99.8511 176.681 99.275ZM181.91 98.528C181.92 97.9128 181.763 97.41 181.441 97.0194C181.129 96.619 180.694 96.4188 180.138 96.4188C179.825 96.4188 179.547 96.4823 179.303 96.6093C179.068 96.7264 178.868 96.8827 178.702 97.078C178.536 97.2733 178.404 97.4978 178.307 97.7517C178.219 98.0056 178.16 98.2644 178.131 98.528H181.91ZM185.287 95.6718C185.6 95.5937 186.015 95.5107 186.532 95.4228C187.05 95.335 187.646 95.291 188.319 95.291C188.925 95.291 189.428 95.3789 189.828 95.5547C190.228 95.7207 190.546 95.9599 190.78 96.2724C191.024 96.5751 191.195 96.9413 191.293 97.3709C191.39 97.8005 191.439 98.2741 191.439 98.7917V103.069H190.077V99.0846C190.077 98.6159 190.043 98.2155 189.975 97.8835C189.916 97.5515 189.813 97.283 189.667 97.078C189.52 96.8729 189.325 96.7264 189.081 96.6385C188.837 96.5409 188.534 96.4921 188.173 96.4921C188.026 96.4921 187.875 96.497 187.719 96.5067C187.563 96.5165 187.411 96.5311 187.265 96.5507C187.128 96.5604 187.001 96.5751 186.884 96.5946C186.777 96.6141 186.698 96.6288 186.65 96.6385V103.069H185.287V95.6718ZM194.972 95.4521H197.858V96.5946H194.972V100.11C194.972 100.491 195.002 100.808 195.06 101.062C195.119 101.306 195.207 101.501 195.324 101.648C195.441 101.785 195.588 101.882 195.763 101.941C195.939 101.999 196.144 102.029 196.379 102.029C196.789 102.029 197.116 101.985 197.36 101.897C197.614 101.799 197.79 101.731 197.887 101.692L198.151 102.82C198.014 102.888 197.775 102.971 197.433 103.069C197.091 103.176 196.701 103.23 196.261 103.23C195.744 103.23 195.314 103.166 194.972 103.039C194.64 102.903 194.372 102.702 194.167 102.439C193.962 102.175 193.815 101.853 193.727 101.472C193.649 101.081 193.61 100.632 193.61 100.125V93.3283L194.972 93.094V95.4521ZM202.169 102.087C202.491 102.087 202.775 102.082 203.019 102.073C203.273 102.053 203.482 102.024 203.648 101.985V99.7144C203.551 99.6656 203.39 99.6265 203.165 99.5973C202.95 99.5582 202.687 99.5387 202.374 99.5387C202.169 99.5387 201.949 99.5533 201.715 99.5826C201.49 99.6119 201.281 99.6754 201.085 99.773C200.9 99.8609 200.743 99.9878 200.617 100.154C200.49 100.31 200.426 100.52 200.426 100.784C200.426 101.272 200.582 101.614 200.895 101.809C201.207 101.994 201.632 102.087 202.169 102.087ZM202.052 95.2617C202.599 95.2617 203.058 95.335 203.429 95.4814C203.81 95.6181 204.112 95.8183 204.337 96.082C204.571 96.3358 204.737 96.6434 204.835 97.0047C204.933 97.3563 204.981 97.7468 204.981 98.1765V102.937C204.864 102.956 204.698 102.986 204.483 103.025C204.278 103.054 204.044 103.083 203.78 103.113C203.517 103.142 203.229 103.166 202.916 103.186C202.613 103.215 202.311 103.23 202.008 103.23C201.578 103.23 201.183 103.186 200.822 103.098C200.46 103.01 200.148 102.873 199.884 102.688C199.621 102.492 199.415 102.239 199.269 101.926C199.123 101.614 199.049 101.238 199.049 100.798C199.049 100.378 199.132 100.017 199.298 99.7144C199.474 99.4117 199.708 99.1676 200.001 98.9821C200.294 98.7965 200.636 98.6598 201.027 98.572C201.417 98.4841 201.827 98.4401 202.257 98.4401C202.394 98.4401 202.535 98.4499 202.682 98.4694C202.828 98.4792 202.965 98.4987 203.092 98.528C203.229 98.5475 203.346 98.5671 203.443 98.5866C203.541 98.6061 203.609 98.6208 203.648 98.6305V98.2497C203.648 98.0251 203.624 97.8054 203.575 97.5906C203.526 97.366 203.439 97.1707 203.312 97.0047C203.185 96.829 203.009 96.6923 202.784 96.5946C202.569 96.4872 202.286 96.4335 201.935 96.4335C201.486 96.4335 201.09 96.4677 200.748 96.536C200.416 96.5946 200.167 96.6581 200.001 96.7264L199.84 95.5986C200.016 95.5205 200.309 95.4473 200.719 95.3789C201.129 95.3008 201.573 95.2617 202.052 95.2617ZM208.518 95.4521H211.404V96.5946H208.518V100.11C208.518 100.491 208.547 100.808 208.606 101.062C208.665 101.306 208.752 101.501 208.87 101.648C208.987 101.785 209.133 101.882 209.309 101.941C209.485 101.999 209.69 102.029 209.924 102.029C210.334 102.029 210.661 101.985 210.906 101.897C211.159 101.799 211.335 101.731 211.433 101.692L211.696 102.82C211.56 102.888 211.321 102.971 210.979 103.069C210.637 103.176 210.246 103.23 209.807 103.23C209.289 103.23 208.86 103.166 208.518 103.039C208.186 102.903 207.918 102.702 207.712 102.439C207.507 102.175 207.361 101.853 207.273 101.472C207.195 101.081 207.156 100.632 207.156 100.125V93.3283L208.518 93.094V95.4521ZM214.499 103.069H213.137V95.4521H214.499V103.069ZM213.811 94.0753C213.567 94.0753 213.357 93.9972 213.181 93.841C213.015 93.675 212.932 93.4553 212.932 93.1818C212.932 92.9084 213.015 92.6936 213.181 92.5374C213.357 92.3714 213.567 92.2884 213.811 92.2884C214.055 92.2884 214.26 92.3714 214.426 92.5374C214.602 92.6936 214.69 92.9084 214.69 93.1818C214.69 93.4553 214.602 93.675 214.426 93.841C214.26 93.9972 214.055 94.0753 213.811 94.0753ZM223.565 99.2604C223.565 99.8658 223.477 100.413 223.301 100.901C223.125 101.389 222.876 101.809 222.554 102.16C222.241 102.512 221.866 102.785 221.426 102.981C220.987 103.166 220.508 103.259 219.991 103.259C219.473 103.259 218.995 103.166 218.555 102.981C218.116 102.785 217.735 102.512 217.413 102.16C217.1 101.809 216.856 101.389 216.68 100.901C216.505 100.413 216.417 99.8658 216.417 99.2604C216.417 98.6647 216.505 98.1228 216.68 97.6345C216.856 97.1365 217.1 96.7118 217.413 96.3603C217.735 96.0087 218.116 95.7402 218.555 95.5547C218.995 95.3594 219.473 95.2617 219.991 95.2617C220.508 95.2617 220.987 95.3594 221.426 95.5547C221.866 95.7402 222.241 96.0087 222.554 96.3603C222.876 96.7118 223.125 97.1365 223.301 97.6345C223.477 98.1228 223.565 98.6647 223.565 99.2604ZM222.144 99.2604C222.144 98.4011 221.949 97.7224 221.558 97.2244C221.177 96.7167 220.655 96.4628 219.991 96.4628C219.327 96.4628 218.799 96.7167 218.409 97.2244C218.028 97.7224 217.838 98.4011 217.838 99.2604C217.838 100.12 218.028 100.803 218.409 101.311C218.799 101.809 219.327 102.058 219.991 102.058C220.655 102.058 221.177 101.809 221.558 101.311C221.949 100.803 222.144 100.12 222.144 99.2604ZM225.481 95.6718C225.794 95.5937 226.209 95.5107 226.726 95.4228C227.244 95.335 227.839 95.291 228.513 95.291C229.118 95.291 229.621 95.3789 230.022 95.5547C230.422 95.7207 230.739 95.9599 230.974 96.2724C231.218 96.5751 231.389 96.9413 231.486 97.3709C231.584 97.8005 231.633 98.2741 231.633 98.7917V103.069H230.271V99.0846C230.271 98.6159 230.236 98.2155 230.168 97.8835C230.11 97.5515 230.007 97.283 229.861 97.078C229.714 96.8729 229.519 96.7264 229.275 96.6385C229.031 96.5409 228.728 96.4921 228.367 96.4921C228.22 96.4921 228.069 96.497 227.912 96.5067C227.756 96.5165 227.605 96.5311 227.458 96.5507C227.322 96.5604 227.195 96.5751 227.078 96.5946C226.97 96.6141 226.892 96.6288 226.843 96.6385V103.069H225.481V95.6718Z" fill="#161616"/>
<path d="M180.132 70.3179C179.539 71.0926 178.909 71.9356 178.241 72.847C177.572 73.7583 177.01 74.6925 176.554 75.6494H180.132V70.3179ZM183.458 66.1712V75.6494H185.144V78.4291H183.458V81.9607H180.132V78.4291H173.319V75.9456C173.653 75.2773 174.071 74.5254 174.572 73.69C175.073 72.8394 175.628 71.9736 176.235 71.0926C176.858 70.1964 177.511 69.323 178.195 68.4724C178.878 67.6218 179.562 66.8547 180.246 66.1712H183.458Z" fill="#161616"/>
<path d="M328.165 92.9182V94.1485H324.972V103.069H323.551V94.1485H320.358V92.9182H328.165ZM328.352 99.275C328.352 98.6013 328.449 98.0154 328.645 97.5174C328.84 97.0096 329.099 96.5897 329.421 96.2577C329.743 95.9257 330.114 95.6767 330.534 95.5107C330.954 95.3447 331.384 95.2617 331.823 95.2617C332.848 95.2617 333.634 95.584 334.181 96.2284C334.728 96.8631 335.001 97.8347 335.001 99.1432C335.001 99.2018 335.001 99.2799 335.001 99.3775C335.001 99.4654 334.997 99.5484 334.987 99.6265H329.772C329.831 100.417 330.061 101.018 330.461 101.428C330.861 101.838 331.486 102.043 332.336 102.043C332.814 102.043 333.215 102.004 333.537 101.926C333.869 101.838 334.118 101.755 334.284 101.677L334.474 102.82C334.308 102.907 334.015 103 333.595 103.098C333.185 103.196 332.717 103.244 332.189 103.244C331.525 103.244 330.949 103.147 330.461 102.951C329.982 102.746 329.587 102.468 329.274 102.117C328.962 101.765 328.728 101.35 328.571 100.872C328.425 100.383 328.352 99.8511 328.352 99.275ZM333.581 98.528C333.59 97.9128 333.434 97.41 333.112 97.0194C332.8 96.619 332.365 96.4188 331.808 96.4188C331.496 96.4188 331.218 96.4823 330.974 96.6093C330.739 96.7264 330.539 96.8827 330.373 97.078C330.207 97.2733 330.075 97.4978 329.978 97.7517C329.89 98.0056 329.831 98.2644 329.802 98.528H333.581ZM338.731 102.087C339.287 102.087 339.697 102.014 339.961 101.868C340.234 101.721 340.371 101.487 340.371 101.164C340.371 100.832 340.239 100.569 339.976 100.374C339.712 100.178 339.277 99.9585 338.672 99.7144C338.379 99.5973 338.096 99.4801 337.822 99.3629C337.559 99.236 337.329 99.0895 337.134 98.9235C336.939 98.7575 336.782 98.5573 336.665 98.323C336.548 98.0886 336.49 97.8005 336.49 97.4588C336.49 96.785 336.739 96.2528 337.237 95.8623C337.735 95.4619 338.413 95.2617 339.272 95.2617C339.487 95.2617 339.702 95.2764 339.917 95.3057C340.132 95.3252 340.332 95.3545 340.517 95.3935C340.703 95.4228 340.864 95.457 341.001 95.4961C341.147 95.5351 341.26 95.5693 341.338 95.5986L341.089 96.7704C340.942 96.6923 340.713 96.6141 340.4 96.536C340.088 96.4481 339.712 96.4042 339.272 96.4042C338.892 96.4042 338.56 96.4823 338.276 96.6385C337.993 96.785 337.852 97.0194 337.852 97.3416C337.852 97.5076 337.881 97.6541 337.94 97.781C338.008 97.908 338.106 98.0251 338.233 98.1325C338.369 98.2302 338.535 98.323 338.731 98.4108C338.926 98.4987 339.16 98.5915 339.434 98.6891C339.795 98.8258 340.117 98.9625 340.4 99.0993C340.683 99.2262 340.923 99.3775 341.118 99.5533C341.323 99.7291 341.479 99.9439 341.587 100.198C341.694 100.442 341.748 100.745 341.748 101.106C341.748 101.809 341.484 102.341 340.957 102.702C340.439 103.064 339.697 103.244 338.731 103.244C338.057 103.244 337.529 103.186 337.149 103.069C336.768 102.961 336.509 102.878 336.372 102.82L336.621 101.648C336.778 101.706 337.027 101.794 337.368 101.911C337.71 102.029 338.164 102.087 338.731 102.087ZM344.769 95.4521H347.655V96.5946H344.769V100.11C344.769 100.491 344.799 100.808 344.857 101.062C344.916 101.306 345.004 101.501 345.121 101.648C345.238 101.785 345.385 101.882 345.56 101.941C345.736 101.999 345.941 102.029 346.175 102.029C346.586 102.029 346.913 101.985 347.157 101.897C347.411 101.799 347.586 101.731 347.684 101.692L347.948 102.82C347.811 102.888 347.572 102.971 347.23 103.069C346.888 103.176 346.498 103.23 346.058 103.23C345.541 103.23 345.111 103.166 344.769 103.039C344.437 102.903 344.169 102.702 343.964 102.439C343.759 102.175 343.612 101.853 343.524 101.472C343.446 101.081 343.407 100.632 343.407 100.125V93.3283L344.769 93.094V95.4521ZM350.75 103.069H349.388V95.4521H350.75V103.069ZM350.062 94.0753C349.818 94.0753 349.608 93.9972 349.432 93.841C349.266 93.675 349.183 93.4553 349.183 93.1818C349.183 92.9084 349.266 92.6936 349.432 92.5374C349.608 92.3714 349.818 92.2884 350.062 92.2884C350.306 92.2884 350.511 92.3714 350.677 92.5374C350.853 92.6936 350.941 92.9084 350.941 93.1818C350.941 93.4553 350.853 93.675 350.677 93.841C350.511 93.9972 350.306 94.0753 350.062 94.0753ZM353.093 95.6718C353.405 95.5937 353.82 95.5107 354.338 95.4228C354.855 95.335 355.451 95.291 356.125 95.291C356.73 95.291 357.233 95.3789 357.633 95.5547C358.034 95.7207 358.351 95.9599 358.586 96.2724C358.83 96.5751 359.001 96.9413 359.098 97.3709C359.196 97.8005 359.245 98.2741 359.245 98.7917V103.069H357.882V99.0846C357.882 98.6159 357.848 98.2155 357.78 97.8835C357.721 97.5515 357.619 97.283 357.472 97.078C357.326 96.8729 357.131 96.7264 356.886 96.6385C356.642 96.5409 356.34 96.4921 355.978 96.4921C355.832 96.4921 355.681 96.497 355.524 96.5067C355.368 96.5165 355.217 96.5311 355.07 96.5507C354.934 96.5604 354.807 96.5751 354.689 96.5946C354.582 96.6141 354.504 96.6288 354.455 96.6385V103.069H353.093V95.6718ZM366.278 102.307C366.161 102.385 365.932 102.488 365.59 102.615C365.258 102.732 364.867 102.79 364.418 102.79C363.959 102.79 363.525 102.717 363.115 102.571C362.714 102.424 362.363 102.2 362.06 101.897C361.757 101.584 361.518 101.199 361.342 100.74C361.167 100.281 361.079 99.734 361.079 99.0993C361.079 98.5427 361.162 98.0349 361.328 97.576C361.494 97.1073 361.733 96.7069 362.045 96.3749C362.368 96.0331 362.758 95.7695 363.217 95.584C363.676 95.3887 364.194 95.291 364.77 95.291C365.405 95.291 365.956 95.3398 366.425 95.4375C366.903 95.5254 367.304 95.6084 367.626 95.6865V102.483C367.626 103.654 367.323 104.504 366.718 105.031C366.112 105.559 365.195 105.822 363.964 105.822C363.486 105.822 363.032 105.783 362.602 105.705C362.182 105.627 361.816 105.534 361.504 105.427L361.753 104.24C362.026 104.348 362.358 104.441 362.749 104.519C363.149 104.607 363.564 104.65 363.994 104.65C364.804 104.65 365.385 104.489 365.737 104.167C366.098 103.845 366.278 103.332 366.278 102.629V102.307ZM366.264 96.6532C366.127 96.6141 365.942 96.58 365.707 96.5507C365.483 96.5116 365.175 96.4921 364.784 96.4921C364.052 96.4921 363.486 96.7313 363.085 97.2098C362.695 97.6883 362.5 98.323 362.5 99.1139C362.5 99.5533 362.553 99.9293 362.661 100.242C362.778 100.554 362.929 100.813 363.115 101.018C363.31 101.223 363.53 101.374 363.774 101.472C364.028 101.57 364.286 101.619 364.55 101.619C364.911 101.619 365.243 101.57 365.546 101.472C365.849 101.365 366.088 101.243 366.264 101.106V96.6532ZM372.863 100.374C372.863 99.9927 372.922 99.6558 373.039 99.3629C373.156 99.0602 373.313 98.7917 373.508 98.5573C373.713 98.3132 373.947 98.1033 374.211 97.9275C374.475 97.742 374.748 97.5808 375.031 97.4441C374.309 96.7215 373.947 95.9745 373.947 95.2031C373.947 94.8125 374.011 94.461 374.138 94.1485C374.274 93.8361 374.455 93.5724 374.68 93.3576C374.914 93.1428 375.187 92.9768 375.5 92.8596C375.822 92.7424 376.174 92.6838 376.554 92.6838C376.945 92.6838 377.292 92.7424 377.594 92.8596C377.907 92.9768 378.166 93.133 378.371 93.3283C378.585 93.5236 378.747 93.758 378.854 94.0314C378.961 94.3048 379.015 94.5928 379.015 94.8955C379.015 95.2373 378.957 95.5449 378.839 95.8183C378.732 96.0917 378.581 96.3407 378.385 96.5653C378.2 96.7899 377.985 96.995 377.741 97.1805C377.497 97.366 377.238 97.532 376.965 97.6785L379.337 100.095C379.669 99.4801 379.884 98.7965 379.982 98.0447L381.11 98.1911C381.071 98.5915 380.968 99.0309 380.802 99.5094C380.646 99.9781 380.421 100.447 380.128 100.915C380.47 101.287 380.783 101.653 381.066 102.014C381.359 102.375 381.598 102.727 381.783 103.069H380.348C380.231 102.873 380.084 102.673 379.909 102.468C379.743 102.263 379.567 102.058 379.381 101.853C378.981 102.253 378.517 102.58 377.99 102.834C377.463 103.078 376.857 103.2 376.174 103.2C375.539 103.2 375.012 103.113 374.592 102.937C374.172 102.751 373.83 102.522 373.566 102.248C373.313 101.965 373.132 101.658 373.024 101.326C372.917 100.994 372.863 100.676 372.863 100.374ZM374.226 100.344C374.226 100.52 374.26 100.71 374.328 100.915C374.396 101.121 374.509 101.311 374.665 101.487C374.821 101.653 375.021 101.794 375.265 101.911C375.519 102.019 375.832 102.073 376.203 102.073C376.681 102.073 377.121 101.985 377.521 101.809C377.931 101.633 378.293 101.384 378.605 101.062L375.749 98.1765C375.573 98.2644 375.392 98.3669 375.207 98.4841C375.031 98.6013 374.87 98.7477 374.724 98.9235C374.577 99.0895 374.455 99.2897 374.357 99.524C374.269 99.7584 374.226 100.032 374.226 100.344ZM377.785 94.9395C377.785 94.6075 377.672 94.3292 377.448 94.1046C377.233 93.8703 376.935 93.7531 376.554 93.7531C376.125 93.7531 375.793 93.8849 375.558 94.1485C375.334 94.4024 375.222 94.7198 375.222 95.1006C375.222 95.7353 375.554 96.3554 376.218 96.9608C376.432 96.8534 376.633 96.7362 376.818 96.6093C377.013 96.4823 377.179 96.3358 377.316 96.1698C377.463 96.0038 377.575 95.8232 377.653 95.6279C377.741 95.4228 377.785 95.1934 377.785 94.9395ZM316.336 125.069H314.973V117.452H316.336V125.069ZM315.647 116.075C315.403 116.075 315.193 115.997 315.017 115.841C314.851 115.675 314.768 115.455 314.768 115.182C314.768 114.908 314.851 114.694 315.017 114.537C315.193 114.371 315.403 114.288 315.647 114.288C315.891 114.288 316.096 114.371 316.262 114.537C316.438 114.694 316.526 114.908 316.526 115.182C316.526 115.455 316.438 115.675 316.262 115.841C316.096 115.997 315.891 116.075 315.647 116.075ZM318.678 117.672C318.991 117.594 319.406 117.511 319.923 117.423C320.441 117.335 321.036 117.291 321.71 117.291C322.315 117.291 322.818 117.379 323.219 117.555C323.619 117.721 323.936 117.96 324.171 118.272C324.415 118.575 324.586 118.941 324.683 119.371C324.781 119.801 324.83 120.274 324.83 120.792V125.069H323.468V121.085C323.468 120.616 323.433 120.216 323.365 119.884C323.307 119.552 323.204 119.283 323.058 119.078C322.911 118.873 322.716 118.726 322.472 118.639C322.228 118.541 321.925 118.492 321.564 118.492C321.417 118.492 321.266 118.497 321.109 118.507C320.953 118.516 320.802 118.531 320.655 118.551C320.519 118.56 320.392 118.575 320.275 118.595C320.167 118.614 320.089 118.629 320.04 118.639V125.069H318.678V117.672ZM328.363 117.452H331.248V118.595H328.363V122.11C328.363 122.491 328.392 122.808 328.451 123.062C328.509 123.306 328.597 123.501 328.714 123.648C328.832 123.785 328.978 123.882 329.154 123.941C329.33 123.999 329.535 124.029 329.769 124.029C330.179 124.029 330.506 123.985 330.75 123.897C331.004 123.799 331.18 123.731 331.278 123.692L331.541 124.82C331.405 124.888 331.165 124.971 330.824 125.069C330.482 125.176 330.091 125.23 329.652 125.23C329.134 125.23 328.705 125.166 328.363 125.039C328.031 124.903 327.762 124.702 327.557 124.439C327.352 124.175 327.206 123.853 327.118 123.472C327.04 123.081 327.001 122.632 327.001 122.125V115.328L328.363 115.094V117.452ZM332.414 121.275C332.414 120.601 332.512 120.015 332.707 119.517C332.902 119.01 333.161 118.59 333.483 118.258C333.805 117.926 334.177 117.677 334.596 117.511C335.016 117.345 335.446 117.262 335.885 117.262C336.911 117.262 337.697 117.584 338.244 118.228C338.79 118.863 339.064 119.835 339.064 121.143C339.064 121.202 339.064 121.28 339.064 121.378C339.064 121.465 339.059 121.548 339.049 121.627H333.835C333.893 122.417 334.123 123.018 334.523 123.428C334.924 123.838 335.548 124.043 336.398 124.043C336.876 124.043 337.277 124.004 337.599 123.926C337.931 123.838 338.18 123.755 338.346 123.677L338.536 124.82C338.37 124.907 338.078 125 337.658 125.098C337.248 125.196 336.779 125.244 336.252 125.244C335.588 125.244 335.011 125.147 334.523 124.951C334.045 124.746 333.649 124.468 333.337 124.117C333.024 123.765 332.79 123.35 332.634 122.872C332.487 122.383 332.414 121.851 332.414 121.275ZM337.643 120.528C337.653 119.913 337.497 119.41 337.174 119.019C336.862 118.619 336.427 118.419 335.871 118.419C335.558 118.419 335.28 118.482 335.036 118.609C334.801 118.726 334.601 118.883 334.435 119.078C334.269 119.273 334.137 119.498 334.04 119.752C333.952 120.006 333.893 120.264 333.864 120.528H337.643ZM345.795 124.307C345.678 124.385 345.449 124.488 345.107 124.615C344.775 124.732 344.384 124.79 343.935 124.79C343.476 124.79 343.042 124.717 342.632 124.571C342.231 124.424 341.88 124.2 341.577 123.897C341.274 123.584 341.035 123.199 340.859 122.74C340.684 122.281 340.596 121.734 340.596 121.099C340.596 120.543 340.679 120.035 340.845 119.576C341.011 119.107 341.25 118.707 341.562 118.375C341.885 118.033 342.275 117.769 342.734 117.584C343.193 117.389 343.711 117.291 344.287 117.291C344.922 117.291 345.473 117.34 345.942 117.437C346.42 117.525 346.821 117.608 347.143 117.686V124.483C347.143 125.654 346.84 126.504 346.235 127.031C345.629 127.559 344.712 127.822 343.481 127.822C343.003 127.822 342.549 127.783 342.119 127.705C341.699 127.627 341.333 127.534 341.021 127.427L341.27 126.24C341.543 126.348 341.875 126.441 342.266 126.519C342.666 126.607 343.081 126.65 343.511 126.65C344.321 126.65 344.902 126.489 345.254 126.167C345.615 125.845 345.795 125.332 345.795 124.629V124.307ZM345.781 118.653C345.644 118.614 345.459 118.58 345.224 118.551C345 118.512 344.692 118.492 344.301 118.492C343.569 118.492 343.003 118.731 342.602 119.21C342.212 119.688 342.017 120.323 342.017 121.114C342.017 121.553 342.07 121.929 342.178 122.242C342.295 122.554 342.446 122.813 342.632 123.018C342.827 123.223 343.047 123.374 343.291 123.472C343.545 123.57 343.803 123.619 344.067 123.619C344.428 123.619 344.76 123.57 345.063 123.472C345.366 123.365 345.605 123.243 345.781 123.106V118.653ZM352.301 117.291C352.418 117.291 352.55 117.301 352.696 117.32C352.852 117.33 353.004 117.35 353.15 117.379C353.297 117.398 353.428 117.423 353.546 117.452C353.673 117.472 353.765 117.491 353.824 117.511L353.59 118.697C353.482 118.658 353.301 118.614 353.048 118.565C352.803 118.507 352.486 118.477 352.096 118.477C351.842 118.477 351.588 118.507 351.334 118.565C351.09 118.614 350.929 118.648 350.851 118.668V125.069H349.488V117.774C349.811 117.657 350.211 117.55 350.689 117.452C351.168 117.345 351.705 117.291 352.301 117.291ZM357.716 124.087C358.038 124.087 358.322 124.082 358.566 124.073C358.82 124.053 359.03 124.024 359.196 123.985V121.714C359.098 121.666 358.937 121.627 358.712 121.597C358.497 121.558 358.234 121.539 357.921 121.539C357.716 121.539 357.497 121.553 357.262 121.583C357.038 121.612 356.828 121.675 356.632 121.773C356.447 121.861 356.291 121.988 356.164 122.154C356.037 122.31 355.973 122.52 355.973 122.784C355.973 123.272 356.129 123.614 356.442 123.809C356.754 123.994 357.179 124.087 357.716 124.087ZM357.599 117.262C358.146 117.262 358.605 117.335 358.976 117.481C359.357 117.618 359.659 117.818 359.884 118.082C360.118 118.336 360.284 118.643 360.382 119.005C360.48 119.356 360.528 119.747 360.528 120.176V124.937C360.411 124.956 360.245 124.986 360.03 125.025C359.825 125.054 359.591 125.083 359.327 125.113C359.064 125.142 358.776 125.166 358.463 125.186C358.161 125.215 357.858 125.23 357.555 125.23C357.125 125.23 356.73 125.186 356.369 125.098C356.007 125.01 355.695 124.873 355.431 124.688C355.168 124.492 354.963 124.239 354.816 123.926C354.67 123.614 354.596 123.238 354.596 122.798C354.596 122.378 354.679 122.017 354.845 121.714C355.021 121.412 355.256 121.168 355.548 120.982C355.841 120.797 356.183 120.66 356.574 120.572C356.964 120.484 357.374 120.44 357.804 120.44C357.941 120.44 358.082 120.45 358.229 120.469C358.375 120.479 358.512 120.499 358.639 120.528C358.776 120.548 358.893 120.567 358.991 120.587C359.088 120.606 359.157 120.621 359.196 120.631V120.25C359.196 120.025 359.171 119.805 359.122 119.591C359.074 119.366 358.986 119.171 358.859 119.005C358.732 118.829 358.556 118.692 358.331 118.595C358.117 118.487 357.833 118.433 357.482 118.433C357.033 118.433 356.637 118.468 356.295 118.536C355.963 118.595 355.714 118.658 355.548 118.726L355.387 117.599C355.563 117.52 355.856 117.447 356.266 117.379C356.676 117.301 357.121 117.262 357.599 117.262ZM364.065 117.452H366.951V118.595H364.065V122.11C364.065 122.491 364.094 122.808 364.153 123.062C364.212 123.306 364.299 123.501 364.417 123.648C364.534 123.785 364.68 123.882 364.856 123.941C365.032 123.999 365.237 124.029 365.471 124.029C365.881 124.029 366.208 123.985 366.453 123.897C366.706 123.799 366.882 123.731 366.98 123.692L367.244 124.82C367.107 124.888 366.868 124.971 366.526 125.069C366.184 125.176 365.793 125.23 365.354 125.23C364.837 125.23 364.407 125.166 364.065 125.039C363.733 124.903 363.465 124.702 363.26 124.439C363.054 124.175 362.908 123.853 362.82 123.472C362.742 123.081 362.703 122.632 362.703 122.125V115.328L364.065 115.094V117.452ZM370.046 125.069H368.684V117.452H370.046V125.069ZM369.358 116.075C369.114 116.075 368.904 115.997 368.728 115.841C368.562 115.675 368.479 115.455 368.479 115.182C368.479 114.908 368.562 114.694 368.728 114.537C368.904 114.371 369.114 114.288 369.358 114.288C369.602 114.288 369.807 114.371 369.973 114.537C370.149 114.694 370.237 114.908 370.237 115.182C370.237 115.455 370.149 115.675 369.973 115.841C369.807 115.997 369.602 116.075 369.358 116.075ZM379.112 121.26C379.112 121.866 379.024 122.413 378.848 122.901C378.672 123.389 378.423 123.809 378.101 124.16C377.789 124.512 377.413 124.785 376.973 124.981C376.534 125.166 376.055 125.259 375.538 125.259C375.02 125.259 374.542 125.166 374.102 124.981C373.663 124.785 373.282 124.512 372.96 124.16C372.647 123.809 372.403 123.389 372.228 122.901C372.052 122.413 371.964 121.866 371.964 121.26C371.964 120.665 372.052 120.123 372.228 119.635C372.403 119.137 372.647 118.712 372.96 118.36C373.282 118.009 373.663 117.74 374.102 117.555C374.542 117.359 375.02 117.262 375.538 117.262C376.055 117.262 376.534 117.359 376.973 117.555C377.413 117.74 377.789 118.009 378.101 118.36C378.423 118.712 378.672 119.137 378.848 119.635C379.024 120.123 379.112 120.665 379.112 121.26ZM377.691 121.26C377.691 120.401 377.496 119.722 377.105 119.224C376.724 118.717 376.202 118.463 375.538 118.463C374.874 118.463 374.347 118.717 373.956 119.224C373.575 119.722 373.385 120.401 373.385 121.26C373.385 122.12 373.575 122.803 373.956 123.311C374.347 123.809 374.874 124.058 375.538 124.058C376.202 124.058 376.724 123.809 377.105 123.311C377.496 122.803 377.691 122.12 377.691 121.26ZM381.028 117.672C381.341 117.594 381.756 117.511 382.273 117.423C382.791 117.335 383.386 117.291 384.06 117.291C384.666 117.291 385.168 117.379 385.569 117.555C385.969 117.721 386.286 117.96 386.521 118.272C386.765 118.575 386.936 118.941 387.033 119.371C387.131 119.801 387.18 120.274 387.18 120.792V125.069H385.818V121.085C385.818 120.616 385.784 120.216 385.715 119.884C385.657 119.552 385.554 119.283 385.408 119.078C385.261 118.873 385.066 118.726 384.822 118.639C384.578 118.541 384.275 118.492 383.914 118.492C383.767 118.492 383.616 118.497 383.46 118.507C383.303 118.516 383.152 118.531 383.006 118.551C382.869 118.56 382.742 118.575 382.625 118.595C382.517 118.614 382.439 118.629 382.39 118.639V125.069H381.028V117.672Z" fill="#161616"/>
<path d="M352.762 77.3127C352.762 76.8722 352.663 76.4849 352.466 76.1507C352.268 75.8013 351.926 75.5127 351.44 75.2849C350.954 75.057 350.301 74.8824 349.481 74.7609C348.661 74.6393 347.628 74.5786 346.382 74.5786C346.549 73.1659 346.686 71.7305 346.792 70.2723C346.899 68.8141 346.982 67.4471 347.043 66.1712H355.587V69.0192H349.891C349.861 69.566 349.823 70.0977 349.777 70.6141C349.747 71.1154 349.709 71.5559 349.663 71.9356C351.881 72.0875 353.514 72.6115 354.562 73.5077C355.625 74.3887 356.157 75.6191 356.157 77.1988C356.157 77.9279 356.028 78.6038 355.769 79.2266C355.511 79.8493 355.124 80.3886 354.607 80.8443C354.091 81.2999 353.438 81.6569 352.648 81.9151C351.873 82.1733 350.962 82.3025 349.914 82.3025C349.504 82.3025 349.071 82.2721 348.615 82.2113C348.175 82.1658 347.742 82.0974 347.316 82.0063C346.906 81.9303 346.534 81.8468 346.2 81.7556C345.866 81.6645 345.608 81.5734 345.425 81.4822L346.04 78.6798C346.42 78.8468 346.921 79.0139 347.544 79.181C348.167 79.3329 348.911 79.4089 349.777 79.4089C350.825 79.4089 351.585 79.2038 352.055 78.7937C352.526 78.3684 352.762 77.8747 352.762 77.3127Z" fill="#161616"/>
<path d="M79.1584 263.123C79.1584 264.002 79.0217 264.769 78.7483 265.423C78.4748 266.067 78.0891 266.604 77.5911 267.034C77.0931 267.454 76.4975 267.771 75.8042 267.986C75.1109 268.191 74.3493 268.294 73.5193 268.294C73.1091 268.294 72.6551 268.274 72.1571 268.235C71.6688 268.206 71.2246 268.142 70.8242 268.045V258.202C71.2246 258.104 71.6688 258.041 72.1571 258.011C72.6551 257.972 73.1091 257.953 73.5193 257.953C74.3493 257.953 75.1109 258.06 75.8042 258.275C76.4975 258.48 77.0931 258.798 77.5911 259.227C78.0891 259.647 78.4748 260.184 78.7483 260.838C79.0217 261.483 79.1584 262.244 79.1584 263.123ZM73.6364 267.049C74.984 267.049 75.9897 266.707 76.6537 266.023C77.3177 265.33 77.6497 264.363 77.6497 263.123C77.6497 261.883 77.3177 260.921 76.6537 260.238C75.9897 259.545 74.984 259.198 73.6364 259.198C73.2361 259.198 72.9236 259.203 72.699 259.213C72.4842 259.222 72.3328 259.232 72.245 259.242V267.005C72.3328 267.015 72.4842 267.024 72.699 267.034C72.9236 267.044 73.2361 267.049 73.6364 267.049ZM80.7533 264.412C80.7533 263.738 80.8509 263.153 81.0462 262.655C81.2415 262.147 81.5003 261.727 81.8225 261.395C82.1448 261.063 82.5158 260.814 82.9357 260.648C83.3556 260.482 83.7852 260.399 84.2247 260.399C85.2499 260.399 86.036 260.721 86.5828 261.366C87.1297 262 87.4031 262.972 87.4031 264.28C87.4031 264.339 87.4031 264.417 87.4031 264.515C87.4031 264.603 87.3982 264.686 87.3884 264.764H82.1741C82.2327 265.555 82.4621 266.155 82.8625 266.565C83.2628 266.975 83.8878 267.181 84.7373 267.181C85.2158 267.181 85.6161 267.141 85.9384 267.063C86.2704 266.975 86.5194 266.892 86.6854 266.814L86.8758 267.957C86.7098 268.045 86.4168 268.137 85.9969 268.235C85.5868 268.333 85.1181 268.382 84.5908 268.382C83.9268 268.382 83.3507 268.284 82.8625 268.089C82.384 267.884 81.9885 267.605 81.6761 267.254C81.3636 266.902 81.1292 266.487 80.973 266.009C80.8265 265.521 80.7533 264.988 80.7533 264.412ZM85.9823 263.665C85.9921 263.05 85.8358 262.547 85.5136 262.157C85.2011 261.756 84.7666 261.556 84.21 261.556C83.8975 261.556 83.6192 261.62 83.3751 261.746C83.1408 261.864 82.9406 262.02 82.7746 262.215C82.6086 262.41 82.4768 262.635 82.3791 262.889C82.2912 263.143 82.2327 263.402 82.2034 263.665H85.9823ZM91.1321 267.224C91.6887 267.224 92.0988 267.151 92.3625 267.005C92.6359 266.858 92.7726 266.624 92.7726 266.302C92.7726 265.97 92.6408 265.706 92.3771 265.511C92.1135 265.315 91.6789 265.096 91.0735 264.852C90.7806 264.734 90.4974 264.617 90.224 264.5C89.9604 264.373 89.7309 264.227 89.5356 264.061C89.3403 263.895 89.1841 263.695 89.0669 263.46C88.9497 263.226 88.8911 262.938 88.8911 262.596C88.8911 261.922 89.1401 261.39 89.6381 260.999C90.1361 260.599 90.8148 260.399 91.6741 260.399C91.8889 260.399 92.1037 260.414 92.3185 260.443C92.5334 260.462 92.7335 260.492 92.9191 260.531C93.1046 260.56 93.2657 260.594 93.4024 260.633C93.5489 260.672 93.6612 260.707 93.7393 260.736L93.4903 261.908C93.3438 261.829 93.1144 261.751 92.8019 261.673C92.4894 261.585 92.1135 261.541 91.6741 261.541C91.2932 261.541 90.9612 261.62 90.6781 261.776C90.3949 261.922 90.2533 262.157 90.2533 262.479C90.2533 262.645 90.2826 262.791 90.3412 262.918C90.4095 263.045 90.5072 263.162 90.6341 263.27C90.7708 263.367 90.9368 263.46 91.1321 263.548C91.3274 263.636 91.5618 263.729 91.8352 263.826C92.1965 263.963 92.5187 264.1 92.8019 264.236C93.0851 264.363 93.3243 264.515 93.5196 264.691C93.7246 264.866 93.8809 265.081 93.9883 265.335C94.0957 265.579 94.1494 265.882 94.1494 266.243C94.1494 266.946 93.8858 267.478 93.3585 267.84C92.8409 268.201 92.0988 268.382 91.1321 268.382C90.4584 268.382 89.9311 268.323 89.5502 268.206C89.1694 268.098 88.9106 268.015 88.7739 267.957L89.0229 266.785C89.1792 266.844 89.4282 266.932 89.7699 267.049C90.1117 267.166 90.5658 267.224 91.1321 267.224ZM97.2588 268.206H95.8966V260.589H97.2588V268.206ZM96.5704 259.213C96.3263 259.213 96.1164 259.134 95.9406 258.978C95.7746 258.812 95.6916 258.592 95.6916 258.319C95.6916 258.046 95.7746 257.831 95.9406 257.675C96.1164 257.509 96.3263 257.426 96.5704 257.426C96.8145 257.426 97.0196 257.509 97.1856 257.675C97.3614 257.831 97.4492 258.046 97.4492 258.319C97.4492 258.592 97.3614 258.812 97.1856 258.978C97.0196 259.134 96.8145 259.213 96.5704 259.213ZM104.376 267.444C104.259 267.522 104.03 267.625 103.688 267.752C103.356 267.869 102.965 267.928 102.516 267.928C102.057 267.928 101.623 267.854 101.212 267.708C100.812 267.561 100.461 267.337 100.158 267.034C99.8552 266.722 99.616 266.336 99.4402 265.877C99.2644 265.418 99.1766 264.871 99.1766 264.236C99.1766 263.68 99.2596 263.172 99.4256 262.713C99.5916 262.244 99.8308 261.844 100.143 261.512C100.465 261.17 100.856 260.907 101.315 260.721C101.774 260.526 102.291 260.428 102.868 260.428C103.502 260.428 104.054 260.477 104.523 260.575C105.001 260.663 105.402 260.746 105.724 260.824V267.62C105.724 268.792 105.421 269.641 104.816 270.169C104.21 270.696 103.292 270.959 102.062 270.959C101.584 270.959 101.129 270.92 100.7 270.842C100.28 270.764 99.9138 270.671 99.6013 270.564L99.8503 269.378C100.124 269.485 100.456 269.578 100.846 269.656C101.247 269.744 101.662 269.788 102.091 269.788C102.902 269.788 103.483 269.627 103.834 269.304C104.196 268.982 104.376 268.469 104.376 267.766V267.444ZM104.362 261.79C104.225 261.751 104.039 261.717 103.805 261.688C103.58 261.649 103.273 261.629 102.882 261.629C102.15 261.629 101.584 261.869 101.183 262.347C100.793 262.825 100.597 263.46 100.597 264.251C100.597 264.691 100.651 265.066 100.758 265.379C100.876 265.691 101.027 265.95 101.212 266.155C101.408 266.36 101.627 266.512 101.872 266.609C102.125 266.707 102.384 266.756 102.648 266.756C103.009 266.756 103.341 266.707 103.644 266.609C103.947 266.502 104.186 266.38 104.362 266.243V261.79ZM108.069 260.809C108.382 260.731 108.797 260.648 109.314 260.56C109.832 260.472 110.427 260.428 111.101 260.428C111.707 260.428 112.209 260.516 112.61 260.692C113.01 260.858 113.327 261.097 113.562 261.41C113.806 261.712 113.977 262.078 114.074 262.508C114.172 262.938 114.221 263.411 114.221 263.929V268.206H112.859V264.222C112.859 263.753 112.825 263.353 112.756 263.021C112.698 262.689 112.595 262.42 112.449 262.215C112.302 262.01 112.107 261.864 111.863 261.776C111.619 261.678 111.316 261.629 110.955 261.629C110.808 261.629 110.657 261.634 110.501 261.644C110.344 261.654 110.193 261.668 110.047 261.688C109.91 261.698 109.783 261.712 109.666 261.732C109.558 261.751 109.48 261.766 109.431 261.776V268.206H108.069V260.809Z" fill="#161616"/>
<path d="M91.1563 247.44C90.7461 247.44 90.3132 247.41 89.8576 247.349C89.4019 247.303 88.9614 247.235 88.5361 247.144C88.1108 247.053 87.7234 246.954 87.3741 246.848C87.0247 246.741 86.7513 246.642 86.5538 246.551L87.2146 243.726C87.6095 243.893 88.1108 244.075 88.7183 244.273C89.3411 244.455 90.1082 244.546 91.0196 244.546C92.0676 244.546 92.8347 244.349 93.3208 243.954C93.8068 243.559 94.0499 243.027 94.0499 242.359C94.0499 241.949 93.9587 241.607 93.7765 241.334C93.6094 241.045 93.3739 240.817 93.0701 240.65C92.7664 240.468 92.4018 240.346 91.9765 240.286C91.5664 240.21 91.1259 240.172 90.655 240.172H89.3335V237.438H90.8373C91.1715 237.438 91.4904 237.407 91.7942 237.346C92.1132 237.286 92.3942 237.187 92.6372 237.05C92.8803 236.898 93.0701 236.701 93.2068 236.458C93.3587 236.2 93.4347 235.881 93.4347 235.501C93.4347 235.212 93.3739 234.962 93.2524 234.749C93.1309 234.536 92.9714 234.362 92.7739 234.225C92.5917 234.088 92.3714 233.99 92.1132 233.929C91.8702 233.853 91.6195 233.815 91.3613 233.815C90.7082 233.815 90.1006 233.914 89.5386 234.111C88.9918 234.309 88.4905 234.552 88.0348 234.84L86.8272 232.357C87.0703 232.205 87.3513 232.045 87.6703 231.878C88.0044 231.711 88.369 231.559 88.7639 231.423C89.1588 231.286 89.5765 231.172 90.017 231.081C90.4727 230.99 90.9512 230.944 91.4525 230.944C92.379 230.944 93.1765 231.058 93.8448 231.286C94.5283 231.498 95.0904 231.81 95.5308 232.22C95.9713 232.615 96.2979 233.086 96.5106 233.633C96.7232 234.164 96.8296 234.749 96.8296 235.387C96.8296 236.01 96.6549 236.617 96.3055 237.21C95.9562 237.787 95.4853 238.227 94.8929 238.531C95.7131 238.865 96.3435 239.367 96.784 240.035C97.2397 240.688 97.4675 241.478 97.4675 242.405C97.4675 243.134 97.346 243.81 97.103 244.432C96.8599 245.04 96.4802 245.572 95.9638 246.027C95.4473 246.468 94.7866 246.817 93.9815 247.075C93.1917 247.318 92.2499 247.44 91.1563 247.44Z" fill="#161616"/>
<path d="M399.604 266.799C399.506 266.565 399.374 266.267 399.208 265.906C399.052 265.545 398.881 265.154 398.695 264.734C398.51 264.314 398.31 263.885 398.095 263.445C397.89 262.996 397.695 262.576 397.509 262.186C397.323 261.785 397.148 261.429 396.982 261.116C396.825 260.804 396.699 260.565 396.601 260.399C396.493 261.551 396.406 262.801 396.337 264.148C396.269 265.486 396.21 266.839 396.161 268.206H394.77C394.809 267.327 394.853 266.443 394.902 265.554C394.951 264.656 395.004 263.777 395.063 262.918C395.131 262.049 395.2 261.204 395.268 260.384C395.346 259.564 395.429 258.788 395.517 258.055H396.762C397.026 258.485 397.309 258.993 397.612 259.578C397.914 260.164 398.217 260.78 398.52 261.424C398.822 262.059 399.115 262.698 399.398 263.343C399.682 263.977 399.94 264.558 400.175 265.086C400.409 264.558 400.668 263.977 400.951 263.343C401.234 262.698 401.527 262.059 401.83 261.424C402.133 260.78 402.435 260.164 402.738 259.578C403.041 258.993 403.324 258.485 403.588 258.055H404.833C405.165 261.326 405.414 264.71 405.58 268.206H404.188C404.139 266.839 404.081 265.486 404.012 264.148C403.944 262.801 403.856 261.551 403.749 260.399C403.651 260.565 403.519 260.804 403.353 261.116C403.197 261.429 403.026 261.785 402.841 262.186C402.655 262.576 402.455 262.996 402.24 263.445C402.035 263.885 401.84 264.314 401.654 264.734C401.469 265.154 401.293 265.545 401.127 265.906C400.971 266.267 400.844 266.565 400.746 266.799H399.604ZM410.297 267.224C410.619 267.224 410.903 267.219 411.147 267.21C411.401 267.19 411.611 267.161 411.777 267.122V264.851C411.679 264.803 411.518 264.764 411.293 264.734C411.078 264.695 410.815 264.676 410.502 264.676C410.297 264.676 410.078 264.69 409.843 264.72C409.619 264.749 409.409 264.812 409.213 264.91C409.028 264.998 408.872 265.125 408.745 265.291C408.618 265.447 408.554 265.657 408.554 265.921C408.554 266.409 408.71 266.751 409.023 266.946C409.335 267.131 409.76 267.224 410.297 267.224ZM410.18 260.399C410.727 260.399 411.186 260.472 411.557 260.618C411.938 260.755 412.24 260.955 412.465 261.219C412.699 261.473 412.865 261.78 412.963 262.142C413.061 262.493 413.109 262.884 413.109 263.313V268.074C412.992 268.093 412.826 268.123 412.611 268.162C412.406 268.191 412.172 268.22 411.908 268.25C411.645 268.279 411.357 268.303 411.044 268.323C410.742 268.352 410.439 268.367 410.136 268.367C409.706 268.367 409.311 268.323 408.95 268.235C408.588 268.147 408.276 268.01 408.012 267.825C407.749 267.629 407.544 267.376 407.397 267.063C407.251 266.751 407.177 266.375 407.177 265.935C407.177 265.515 407.26 265.154 407.426 264.851C407.602 264.549 407.837 264.305 408.129 264.119C408.422 263.934 408.764 263.797 409.155 263.709C409.545 263.621 409.955 263.577 410.385 263.577C410.522 263.577 410.663 263.587 410.81 263.606C410.956 263.616 411.093 263.636 411.22 263.665C411.357 263.685 411.474 263.704 411.572 263.724C411.669 263.743 411.738 263.758 411.777 263.768V263.387C411.777 263.162 411.752 262.942 411.703 262.728C411.655 262.503 411.567 262.308 411.44 262.142C411.313 261.966 411.137 261.829 410.912 261.732C410.698 261.624 410.414 261.57 410.063 261.57C409.614 261.57 409.218 261.605 408.876 261.673C408.544 261.732 408.295 261.795 408.129 261.863L407.968 260.736C408.144 260.657 408.437 260.584 408.847 260.516C409.257 260.438 409.702 260.399 410.18 260.399ZM416.734 268.206H415.372V260.589H416.734V268.206ZM416.046 259.212C415.802 259.212 415.592 259.134 415.416 258.978C415.25 258.812 415.167 258.592 415.167 258.319C415.167 258.045 415.25 257.831 415.416 257.674C415.592 257.508 415.802 257.425 416.046 257.425C416.29 257.425 416.495 257.508 416.661 257.674C416.837 257.831 416.924 258.045 416.924 258.319C416.924 258.592 416.837 258.812 416.661 258.978C416.495 259.134 416.29 259.212 416.046 259.212ZM419.077 260.809C419.389 260.731 419.804 260.648 420.322 260.56C420.839 260.472 421.435 260.428 422.108 260.428C422.714 260.428 423.217 260.516 423.617 260.692C424.017 260.858 424.335 261.097 424.569 261.409C424.813 261.712 424.984 262.078 425.082 262.508C425.179 262.938 425.228 263.411 425.228 263.929V268.206H423.866V264.222C423.866 263.753 423.832 263.353 423.764 263.021C423.705 262.689 423.602 262.42 423.456 262.215C423.31 262.01 423.114 261.863 422.87 261.776C422.626 261.678 422.323 261.629 421.962 261.629C421.816 261.629 421.664 261.634 421.508 261.644C421.352 261.653 421.2 261.668 421.054 261.688C420.917 261.697 420.79 261.712 420.673 261.732C420.566 261.751 420.488 261.766 420.439 261.776V268.206H419.077V260.809ZM428.761 260.589H431.647V261.732H428.761V265.247C428.761 265.628 428.791 265.945 428.849 266.199C428.908 266.443 428.996 266.638 429.113 266.785C429.23 266.922 429.377 267.019 429.552 267.078C429.728 267.136 429.933 267.166 430.168 267.166C430.578 267.166 430.905 267.122 431.149 267.034C431.403 266.936 431.579 266.868 431.676 266.829L431.94 267.957C431.803 268.025 431.564 268.108 431.222 268.206C430.88 268.313 430.49 268.367 430.05 268.367C429.533 268.367 429.103 268.303 428.761 268.176C428.429 268.04 428.161 267.839 427.956 267.576C427.751 267.312 427.604 266.99 427.516 266.609C427.438 266.218 427.399 265.769 427.399 265.262V258.465L428.761 258.231V260.589ZM432.813 264.412C432.813 263.738 432.91 263.152 433.105 262.654C433.301 262.147 433.56 261.727 433.882 261.395C434.204 261.063 434.575 260.814 434.995 260.648C435.415 260.482 435.844 260.399 436.284 260.399C437.309 260.399 438.095 260.721 438.642 261.365C439.189 262 439.462 262.972 439.462 264.28C439.462 264.339 439.462 264.417 439.462 264.515C439.462 264.602 439.457 264.685 439.448 264.764H434.233C434.292 265.554 434.521 266.155 434.922 266.565C435.322 266.975 435.947 267.18 436.797 267.18C437.275 267.18 437.675 267.141 437.998 267.063C438.33 266.975 438.579 266.892 438.745 266.814L438.935 267.957C438.769 268.044 438.476 268.137 438.056 268.235C437.646 268.333 437.177 268.381 436.65 268.381C435.986 268.381 435.41 268.284 434.922 268.088C434.443 267.883 434.048 267.605 433.735 267.254C433.423 266.902 433.188 266.487 433.032 266.009C432.886 265.52 432.813 264.988 432.813 264.412ZM438.042 263.665C438.051 263.05 437.895 262.547 437.573 262.156C437.26 261.756 436.826 261.556 436.269 261.556C435.957 261.556 435.678 261.619 435.434 261.746C435.2 261.863 435 262.02 434.834 262.215C434.668 262.41 434.536 262.635 434.438 262.889C434.35 263.143 434.292 263.401 434.263 263.665H438.042ZM441.419 260.809C441.732 260.731 442.147 260.648 442.664 260.56C443.182 260.472 443.777 260.428 444.451 260.428C445.056 260.428 445.559 260.516 445.96 260.692C446.36 260.858 446.677 261.097 446.912 261.409C447.156 261.712 447.327 262.078 447.424 262.508C447.522 262.938 447.571 263.411 447.571 263.929V268.206H446.209V264.222C446.209 263.753 446.174 263.353 446.106 263.021C446.048 262.689 445.945 262.42 445.799 262.215C445.652 262.01 445.457 261.863 445.213 261.776C444.969 261.678 444.666 261.629 444.305 261.629C444.158 261.629 444.007 261.634 443.85 261.644C443.694 261.653 443.543 261.668 443.396 261.688C443.26 261.697 443.133 261.712 443.016 261.732C442.908 261.751 442.83 261.766 442.781 261.776V268.206H441.419V260.809ZM452.408 267.224C452.73 267.224 453.013 267.219 453.257 267.21C453.511 267.19 453.721 267.161 453.887 267.122V264.851C453.789 264.803 453.628 264.764 453.404 264.734C453.189 264.695 452.925 264.676 452.613 264.676C452.408 264.676 452.188 264.69 451.953 264.72C451.729 264.749 451.519 264.812 451.324 264.91C451.138 264.998 450.982 265.125 450.855 265.291C450.728 265.447 450.665 265.657 450.665 265.921C450.665 266.409 450.821 266.751 451.133 266.946C451.446 267.131 451.87 267.224 452.408 267.224ZM452.29 260.399C452.837 260.399 453.296 260.472 453.667 260.618C454.048 260.755 454.351 260.955 454.575 261.219C454.81 261.473 454.976 261.78 455.073 262.142C455.171 262.493 455.22 262.884 455.22 263.313V268.074C455.103 268.093 454.937 268.123 454.722 268.162C454.517 268.191 454.282 268.22 454.019 268.25C453.755 268.279 453.467 268.303 453.155 268.323C452.852 268.352 452.549 268.367 452.246 268.367C451.817 268.367 451.421 268.323 451.06 268.235C450.699 268.147 450.386 268.01 450.123 267.825C449.859 267.629 449.654 267.376 449.507 267.063C449.361 266.751 449.288 266.375 449.288 265.935C449.288 265.515 449.371 265.154 449.537 264.851C449.712 264.549 449.947 264.305 450.24 264.119C450.533 263.934 450.874 263.797 451.265 263.709C451.656 263.621 452.066 263.577 452.495 263.577C452.632 263.577 452.774 263.587 452.92 263.606C453.067 263.616 453.203 263.636 453.33 263.665C453.467 263.685 453.584 263.704 453.682 263.724C453.779 263.743 453.848 263.758 453.887 263.768V263.387C453.887 263.162 453.862 262.942 453.814 262.728C453.765 262.503 453.677 262.308 453.55 262.142C453.423 261.966 453.247 261.829 453.023 261.732C452.808 261.624 452.525 261.57 452.173 261.57C451.724 261.57 451.329 261.605 450.987 261.673C450.655 261.732 450.406 261.795 450.24 261.863L450.079 260.736C450.254 260.657 450.547 260.584 450.957 260.516C451.368 260.438 451.812 260.399 452.29 260.399ZM457.482 260.809C457.795 260.731 458.21 260.648 458.727 260.56C459.245 260.472 459.84 260.428 460.514 260.428C461.12 260.428 461.622 260.516 462.023 260.692C462.423 260.858 462.74 261.097 462.975 261.409C463.219 261.712 463.39 262.078 463.487 262.508C463.585 262.938 463.634 263.411 463.634 263.929V268.206H462.272V264.222C462.272 263.753 462.238 263.353 462.169 263.021C462.111 262.689 462.008 262.42 461.862 262.215C461.715 262.01 461.52 261.863 461.276 261.776C461.032 261.678 460.729 261.629 460.368 261.629C460.221 261.629 460.07 261.634 459.914 261.644C459.757 261.653 459.606 261.668 459.46 261.688C459.323 261.697 459.196 261.712 459.079 261.732C458.971 261.751 458.893 261.766 458.844 261.776V268.206H457.482V260.809ZM469.203 268.381C468.588 268.381 468.046 268.284 467.577 268.088C467.118 267.893 466.728 267.62 466.405 267.268C466.093 266.917 465.859 266.502 465.702 266.023C465.546 265.535 465.468 264.998 465.468 264.412C465.468 263.826 465.551 263.289 465.717 262.801C465.893 262.313 466.137 261.893 466.449 261.541C466.762 261.18 467.143 260.902 467.592 260.706C468.051 260.501 468.559 260.399 469.115 260.399C469.457 260.399 469.799 260.428 470.14 260.487C470.482 260.545 470.809 260.638 471.122 260.765L470.814 261.922C470.609 261.824 470.37 261.746 470.096 261.688C469.833 261.629 469.55 261.6 469.247 261.6C468.485 261.6 467.899 261.839 467.489 262.317C467.089 262.796 466.889 263.494 466.889 264.412C466.889 264.822 466.933 265.198 467.021 265.54C467.118 265.882 467.265 266.175 467.46 266.419C467.665 266.663 467.924 266.853 468.236 266.99C468.549 267.117 468.93 267.18 469.379 267.18C469.74 267.18 470.067 267.146 470.36 267.078C470.653 267.009 470.883 266.936 471.049 266.858L471.239 268.001C471.161 268.049 471.049 268.098 470.902 268.147C470.756 268.186 470.59 268.22 470.404 268.25C470.219 268.289 470.018 268.318 469.804 268.337C469.598 268.367 469.398 268.381 469.203 268.381ZM472.277 264.412C472.277 263.738 472.374 263.152 472.57 262.654C472.765 262.147 473.024 261.727 473.346 261.395C473.668 261.063 474.039 260.814 474.459 260.648C474.879 260.482 475.309 260.399 475.748 260.399C476.773 260.399 477.559 260.721 478.106 261.365C478.653 262 478.926 262.972 478.926 264.28C478.926 264.339 478.926 264.417 478.926 264.515C478.926 264.602 478.921 264.685 478.912 264.764H473.697C473.756 265.554 473.985 266.155 474.386 266.565C474.786 266.975 475.411 267.18 476.261 267.18C476.739 267.18 477.139 267.141 477.462 267.063C477.794 266.975 478.043 266.892 478.209 266.814L478.399 267.957C478.233 268.044 477.94 268.137 477.52 268.235C477.11 268.333 476.641 268.381 476.114 268.381C475.45 268.381 474.874 268.284 474.386 268.088C473.907 267.883 473.512 267.605 473.199 267.254C472.887 266.902 472.653 266.487 472.496 266.009C472.35 265.52 472.277 264.988 472.277 264.412ZM477.506 263.665C477.515 263.05 477.359 262.547 477.037 262.156C476.724 261.756 476.29 261.556 475.733 261.556C475.421 261.556 475.143 261.619 474.898 261.746C474.664 261.863 474.464 262.02 474.298 262.215C474.132 262.41 474 262.635 473.902 262.889C473.815 263.143 473.756 263.401 473.727 263.665H477.506Z" fill="#161616"/>
<path d="M436.518 239.67C436.184 239.67 435.827 239.701 435.447 239.761C435.067 239.822 434.771 239.906 434.559 240.012C434.559 240.073 434.551 240.164 434.536 240.285C434.536 240.407 434.536 240.513 434.536 240.604C434.536 241.151 434.574 241.668 434.65 242.154C434.726 242.64 434.855 243.065 435.037 243.43C435.219 243.794 435.462 244.083 435.766 244.295C436.07 244.493 436.45 244.592 436.905 244.592C437.285 244.592 437.604 244.516 437.862 244.364C438.136 244.197 438.356 243.992 438.523 243.749C438.705 243.506 438.834 243.24 438.91 242.951C439.002 242.647 439.047 242.359 439.047 242.085C439.047 241.311 438.85 240.718 438.455 240.308C438.075 239.883 437.429 239.67 436.518 239.67ZM436.951 237.027C437.938 237.027 438.774 237.164 439.457 237.437C440.156 237.696 440.726 238.053 441.166 238.508C441.607 238.964 441.926 239.496 442.123 240.103C442.32 240.711 442.419 241.356 442.419 242.04C442.419 242.647 442.305 243.27 442.077 243.908C441.865 244.546 441.531 245.123 441.075 245.64C440.634 246.156 440.065 246.581 439.366 246.916C438.683 247.25 437.87 247.417 436.928 247.417C435.029 247.417 433.586 246.817 432.599 245.617C431.612 244.417 431.118 242.761 431.118 240.65C431.118 239.131 431.354 237.787 431.824 236.617C432.295 235.448 432.964 234.468 433.83 233.678C434.711 232.873 435.766 232.265 436.997 231.855C438.242 231.43 439.64 231.21 441.189 231.194C441.219 231.665 441.25 232.129 441.28 232.584C441.31 233.025 441.341 233.488 441.371 233.974C440.596 233.989 439.867 234.065 439.184 234.202C438.515 234.323 437.9 234.521 437.338 234.794C436.791 235.068 436.313 235.425 435.903 235.865C435.493 236.291 435.174 236.815 434.946 237.437C435.28 237.285 435.622 237.179 435.971 237.118C436.321 237.058 436.647 237.027 436.951 237.027Z" fill="#161616"/>
</g>
<defs>
<filter id="filter0_d" x="0" y="0" width="530" height="530" filterUnits="userSpaceOnUse" color-interpolation-filters="sRGB">
<feFlood flood-opacity="0" result="BackgroundImageFix"/>
<feColorMatrix in="SourceAlpha" type="matrix" values="0 0 0 0 0 0 0 0 0 0 0 0 0 0 0 0 0 0 127 0" result="hardAlpha"/>
<feOffset dy="16"/>
<feGaussianBlur stdDeviation="8"/>
<feColorMatrix type="matrix" values="0 0 0 0 0 0 0 0 0 0 0 0 0 0 0 0 0 0 0.06 0"/>
<feBlend mode="normal" in2="BackgroundImageFix" result="effect1_dropShadow"/>
<feBlend mode="normal" in="SourceGraphic" in2="effect1_dropShadow" result="shape"/>
</filter>
</defs>
</svg>
