<svg width="258" height="245" viewBox="0 0 258 245" fill="none" xmlns="http://www.w3.org/2000/svg">
<mask id="mask0" mask-type="alpha" maskUnits="userSpaceOnUse" x="0" y="21" width="246" height="224">
<rect y="21.9307" width="246" height="223" rx="16" fill="#161616"/>
<rect y="21.9307" width="246" height="223" rx="16" fill="url(#paint0_radial)"/>
</mask>
<g mask="url(#mask0)">
<rect y="21.9307" width="246" height="223" rx="16" fill="url(#paint1_radial)"/>
<g opacity="0.25">
<path d="M102.477 402.973C90.5704 402.973 80.9873 398.086 73.2969 388.095C69.7991 383.543 65.8221 379.423 61.5337 375.829C54.2506 369.744 46.7039 363.683 39.4447 357.813C33.0001 352.614 26.3399 347.271 19.8713 341.905C12.7559 336.011 8.20387 328.417 6.67058 319.936C5.35291 312.509 4.96959 304.842 4.58627 297.44C4.0592 286.898 1.16032 276.788 -4.25412 266.534L-5.21242 264.689C-10.4592 254.771 -15.8976 244.493 -20.6172 234.119C-22.5338 229.903 -24.115 225.471 -25.6483 221.158C-27.4691 216.055 -29.3618 210.785 -31.7815 205.921C-40.7656 188.001 -50.0852 169.458 -56.2663 149.549C-59.3089 139.726 -64.1004 127.292 -74.1147 118.044C-79.2177 113.325 -83.8895 108.006 -88.4175 102.855L-88.657 102.592C-94.6465 95.7638 -102.001 85.1027 -96.8026 71.2552L-96.1079 69.3864C-93.9517 63.6366 -91.7236 57.6951 -88.7289 52.2806C-82.3562 40.733 -73.3241 29.8563 -60.3391 18.0691C-51.0914 9.65994 -40.7417 5.65903 -28.7149 5.92255L-28.092 5.9465C-22.438 6.04233 -16.5923 6.16211 -10.8904 5.89856C-3.53537 5.56317 3.8915 4.34134 8.63512 -2.12723C12.0611 -6.82294 15.0797 -11.9978 17.9786 -16.981L19.0807 -18.8976C24.4712 -28.1692 31.5147 -37.2252 41.1936 -47.3833C48.333 -54.882 55.7838 -61.9256 62.1087 -67.8432C65.319 -70.8379 68.697 -73.7847 71.9553 -76.6356C76.9624 -80.9959 82.1134 -85.524 86.8091 -90.3155C96.2244 -99.9225 101.232 -112.357 102.094 -128.336C102.861 -142.543 99.3868 -155.72 95.1463 -170.286C91.7443 -181.954 91.361 -192.088 93.9724 -202.198C97.8535 -217.195 103.579 -233.055 112.036 -252.078C116.996 -263.218 117.619 -273.352 113.977 -283.079C110.312 -292.878 102.573 -298.819 88.8694 -302.365C76.2437 -305.623 62.9232 -309.408 50.7527 -316.835C39.8759 -323.472 25.8847 -332.719 14.3371 -345.489C9.49761 -350.831 5.01751 -356.222 3.58005 -363.337C3.46026 -363.888 3.81962 -364.439 4.3946 -364.559C4.94563 -364.679 5.49668 -364.319 5.61647 -363.744C6.9581 -357.156 11.0549 -352.197 15.8704 -346.878C27.2742 -334.3 41.0738 -325.149 51.8308 -318.584C63.7617 -311.301 76.9145 -307.564 89.3965 -304.353C99.0993 -301.862 110.887 -297.262 115.918 -283.798C119.703 -273.664 119.032 -262.715 113.929 -251.215C105.52 -232.313 99.8181 -216.572 95.9609 -201.671C93.4453 -191.944 93.8286 -182.145 97.1108 -170.861C101.423 -156.127 104.921 -142.759 104.13 -128.24C103.244 -111.734 98.0452 -98.8683 88.2705 -88.878C83.5269 -84.0385 78.328 -79.4866 73.2969 -75.1023C70.0626 -72.2514 66.6846 -69.3286 63.4982 -66.3338C57.1973 -60.4642 49.7944 -53.4446 42.679 -45.9698C33.1199 -35.9315 26.1961 -27.0193 20.8775 -17.8914L19.7754 -15.9987C16.8526 -10.9437 13.81 -5.74487 10.3122 -0.953339C5.06542 6.23398 -2.93644 7.55167 -10.7946 7.935C-16.5684 8.22247 -22.462 8.10269 -28.1399 7.98291H-28.7628C-40.2386 7.74335 -50.1091 11.5526 -58.9495 19.6024C-71.7669 31.2458 -80.6552 41.9549 -86.9081 53.2869C-89.831 58.5815 -92.0351 64.4512 -94.1673 70.1292L-94.8621 72.0218C-98.5755 81.8923 -96.1797 90.9244 -87.0998 101.274L-86.8602 101.538C-82.3801 106.641 -77.7563 111.935 -72.7252 116.583C-62.3515 126.166 -57.4402 138.936 -54.3017 148.998C-48.1686 168.715 -38.8969 187.186 -29.9607 205.059C-27.4691 210.042 -25.5525 215.361 -23.7077 220.535C-22.1984 224.8 -20.6172 229.184 -18.7245 233.329C-14.0288 243.655 -8.61442 253.885 -3.39165 263.803L-2.43332 265.648C3.12487 276.189 6.0956 286.587 6.64663 297.44C7.006 304.771 7.38932 312.365 8.70699 319.672C10.1445 327.674 14.4569 334.837 21.189 340.42C27.6575 345.786 34.3177 351.129 40.7384 356.328C48.0215 362.197 55.5682 368.258 62.8753 374.368C67.2835 378.057 71.3563 382.298 74.95 386.945C82.7602 397.056 92.6068 401.632 104.993 400.937C108.443 400.745 111.941 400.673 115.319 400.577C120.565 400.458 126.004 400.338 131.275 399.763C136.952 399.14 144.403 396.624 147.757 388.095C149.938 382.585 151.375 377.77 152.166 373.385C154.298 361.502 159.449 350.817 167.475 341.617C178.232 329.327 181.226 314.977 176.65 297.751C171.356 277.794 164.049 260.976 154.37 246.362C146.655 234.718 136.09 230.358 121.045 232.562C108.491 234.407 95.0984 235.82 81.754 230.933C65.8221 225.111 51.8787 204.939 57.365 185.342C58.8504 180.047 60.8389 174.824 62.7555 169.769C63.4503 167.972 64.1211 166.175 64.7919 164.355C68.2179 155.011 70.0387 145.356 70.3741 134.839L70.398 133.881C70.6376 125.974 70.8772 117.805 74.2073 110.067C78.8072 99.3336 87.7913 93.416 96.6077 88.2651C104.059 83.9048 111.773 79.7122 119.2 75.6634L124.447 72.7885C138.845 64.9064 151.255 53.6462 163.474 37.3311C168.625 30.4552 174.518 23.5554 180.963 16.8473C190.833 6.59335 195.313 -2.86993 195.553 -13.8665C195.601 -16.5737 195.816 -19.3049 196.008 -21.9402C196.296 -25.7974 196.583 -29.7983 196.415 -33.6795C195.721 -49.4915 198.524 -63.962 205.04 -77.9533C211.149 -91.0821 212.85 -105.792 210.55 -125.629C208.993 -139.093 205.495 -152.366 202.093 -165.159C201.111 -168.849 200.129 -172.538 199.195 -176.228C196.583 -186.553 195.098 -196.472 194.738 -205.744C194.307 -217.674 197.278 -229.078 203.555 -239.644C207.628 -246.496 212.108 -254.545 213.881 -263.649L214.264 -265.47C214.815 -268.081 215.366 -270.789 215.318 -273.352C214.887 -290.674 218.552 -305.503 226.482 -318.68C233.957 -331.09 237.383 -345.297 237.287 -363.385C237.287 -363.96 237.742 -364.415 238.317 -364.439C238.892 -364.439 239.348 -363.984 239.348 -363.409C239.443 -344.914 235.922 -330.371 228.255 -317.626C220.541 -304.809 216.971 -290.338 217.402 -273.424C217.474 -270.597 216.875 -267.794 216.324 -265.063L215.965 -263.266C214.12 -253.827 209.544 -245.585 205.376 -238.59C199.29 -228.36 196.415 -217.339 196.847 -205.815C197.182 -196.688 198.644 -186.889 201.231 -176.731C202.165 -173.041 203.148 -169.352 204.106 -165.686C207.508 -152.797 211.054 -139.477 212.611 -125.845C214.959 -105.6 213.186 -90.5551 206.909 -77.0429C200.56 -63.3631 197.805 -49.2041 198.476 -33.7274C198.644 -29.7265 198.356 -25.6776 198.069 -21.7486C197.877 -19.1372 197.685 -16.43 197.613 -13.7707C197.374 -2.22305 192.702 7.67145 182.448 18.3326C176.051 24.9689 170.23 31.7968 165.127 38.6248C152.717 55.1795 140.115 66.6313 125.429 74.6571L120.182 77.532C112.755 81.5809 105.065 85.7735 97.6379 90.1098C89.1329 95.0691 80.4603 100.771 76.1 110.929C72.9376 118.308 72.698 126.286 72.4584 134L72.4344 134.959C72.123 145.692 70.2543 155.562 66.7325 165.121C66.0617 166.942 65.3909 168.739 64.6961 170.536C62.8034 175.543 60.8149 180.742 59.3775 185.941C54.2026 204.484 67.4033 223.53 82.4967 229.04C95.3859 233.76 108.491 232.371 120.781 230.574C136.689 228.226 147.925 232.898 156.119 245.284C165.941 260.09 173.32 277.123 178.663 297.296C183.43 315.24 180.268 330.19 169.056 343.055C161.27 351.967 156.286 362.317 154.226 373.817C153.411 378.345 151.926 383.28 149.722 388.91C146.751 396.433 140.474 400.913 131.514 401.895C126.148 402.47 120.661 402.59 115.367 402.71C112.013 402.781 108.515 402.853 105.113 403.045C104.202 402.949 103.34 402.973 102.477 402.973Z" fill="white"/>
<path d="M457.195 87.8335C455.254 87.8335 453.409 87.4981 451.708 86.8512C446.845 84.9346 443.347 80.5025 441.335 73.6506C439.466 67.2299 438.388 60.1863 438.268 53.2625C438.053 40.8525 438.628 28.3945 439.155 16.3438C439.61 6.28152 442.077 -2.53488 446.51 -9.91385C456.069 -25.8457 465.364 -40.1963 474.9 -53.8043C484.554 -67.6039 491.071 -81.4036 494.784 -95.9938C498.666 -111.279 497.468 -124.815 491.095 -137.321C486.878 -145.61 482.853 -154.355 479.092 -163.315C472.863 -178.217 471.905 -190.675 476.073 -202.558C477.319 -206.103 478.829 -209.577 480.266 -212.955C481.871 -216.693 483.548 -220.574 484.842 -224.455C486.231 -228.695 486.495 -231.427 485.561 -232.553C484.77 -233.535 482.566 -233.894 479.164 -233.559C477.607 -233.415 475.882 -232.553 474.229 -231.738L473.414 -231.331C463.807 -226.683 454.152 -226.707 444.737 -231.379C442.964 -232.241 441.215 -233.175 439.466 -234.11C436.064 -235.907 432.518 -237.775 428.949 -239.165C417.545 -243.597 407.602 -244.388 398.57 -241.537C392.581 -239.668 387.143 -237.009 382.782 -233.894C367.234 -222.706 349.792 -212.668 326.266 -201.336C317.114 -196.927 308.394 -191.13 299.961 -185.524L298.643 -184.661C289.156 -178.384 284.891 -169.28 286.281 -158.404C287.478 -148.964 289.778 -138.71 293.109 -127.929C298.259 -111.255 298.212 -95.85 292.989 -80.8286L291.791 -77.4266C289.467 -70.8382 287.071 -64.0342 285.73 -57.2063C283.334 -45.0837 285.514 -37.1298 292.749 -31.4278C294.259 -30.2539 295.768 -29.08 297.277 -27.906C300.392 -25.5103 303.626 -23.0187 306.693 -20.4073C316.779 -11.7586 322.241 0.38797 326.625 10.1387C335.442 29.7361 336.113 46.4107 328.782 62.6061C324.613 71.8298 319.031 77.6994 312.203 80.0712C305.591 82.3712 297.948 81.317 289.491 76.9567L287.91 76.1422C281.968 73.0756 275.811 69.9131 269.654 67.0862C260.886 63.0612 252.74 62.2707 244.786 64.6664C242.27 65.4091 239.755 66.1997 237.239 66.9903C231.561 68.7871 225.668 70.6319 219.774 72.0214C213.904 73.411 207.172 74.1297 201.542 69.2184C195.409 63.8279 193.684 52.0407 200.919 43.0566C204.968 38.0255 210.071 33.6652 214.551 29.808C221.547 23.7946 224.733 16.1761 224.015 7.14401C223.703 3.33475 222.553 -0.426575 221.331 -4.40356C220.637 -6.70349 219.894 -9.07532 219.343 -11.4951C218.984 -13.0523 218.624 -14.6095 218.241 -16.1428C216.732 -22.4677 215.174 -29.0081 214.432 -35.5965C213.234 -46.2576 215.797 -56.4157 218.744 -65.8071C221.787 -75.51 225.165 -88.3752 224.23 -101.815L224.015 -104.834C223.655 -109.913 223.272 -115.16 223.296 -120.383C223.32 -125.102 223.559 -129.87 223.799 -134.494C223.967 -137.608 224.11 -140.699 224.206 -143.813C224.494 -153.444 227.249 -163.195 232.855 -174.527C241.144 -191.25 243.253 -207.876 239.371 -225.389C237.718 -232.864 237.431 -240.65 237.287 -248.652C237.191 -253.42 237.455 -258.235 237.694 -262.907C237.886 -266.405 238.078 -270.046 238.102 -273.592C238.198 -282.504 239.899 -291.177 243.277 -300.161L244.714 -303.994C250.033 -318.105 255.543 -332.696 261.245 -346.927C262.874 -351.023 264.958 -354.976 266.971 -358.786C267.881 -360.534 268.815 -362.259 269.678 -364.008C270.181 -365.039 271.427 -365.446 272.457 -364.943C273.487 -364.44 273.895 -363.194 273.391 -362.164C272.505 -360.391 271.571 -358.618 270.636 -356.845C268.672 -353.132 266.635 -349.274 265.078 -345.369C259.4 -331.162 253.89 -316.596 248.571 -302.509L247.134 -298.676C243.923 -290.171 242.318 -281.953 242.222 -273.52C242.175 -269.879 241.983 -266.213 241.791 -262.667C241.552 -258.091 241.288 -253.348 241.384 -248.724C241.528 -240.962 241.791 -233.391 243.372 -226.3C247.421 -208.092 245.121 -190.052 236.545 -172.706C231.13 -161.782 228.614 -152.845 228.327 -143.694C228.231 -140.555 228.063 -137.417 227.92 -134.302C227.68 -129.726 227.441 -125.007 227.441 -120.383C227.417 -115.328 227.8 -110.153 228.159 -105.17L228.375 -102.151C229.357 -88.0159 225.859 -74.6714 222.697 -64.6092C219.894 -55.649 217.426 -46.0181 218.552 -36.1235C219.271 -29.7987 220.78 -23.3781 222.266 -17.173C222.649 -15.6158 223.008 -14.0345 223.368 -12.4773C223.895 -10.2253 224.59 -7.90137 225.284 -5.67331C226.506 -1.67239 227.8 2.49625 228.135 6.76071C228.95 17.0386 225.189 26.0706 217.235 32.8985C212.874 36.6359 207.963 40.8525 204.13 45.5961C197.877 53.3584 200.201 62.4623 204.274 66.032C208.227 69.5059 212.946 69.2903 218.816 67.9247C224.59 66.5591 230.387 64.7383 235.993 62.9894C238.533 62.1988 241.049 61.4082 243.588 60.6415C252.572 57.9583 261.652 58.8207 271.379 63.2769C277.632 66.1278 283.813 69.3382 289.802 72.4287L291.384 73.2433C298.787 77.0765 305.351 78.0348 310.837 76.1182C316.539 74.1297 321.307 69.0027 324.996 60.8571C331.8 45.8117 331.105 30.2153 322.816 11.7918C317.641 0.268188 312.658 -9.86591 303.961 -17.3167C300.991 -19.8563 297.78 -22.3239 294.714 -24.6957C293.18 -25.8697 291.647 -27.0435 290.138 -28.2415C278.95 -37.0579 279.908 -49.4919 281.609 -58.0927C283.022 -65.2082 285.466 -72.1559 287.838 -78.888L289.012 -82.266C293.947 -96.425 293.971 -110.991 289.084 -126.779C285.682 -137.776 283.334 -148.269 282.112 -157.948C280.531 -170.334 285.562 -181.068 296.295 -188.183L297.613 -189.045C306.166 -194.723 315.03 -200.617 324.421 -205.145C347.732 -216.357 364.982 -226.3 380.315 -237.32C385.01 -240.698 390.88 -243.549 397.277 -245.538C407.243 -248.676 418.072 -247.862 430.386 -243.07C434.195 -241.585 437.837 -239.668 441.359 -237.799C443.06 -236.889 444.785 -235.979 446.51 -235.14C454.871 -231.019 463.064 -230.995 471.569 -235.116L472.36 -235.499C474.253 -236.434 476.433 -237.512 478.733 -237.727C481.919 -238.039 486.423 -238.111 488.771 -235.188C491.239 -232.121 490.041 -227.162 488.747 -223.185C487.405 -219.136 485.704 -215.159 484.051 -211.326C482.638 -208.02 481.152 -204.618 479.955 -201.192C476.145 -190.339 477.08 -178.815 482.901 -164.92C486.615 -156.032 490.616 -147.383 494.784 -139.213C501.636 -125.749 502.93 -111.303 498.785 -94.9875C494.952 -79.8942 488.244 -65.6394 478.278 -51.4325C468.79 -37.8964 459.543 -23.6176 450.031 -7.78162C445.983 -1.00159 443.707 7.16797 443.275 16.5354C442.724 28.5143 442.173 40.9243 442.389 53.1907C442.509 59.7551 443.491 66.4393 445.288 72.5006C446.917 78.0587 449.576 81.5805 453.194 82.994C457.123 84.5273 462.37 83.5451 467.928 80.2149C471.713 77.9629 475.451 75.4474 479.068 73.0037C482.877 70.4402 486.83 67.8049 490.879 65.4091C500.558 59.6832 511.315 56.5448 521.713 53.5261C523.701 52.9511 525.666 52.3761 527.63 51.7772C541.142 47.7044 549.647 39.1994 553.6 25.7592C554.08 24.154 554.535 22.5488 554.99 20.9437C556.811 14.5709 558.703 8.0065 561.219 1.72961C565.436 -8.81177 573.39 -17.8438 584.841 -25.079C592.46 -29.9185 600.39 -34.5663 608.032 -39.0703C611.41 -41.0588 614.812 -43.0473 618.166 -45.0598C619.149 -45.6587 620.418 -45.3233 621.017 -44.341C621.616 -43.3587 621.281 -42.089 620.299 -41.4901C616.921 -39.4776 613.519 -37.4891 610.141 -35.4767C602.522 -30.9966 594.64 -26.3488 587.069 -21.5573C576.217 -14.6814 569.029 -6.55975 565.076 3.31082C562.633 9.3721 560.788 15.8646 558.991 22.1176C558.536 23.7227 558.057 25.3519 557.601 26.957C553.217 41.8587 543.826 51.2741 528.852 55.7781C526.864 56.377 524.875 56.952 522.887 57.527C512.729 60.4738 502.235 63.5404 493.012 69.0028C489.058 71.3267 485.177 73.962 481.392 76.4775C477.726 78.9452 473.941 81.4847 470.06 83.7846C465.604 86.4439 461.172 87.8335 457.195 87.8335Z" fill="white"/>
<path d="M-231.708 420.271C-232.187 420.271 -232.619 419.935 -232.715 419.456C-232.834 418.905 -232.475 418.354 -231.924 418.234C-228.402 417.468 -225.192 415.886 -222.341 413.515C-222.053 413.275 -221.766 413.035 -221.478 412.796C-221.047 412.413 -220.4 412.46 -220.017 412.892C-219.634 413.323 -219.682 413.97 -220.113 414.353C-220.4 414.617 -220.712 414.856 -220.999 415.12C-224.114 417.683 -227.635 419.408 -231.469 420.247C-231.565 420.271 -231.636 420.271 -231.708 420.271ZM-243.999 419.815C-244.094 419.815 -244.19 419.792 -244.286 419.768C-248.359 418.618 -252.264 416.581 -255.594 413.826C-256.025 413.467 -256.097 412.796 -255.738 412.365C-255.378 411.909 -254.708 411.862 -254.276 412.221C-251.186 414.784 -247.52 416.701 -243.735 417.779C-243.184 417.923 -242.873 418.498 -243.016 419.049C-243.136 419.528 -243.543 419.815 -243.999 419.815ZM-212.566 405.345C-212.758 405.345 -212.973 405.297 -213.141 405.177C-213.62 404.866 -213.74 404.219 -213.429 403.74C-211.416 400.769 -209.715 397.487 -208.35 393.989L-207.942 392.887C-207.727 392.36 -207.152 392.096 -206.601 392.288C-206.074 392.504 -205.786 393.103 -206.002 393.63L-206.433 394.732C-207.846 398.373 -209.619 401.799 -211.728 404.914C-211.895 405.177 -212.231 405.345 -212.566 405.345ZM-262.71 404.459C-263.069 404.459 -263.428 404.267 -263.62 403.932C-265.489 400.577 -266.998 396.72 -268.244 392.144C-268.387 391.593 -268.076 391.018 -267.525 390.875C-266.974 390.731 -266.399 391.042 -266.255 391.593C-265.057 396.049 -263.644 399.643 -261.823 402.901C-261.536 403.404 -261.727 404.027 -262.23 404.315C-262.374 404.435 -262.542 404.459 -262.71 404.459ZM-202.767 382.561C-202.887 382.561 -202.983 382.537 -203.103 382.513C-203.654 382.322 -203.941 381.747 -203.75 381.196L-202.767 378.297C-201.761 375.35 -200.755 372.379 -199.701 369.432C-199.509 368.905 -198.91 368.618 -198.383 368.81C-197.832 369.001 -197.569 369.6 -197.76 370.127C-198.814 373.074 -199.821 376.021 -200.827 378.968L-201.833 381.866C-201.953 382.298 -202.336 382.561 -202.767 382.561ZM-269.849 380.764C-270.328 380.764 -270.759 380.429 -270.855 379.926C-271.622 375.901 -272.772 371.948 -274.281 368.187C-274.497 367.66 -274.233 367.061 -273.706 366.845C-273.179 366.629 -272.58 366.893 -272.364 367.42C-270.831 371.301 -269.633 375.374 -268.843 379.519C-268.747 380.07 -269.106 380.621 -269.657 380.741C-269.729 380.764 -269.777 380.764 -269.849 380.764ZM-194.262 359.203C-194.406 359.203 -194.526 359.179 -194.67 359.107C-195.197 358.891 -195.436 358.268 -195.221 357.741C-193.424 353.573 -191.555 349.907 -189.471 346.553C-189.159 346.074 -188.537 345.906 -188.033 346.218C-187.554 346.529 -187.411 347.152 -187.698 347.655C-189.734 350.913 -191.579 354.483 -193.304 358.556C-193.496 358.963 -193.879 359.203 -194.262 359.203ZM-278.977 357.789C-279.312 357.789 -279.648 357.621 -279.863 357.31C-281.564 354.603 -283.529 351.895 -285.709 349.284L-287.218 347.463C-287.578 347.032 -287.53 346.361 -287.074 346.002C-286.643 345.643 -285.972 345.69 -285.613 346.146L-284.104 347.966C-281.876 350.65 -279.863 353.429 -278.09 356.208C-277.779 356.687 -277.923 357.334 -278.402 357.645C-278.593 357.741 -278.785 357.789 -278.977 357.789ZM-180.966 338.383C-181.229 338.383 -181.493 338.287 -181.685 338.096C-182.092 337.689 -182.092 337.042 -181.709 336.634C-178.714 333.568 -175.36 330.956 -171.742 328.824C-171.263 328.537 -170.616 328.704 -170.329 329.184C-170.041 329.687 -170.209 330.31 -170.688 330.597C-174.138 332.633 -177.348 335.149 -180.223 338.072C-180.439 338.263 -180.702 338.383 -180.966 338.383ZM-294.334 338.288C-294.621 338.288 -294.933 338.168 -295.124 337.904C-297.76 334.718 -300.419 331.531 -303.078 328.345C-303.438 327.914 -303.39 327.243 -302.958 326.884C-302.527 326.524 -301.856 326.572 -301.497 327.003C-298.838 330.19 -296.202 333.376 -293.543 336.563C-293.184 336.994 -293.232 337.665 -293.687 338.024C-293.878 338.192 -294.118 338.288 -294.334 338.288ZM-57.7995 336.347C-59.189 336.347 -60.6025 336.251 -62.016 336.083C-62.591 336.011 -62.9983 335.508 -62.9264 334.933C-62.8546 334.358 -62.3275 333.951 -61.7765 334.023C-57.7516 334.526 -53.7267 334.263 -49.8216 333.256C-49.2705 333.113 -48.6956 333.448 -48.5518 333.999C-48.4081 334.55 -48.7435 335.125 -49.2945 335.269C-52.0976 335.988 -54.9485 336.347 -57.7995 336.347ZM-74.0907 333.664C-74.1626 333.664 -74.2345 333.664 -74.3063 333.64C-77.4448 332.969 -80.5593 332.274 -83.6977 331.579L-86.4529 330.98C-87.0039 330.861 -87.3633 330.31 -87.2435 329.735C-87.1237 329.184 -86.5727 328.824 -85.9977 328.944L-83.2425 329.567C-80.1041 330.262 -76.9896 330.956 -73.8511 331.627C-73.3001 331.747 -72.9407 332.298 -73.0605 332.849C-73.1803 333.328 -73.6115 333.664 -74.0907 333.664ZM-38.2979 330.214C-38.6334 330.214 -38.9448 330.046 -39.1604 329.758C-39.4958 329.279 -39.376 328.633 -38.8969 328.321C-35.8063 326.189 -32.9794 323.314 -30.4638 319.768C-30.1284 319.313 -29.4815 319.193 -29.0263 319.529C-28.5711 319.864 -28.4513 320.511 -28.7867 320.966C-31.446 324.703 -34.4408 327.77 -37.723 330.022C-37.8667 330.166 -38.0823 330.214 -38.2979 330.214ZM-98.3838 328.345C-98.4557 328.345 -98.5275 328.345 -98.5994 328.321C-103.103 327.363 -107.08 326.572 -110.77 325.901C-111.321 325.806 -111.704 325.255 -111.608 324.703C-111.513 324.128 -110.962 323.769 -110.411 323.865C-106.697 324.536 -102.696 325.326 -98.1921 326.285C-97.6411 326.404 -97.2817 326.956 -97.4015 327.507C-97.4734 328.01 -97.9046 328.345 -98.3838 328.345ZM-159.811 325.853C-160.266 325.853 -160.674 325.566 -160.794 325.111C-160.961 324.56 -160.65 323.985 -160.099 323.817C-156.17 322.643 -152.025 321.805 -147.761 321.301C-147.186 321.23 -146.682 321.637 -146.611 322.212C-146.539 322.787 -146.946 323.29 -147.521 323.362C-151.666 323.841 -155.715 324.656 -159.5 325.782C-159.62 325.853 -159.715 325.853 -159.811 325.853ZM-122.845 323.937C-122.893 323.937 -122.94 323.937 -122.988 323.937C-127.397 323.362 -131.397 323.026 -135.279 322.907C-135.854 322.883 -136.309 322.404 -136.285 321.852C-136.261 321.278 -135.854 320.774 -135.231 320.846C-131.302 320.966 -127.205 321.302 -122.749 321.876C-122.174 321.948 -121.79 322.475 -121.862 323.026C-121.886 323.553 -122.341 323.937 -122.845 323.937ZM-310.289 319.193C-310.577 319.193 -310.888 319.073 -311.08 318.834C-313.739 315.671 -316.423 312.509 -319.13 309.371C-319.513 308.939 -319.441 308.292 -319.01 307.909C-318.579 307.526 -317.908 307.598 -317.549 308.029C-314.865 311.191 -312.158 314.354 -309.499 317.516C-309.139 317.947 -309.187 318.618 -309.619 318.978C-309.81 319.121 -310.05 319.193 -310.289 319.193ZM-23.8275 310.449C-23.9473 310.449 -24.0671 310.425 -24.1869 310.377C-24.7139 310.185 -25.0014 309.586 -24.7858 309.035C-23.3484 305.226 -22.3422 301.249 -21.8151 297.248C-21.7432 296.673 -21.2161 296.29 -20.6411 296.362C-20.0662 296.433 -19.6829 296.961 -19.7547 297.535C-20.3058 301.704 -21.3359 305.849 -22.8452 309.802C-23.0129 310.185 -23.3963 310.449 -23.8275 310.449ZM-326.796 300.626C-327.036 300.626 -327.299 300.53 -327.491 300.362C-330.462 297.631 -333.72 295.092 -337.146 292.816C-337.625 292.504 -337.745 291.857 -337.434 291.378C-337.122 290.899 -336.475 290.779 -335.996 291.091C-332.474 293.415 -329.12 296.026 -326.078 298.829C-325.646 299.212 -325.622 299.883 -326.03 300.291C-326.245 300.53 -326.533 300.626 -326.796 300.626ZM-347.448 286.97C-347.592 286.97 -347.735 286.946 -347.879 286.874C-350.562 285.628 -353.413 284.478 -356.336 283.472C-357.342 283.113 -358.349 282.778 -359.379 282.418C-359.93 282.227 -360.217 281.651 -360.026 281.1C-359.834 280.549 -359.259 280.262 -358.708 280.454C-357.702 280.789 -356.672 281.148 -355.665 281.508C-352.695 282.538 -349.772 283.712 -347.017 284.982C-346.49 285.221 -346.274 285.844 -346.513 286.347C-346.681 286.755 -347.065 286.97 -347.448 286.97ZM-20.6891 286.012C-21.1922 286.012 -21.6474 285.628 -21.7192 285.101C-21.9588 283.113 -22.3421 281.148 -22.8692 279.28C-23.4202 277.243 -24.0192 275.231 -24.6421 273.218C-24.8098 272.667 -24.4984 272.092 -23.9473 271.925C-23.3963 271.757 -22.8213 272.068 -22.6536 272.619C-22.0307 274.656 -21.4318 276.692 -20.8807 278.753C-20.3537 280.717 -19.9464 282.778 -19.6829 284.862C-19.611 285.437 -20.0182 285.94 -20.5932 286.012C-20.6172 286.012 -20.6651 286.012 -20.6891 286.012ZM-370.831 278.561C-370.926 278.561 -371.046 278.537 -371.166 278.513L-374.233 277.507C-374.784 277.315 -375.071 276.74 -374.879 276.189C-374.688 275.638 -374.113 275.351 -373.562 275.542L-370.495 276.549C-369.944 276.716 -369.657 277.315 -369.848 277.866C-369.992 278.273 -370.399 278.561 -370.831 278.561ZM-27.4451 262.102C-27.8763 262.102 -28.2836 261.815 -28.4274 261.383C-29.6492 257.622 -30.943 253.549 -32.069 249.452C-32.2127 248.901 -31.9012 248.326 -31.3502 248.183C-30.7992 248.039 -30.2242 248.35 -30.0805 248.901C-28.9545 252.974 -27.6847 256.999 -26.4628 260.76C-26.2951 261.311 -26.5827 261.886 -27.1337 262.054C-27.2295 262.102 -27.3253 262.102 -27.4451 262.102ZM-34.1293 238.168C-34.5845 238.168 -35.0157 237.857 -35.1356 237.402C-36.2616 233.065 -37.3636 229.16 -38.4657 225.471C-38.6334 224.92 -38.3219 224.345 -37.7709 224.177C-37.2198 224.009 -36.6449 224.321 -36.4772 224.872C-35.3512 228.609 -34.2491 232.514 -33.1231 236.875C-32.9794 237.426 -33.3148 238.001 -33.8658 238.144C-33.9377 238.144 -34.0335 238.168 -34.1293 238.168ZM-41.3645 214.402C-41.7957 214.402 -42.1791 214.139 -42.3468 213.708C-43.7842 209.731 -45.3415 205.873 -46.9467 202.256C-47.1862 201.729 -46.9467 201.13 -46.4196 200.89C-45.8925 200.651 -45.2936 200.89 -45.054 201.417C-43.4249 205.083 -41.8437 208.988 -40.3823 213.013C-40.1906 213.54 -40.4541 214.139 -41.0052 214.33C-41.1489 214.378 -41.2447 214.402 -41.3645 214.402ZM-51.3788 191.643C-51.7622 191.643 -52.1455 191.427 -52.3132 191.044C-54.3736 186.707 -56.0027 183.09 -57.4401 179.664C-57.6558 179.137 -57.4162 178.538 -56.8891 178.322C-56.362 178.106 -55.7631 178.346 -55.5475 178.873C-54.134 182.275 -52.5288 185.869 -50.4684 190.157C-50.2289 190.684 -50.4445 191.283 -50.9476 191.547C-51.0674 191.619 -51.2351 191.643 -51.3788 191.643ZM-60.7223 168.619C-61.1536 168.619 -61.5609 168.332 -61.7046 167.9C-62.9983 163.947 -64.5076 160.09 -66.1847 156.449C-66.4243 155.922 -66.2086 155.323 -65.6816 155.083C-65.1545 154.844 -64.5556 155.083 -64.316 155.586C-62.591 159.3 -61.0577 163.229 -59.7401 167.278C-59.5724 167.829 -59.8598 168.404 -60.4109 168.571C-60.5067 168.619 -60.6265 168.619 -60.7223 168.619ZM-71.1439 146.123C-71.4793 146.123 -71.8387 145.955 -72.0303 145.644C-74.1865 142.194 -76.6063 138.84 -79.2177 135.677C-79.577 135.246 -79.5051 134.575 -79.0739 134.216C-78.6187 133.857 -77.9719 133.928 -77.6125 134.36C-74.9532 137.594 -72.4855 141.02 -70.2814 144.542C-69.97 145.021 -70.1137 145.668 -70.6169 145.979C-70.7845 146.075 -70.9762 146.123 -71.1439 146.123ZM-86.8601 126.957C-87.1237 126.957 -87.3633 126.861 -87.5789 126.669C-90.1663 124.202 -92.9694 121.782 -95.8922 119.506L-96.9463 118.667C-97.4015 118.308 -97.4734 117.661 -97.114 117.206C-96.7547 116.751 -96.1078 116.679 -95.6526 117.038L-94.5985 117.877C-91.6038 120.225 -88.7528 122.668 -86.1175 125.184C-85.7102 125.591 -85.6862 126.238 -86.0935 126.645C-86.3331 126.837 -86.5966 126.957 -86.8601 126.957ZM-105.787 110.833C-106.05 110.833 -106.29 110.737 -106.482 110.57C-109.716 107.599 -112.687 104.58 -115.274 101.634C-115.657 101.202 -115.609 100.555 -115.178 100.172C-114.747 99.7888 -114.1 99.8367 -113.717 100.268C-111.177 103.167 -108.254 106.114 -105.068 109.06C-104.637 109.444 -104.613 110.115 -104.996 110.522C-105.236 110.713 -105.523 110.833 -105.787 110.833ZM-122.03 92.0744C-122.365 92.0744 -122.701 91.9067 -122.916 91.5952C-125.767 87.0433 -127.133 83.21 -127.157 79.4966C-127.157 78.9216 -126.702 78.4664 -126.127 78.4425C-125.432 78.4425 -125.097 78.8977 -125.073 79.4727C-125.025 82.8267 -123.827 86.2287 -121.144 90.4932C-120.832 90.9724 -120.976 91.6192 -121.479 91.9306C-121.647 92.0265 -121.838 92.0744 -122.03 92.0744ZM-122.365 68.8115C-122.533 68.8115 -122.725 68.7636 -122.869 68.6678C-123.372 68.3802 -123.539 67.7573 -123.252 67.2542C-122.605 66.1042 -121.862 64.8824 -121.048 63.6127C-119.658 61.4086 -117.933 59.4201 -116.256 57.4795L-115.873 57.0243C-115.49 56.5931 -114.843 56.5451 -114.411 56.9045C-113.98 57.2878 -113.932 57.9347 -114.292 58.3659L-114.675 58.8211C-116.28 60.6898 -117.957 62.6304 -119.275 64.7147C-120.065 65.9605 -120.784 67.1345 -121.431 68.2605C-121.671 68.6198 -122.006 68.8115 -122.365 68.8115ZM-107.584 48.8787C-107.799 48.8787 -108.015 48.8068 -108.182 48.687C-108.638 48.3516 -108.757 47.7048 -108.422 47.2496L-101.115 37.1873C-100.78 36.7321 -100.133 36.6124 -99.6775 36.9478C-99.2223 37.2832 -99.1025 37.9301 -99.4379 38.3852L-106.745 48.4474C-106.961 48.711 -107.272 48.8787 -107.584 48.8787ZM-92.9694 28.7542C-93.185 28.7542 -93.4006 28.6824 -93.5683 28.5626C-94.0235 28.2272 -94.1433 27.5803 -93.8079 27.1251C-91.3882 23.771 -88.9684 20.417 -86.5487 17.0389C-86.2133 16.5837 -85.5664 16.4639 -85.1112 16.7993C-84.6561 17.1348 -84.5363 17.7816 -84.8716 18.2368C-87.2914 21.6148 -89.7111 24.9689 -92.1308 28.323C-92.3464 28.6105 -92.6579 28.7542 -92.9694 28.7542ZM-78.4989 8.53394C-78.7145 8.53394 -78.9062 8.46207 -79.0979 8.34229C-79.577 8.00687 -79.6729 7.36002 -79.3374 6.90482C-78.0198 5.06006 -76.726 3.19138 -75.4323 1.34665C-74.2824 -0.306427 -73.0845 -1.81577 -71.8387 -3.15741C-71.4554 -3.58865 -70.7845 -3.61261 -70.3773 -3.22928C-69.946 -2.84595 -69.9221 -2.1991 -70.3054 -1.76785C-71.4793 -0.498108 -72.6293 0.963287 -73.7314 2.52054C-75.0251 4.38925 -76.3427 6.23401 -77.6604 8.10269C-77.8521 8.36624 -78.1875 8.53394 -78.4989 8.53394ZM-61.1536 -8.73956C-61.5609 -8.73956 -61.9442 -8.97913 -62.1119 -9.36243C-62.3275 -9.8895 -62.0879 -10.4885 -61.5609 -10.7281C-58.8297 -11.9259 -55.835 -12.6447 -52.7205 -12.8842C-51.5226 -12.98 -50.3008 -13.0519 -49.0789 -13.1238C-48.4799 -13.1717 -48.0248 -12.7165 -47.9769 -12.1415C-47.929 -11.5666 -48.3841 -11.0874 -48.9591 -11.0395C-50.157 -10.9676 -51.3549 -10.8958 -52.5528 -10.7999C-55.4516 -10.5603 -58.2068 -9.88953 -60.7463 -8.81143C-60.8661 -8.76352 -61.0098 -8.73956 -61.1536 -8.73956ZM-36.597 -11.4947C-37.148 -11.4947 -37.6271 -11.9499 -37.6271 -12.5009C-37.6511 -13.0759 -37.1959 -13.555 -36.6209 -13.555C-32.5721 -13.6509 -28.3795 -13.7467 -24.2348 -14.0102C-23.6598 -14.0582 -23.1806 -13.6029 -23.1327 -13.028C-23.1088 -12.453 -23.54 -11.9738 -24.115 -11.9259C-28.3076 -11.6863 -32.5002 -11.5666 -36.573 -11.4707C-36.573 -11.4947 -36.573 -11.4947 -36.597 -11.4947ZM-11.8966 -13.8425C-12.3279 -13.8425 -12.7351 -14.13 -12.8788 -14.5612C-13.0465 -15.1123 -12.7351 -15.6873 -12.208 -15.855C-8.78207 -16.9331 -6.00299 -18.5143 -3.67911 -20.7184L-2.21768 -22.1319C-1.81039 -22.5392 -1.13959 -22.5152 -0.756256 -22.1079C-0.348969 -21.7007 -0.372955 -21.0298 -0.780243 -20.6465L-2.26559 -19.233C-4.82907 -16.8133 -7.8717 -15.0644 -11.6091 -13.8904C-11.7049 -13.8425 -11.8008 -13.8425 -11.8966 -13.8425ZM7.29352 -29.1515C7.03 -29.1515 6.76645 -29.2473 6.57477 -29.439C6.16751 -29.8463 6.14355 -30.4931 6.55084 -30.9004C8.13205 -32.5295 9.71326 -34.1826 11.2944 -35.8117L15.1756 -39.8366C15.5829 -40.2439 16.2297 -40.2679 16.637 -39.8606C17.0443 -39.4533 17.0683 -38.8064 16.661 -38.3991L12.7798 -34.3743C11.1986 -32.7212 9.6174 -31.0921 8.03619 -29.4629C7.84454 -29.2473 7.55707 -29.1515 7.29352 -29.1515ZM24.6149 -47C24.3514 -47 24.0878 -47.0958 23.8962 -47.2874C23.4889 -47.6947 23.4649 -48.3416 23.8722 -48.7489L32.5449 -57.6611C32.9522 -58.0684 33.599 -58.0684 34.0063 -57.6851C34.4136 -57.2778 34.4136 -56.631 34.0303 -56.2237L25.3576 -47.3114C25.142 -47.0958 24.8784 -47 24.6149 -47ZM42.0082 -64.7766C41.7446 -64.7766 41.4811 -64.8724 41.2655 -65.088C40.8582 -65.4953 40.8582 -66.1421 41.2655 -66.5494C43.7092 -68.9931 46.1768 -71.4128 48.6684 -73.8086C49.1715 -74.2878 49.6747 -74.7669 50.2017 -75.2461C50.609 -75.6294 51.2798 -75.6054 51.6631 -75.1982C52.0464 -74.7909 52.0225 -74.1201 51.6152 -73.7367C51.1121 -73.2576 50.609 -72.7784 50.1059 -72.2993C47.6143 -69.9035 45.1706 -67.5077 42.7269 -65.0641C42.5352 -64.8724 42.2717 -64.7766 42.0082 -64.7766ZM60.1681 -81.7386C59.8806 -81.7386 59.5931 -81.8584 59.3775 -82.098C58.9942 -82.5292 59.0421 -83.1761 59.4734 -83.5594L61.5337 -85.3322C63.9774 -87.4645 66.4211 -89.5728 68.8168 -91.7289C69.248 -92.1123 69.8949 -92.0883 70.2782 -91.6571C70.6616 -91.2258 70.6136 -90.579 70.2064 -90.1956C67.7867 -88.0395 65.343 -85.9072 62.8993 -83.775L60.8389 -82.0021C60.6472 -81.8344 60.4077 -81.7386 60.1681 -81.7386ZM78.4958 -98.5329C78.2562 -98.5329 77.9926 -98.6288 77.801 -98.7964C77.3697 -99.1798 77.3458 -99.8506 77.7291 -100.258C80.4842 -103.277 82.7842 -106.631 84.557 -110.248C84.7966 -110.751 85.4195 -110.967 85.9466 -110.727C86.4497 -110.488 86.6653 -109.865 86.4257 -109.338C84.581 -105.553 82.1613 -102.031 79.2624 -98.8683C79.0468 -98.6527 78.7832 -98.5329 78.4958 -98.5329ZM89.3007 -120.55C89.2288 -120.55 89.1808 -120.55 89.109 -120.574C88.558 -120.67 88.1747 -121.221 88.2705 -121.772C88.8215 -124.838 89.109 -128.097 89.109 -131.427C89.109 -132.241 89.085 -133.08 89.0611 -133.918C89.0371 -134.493 89.4923 -134.973 90.0673 -134.997C90.6183 -134.997 91.1214 -134.565 91.1454 -133.99C91.1693 -133.128 91.1933 -132.265 91.1933 -131.427C91.1933 -127.953 90.9058 -124.575 90.3069 -121.389C90.235 -120.885 89.8038 -120.55 89.3007 -120.55ZM88.3663 -145.226C87.9111 -145.226 87.4799 -145.538 87.3601 -146.017C86.4736 -149.659 85.2518 -153.492 83.5987 -157.708C83.3831 -158.235 83.6466 -158.834 84.1977 -159.05C84.7247 -159.266 85.3237 -159.002 85.5393 -158.451C87.2163 -154.139 88.4861 -150.234 89.3965 -146.496C89.5402 -145.945 89.1808 -145.37 88.6298 -145.25C88.534 -145.226 88.4621 -145.226 88.3663 -145.226ZM79.5499 -168.465C79.1905 -168.465 78.8311 -168.657 78.6634 -169.016C76.6989 -173.209 75.2135 -176.994 74.0636 -180.708C73.8958 -181.259 74.2073 -181.834 74.7344 -182.001C75.2854 -182.169 75.8604 -181.858 76.0281 -181.331C77.1541 -177.713 78.6155 -174 80.4843 -169.975C80.7238 -169.448 80.5321 -168.801 80.0051 -168.561C79.8613 -168.489 79.7176 -168.465 79.5499 -168.465ZM72.5063 -192.136C71.9792 -192.136 71.524 -192.543 71.4761 -193.07C71.3084 -194.819 71.2126 -196.568 71.2126 -198.269C71.2126 -200.76 71.4043 -203.276 71.7636 -205.72C71.8595 -206.295 72.3865 -206.678 72.9376 -206.582C73.5125 -206.486 73.8958 -205.959 73.8 -205.408C73.4407 -203.06 73.2729 -200.641 73.2729 -198.269C73.2729 -196.64 73.3688 -194.939 73.5125 -193.262C73.5605 -192.687 73.1532 -192.184 72.5782 -192.136C72.5782 -192.136 72.5542 -192.136 72.5063 -192.136ZM75.9323 -216.548C75.8364 -216.548 75.7166 -216.572 75.6208 -216.596C75.0698 -216.764 74.7583 -217.339 74.95 -217.89C76.3395 -222.298 77.4655 -226.012 78.5197 -229.773C78.6634 -230.324 79.2624 -230.636 79.7895 -230.492C80.3405 -230.348 80.6519 -229.773 80.5082 -229.222C79.454 -225.437 78.3041 -221.723 76.9145 -217.291C76.7708 -216.836 76.3635 -216.548 75.9323 -216.548ZM82.4727 -240.53C82.4008 -240.53 82.3289 -240.53 82.2571 -240.554C81.7061 -240.674 81.3228 -241.225 81.4425 -241.776C82.305 -246.064 82.9039 -250.041 83.2633 -253.946C83.3112 -254.521 83.8383 -254.953 84.3893 -254.881C84.9643 -254.833 85.3716 -254.33 85.3237 -253.755C84.9643 -249.778 84.3654 -245.705 83.4789 -241.345C83.3831 -240.866 82.9518 -240.53 82.4727 -240.53ZM83.455 -265.159C82.9998 -265.159 82.5925 -265.446 82.4488 -265.925C81.3467 -269.854 79.3582 -273.256 76.4833 -276.035C76.076 -276.443 76.076 -277.09 76.4593 -277.497C76.8666 -277.904 77.5135 -277.904 77.9207 -277.521C81.0352 -274.478 83.2393 -270.765 84.4372 -266.476C84.581 -265.925 84.2695 -265.35 83.7185 -265.207C83.6227 -265.159 83.5268 -265.159 83.455 -265.159ZM67.7148 -283.774C67.4752 -283.774 67.2596 -283.846 67.0679 -284.013C63.8576 -286.625 60.6473 -289.236 57.389 -291.8C56.9338 -292.159 56.8619 -292.806 57.2213 -293.261C57.5807 -293.716 58.2275 -293.788 58.6827 -293.429C61.941 -290.841 65.1753 -288.254 68.3856 -285.618C68.8168 -285.259 68.8887 -284.612 68.5294 -284.157C68.3137 -283.894 68.0262 -283.774 67.7148 -283.774ZM48.2851 -299.298C48.0695 -299.298 47.8299 -299.37 47.6382 -299.514C44.38 -302.101 41.1457 -304.665 37.9114 -307.3C37.4562 -307.66 37.4083 -308.306 37.7677 -308.762C38.127 -309.217 38.7739 -309.265 39.2291 -308.905C42.4395 -306.294 45.6737 -303.707 48.9319 -301.143C49.3871 -300.784 49.459 -300.137 49.0997 -299.682C48.884 -299.418 48.5966 -299.298 48.2851 -299.298ZM29.0231 -314.991C28.7835 -314.991 28.544 -315.062 28.3523 -315.23L27.8732 -315.637C24.9503 -318.153 21.9796 -320.812 19.0328 -323.543C18.6255 -323.927 18.6015 -324.598 18.9848 -325.005C19.3682 -325.436 20.039 -325.436 20.4463 -325.053C23.3452 -322.322 26.3159 -319.686 29.2148 -317.195L29.6939 -316.787C30.1252 -316.428 30.1731 -315.757 29.8137 -315.326C29.5981 -315.134 29.3106 -314.991 29.0231 -314.991ZM10.8632 -331.977C10.5997 -331.977 10.3361 -332.072 10.1205 -332.288C7.26953 -335.187 4.39462 -338.23 1.54367 -341.344C1.16034 -341.775 1.1843 -342.422 1.61554 -342.805C2.04675 -343.189 2.69363 -343.165 3.07693 -342.734C5.90396 -339.643 8.77887 -336.6 11.5819 -333.725C11.9892 -333.318 11.9653 -332.671 11.558 -332.264C11.3903 -332.072 11.1267 -331.977 10.8632 -331.977ZM-5.2124 -350.879C-5.57175 -350.879 -5.93112 -351.071 -6.1228 -351.406C-8.27899 -355.263 -9.71643 -359.288 -10.4112 -363.385C-10.507 -363.96 -10.1237 -364.487 -9.54874 -364.583C-8.97375 -364.679 -8.44669 -364.295 -8.35083 -363.721C-7.70398 -359.863 -6.36234 -356.054 -4.302 -352.412C-4.0145 -351.909 -4.20618 -351.286 -4.68533 -350.999C-4.85303 -350.903 -5.02072 -350.879 -5.2124 -350.879Z" fill="white"/>
<path d="M225.237 331.627C218.888 331.627 213.449 328.656 209.233 322.787C206.238 318.642 203.507 313.707 200.632 307.238C192.199 288.336 188.366 268.714 184.556 246.865C182.664 235.964 178.088 228.226 170.589 223.219C161.725 217.301 151.447 214.163 140.906 214.163C140.882 214.163 140.858 214.163 140.858 214.163C130.676 214.163 120.494 215.672 109.21 217.469C97.2307 219.385 85.5633 215.84 78.7833 208.197C72.746 201.417 71.021 192.05 73.896 181.796C79.0469 163.492 82.7603 147.992 84.1019 131.7C85.1561 118.979 91.1694 108.845 101.974 101.586C114.504 93.1524 128.903 88.4567 142.583 84.6235C148.117 83.0902 153.867 82.0121 159.401 80.9819C161.94 80.5028 164.456 80.0476 166.995 79.5205C167.163 79.4966 167.307 79.4966 167.451 79.5205C167.523 79.4966 167.618 79.4965 167.69 79.4965C169.631 79.4965 171.571 79.4966 173.512 79.5205C177.872 79.5445 182.233 79.5684 186.569 79.4726C193.78 79.4007 199.314 82.1079 202.764 87.4984C205.975 92.5056 209.041 97.7523 211.964 102.807C215.414 108.749 218.984 114.882 222.841 120.68C232.328 134.935 236.808 150.459 236.521 168.092C236.353 177.579 240.354 184.791 247.757 188.408C254.657 191.786 262.515 194.925 272.481 198.351C282.16 201.681 294.091 207.119 300.368 219.865C306.501 232.323 313.736 247.081 320.708 262.174C322.625 266.319 324.421 270.847 323.487 276.189C322.217 283.616 317.689 288.575 309.232 291.786C295.624 296.984 283.023 304.603 270.828 311.982L270.014 312.485C260.287 318.379 249.194 323.769 235.107 329.495C231.633 330.908 228.327 331.627 225.237 331.627ZM140.882 212.054C151.83 212.054 162.491 215.313 171.715 221.47C179.717 226.812 184.58 235.006 186.593 246.506C190.378 268.211 194.187 287.713 202.525 306.4C205.352 312.725 208.011 317.564 210.91 321.589C216.564 329.447 224.686 331.531 234.364 327.578C248.356 321.9 259.352 316.534 268.983 310.712L269.798 310.209C282.064 302.782 294.738 295.116 308.537 289.845C316.228 286.922 320.349 282.466 321.475 275.83C322.289 271.062 320.708 267.061 318.839 263.036C311.868 247.967 304.656 233.209 298.523 220.751C292.606 208.748 281.705 203.669 271.81 200.291C261.772 196.841 253.842 193.655 246.87 190.253C238.701 186.276 234.293 178.394 234.46 168.044C234.748 150.843 230.387 135.725 221.14 121.83C217.259 115.984 213.665 109.827 210.191 103.862C207.268 98.8304 204.226 93.6076 201.039 88.6244C197.997 83.8808 193.061 81.4371 186.617 81.5569C182.257 81.6527 177.872 81.6288 173.512 81.6048C171.571 81.6048 169.631 81.5809 167.714 81.5809C167.618 81.5809 167.547 81.5808 167.475 81.5569C167.451 81.5569 167.451 81.5569 167.427 81.5569C164.887 82.084 162.348 82.5392 159.808 83.0183C154.298 84.0485 148.596 85.1026 143.158 86.612C129.645 90.3733 115.439 95.0211 103.148 103.287C92.8944 110.186 87.1924 119.793 86.1862 131.844C84.8446 148.279 81.1072 163.923 75.9084 182.323C73.2251 191.858 74.7824 200.531 80.3405 206.784C86.6654 213.875 97.5901 217.181 108.898 215.385C120.278 213.564 130.556 212.054 140.882 212.054C140.882 212.054 140.858 212.054 140.882 212.054Z" fill="white"/>
<path d="M237.599 301.44C231.154 301.44 225.692 298.014 220.589 290.995C214.408 282.466 213.066 272.116 212.587 263.108C212.084 253.98 212.419 244.229 213.569 234.119C214.456 226.261 216.779 216.75 227.009 212.893C228.71 212.246 230.507 211.815 232.232 211.407C233.023 211.216 233.789 211.048 234.556 210.832C234.724 210.784 234.915 210.784 235.059 210.832C235.179 210.808 235.323 210.784 235.466 210.808C237.599 211.12 239.755 211.383 241.887 211.647C246.511 212.222 251.279 212.821 255.902 213.875C277.919 218.906 288.149 235.844 283.238 259.203C279.501 276.956 267.162 290.755 247.565 299.092C243.995 300.674 240.689 301.44 237.599 301.44ZM235.083 212.845C234.293 213.06 233.502 213.252 232.711 213.42C230.962 213.827 229.333 214.234 227.752 214.833C218.648 218.283 216.516 226.644 215.654 234.359C214.527 244.349 214.192 254.004 214.671 262.988C215.174 272.14 216.42 281.699 222.29 289.773C229.333 299.476 236.425 301.632 246.774 297.2C265.725 289.126 277.632 275.853 281.226 258.772C285.873 236.659 276.242 220.631 255.471 215.887C250.943 214.857 246.223 214.258 241.648 213.707C239.491 213.444 237.335 213.156 235.179 212.845C235.131 212.869 235.107 212.869 235.083 212.845Z" fill="white"/>
<path d="M84.03 44.7576C78.7832 44.7576 74.4229 41.9545 71.7876 36.7557C65.2711 23.8904 69.296 11.4085 72.8896 3.11913C75.4531 -2.77446 78.5197 -8.5243 81.4904 -14.0825C83.5508 -17.9157 85.683 -21.8927 87.5996 -25.8696C88.6538 -28.0498 89.4684 -30.4216 90.2829 -32.7215C91.2652 -35.5725 92.2953 -38.5432 93.7807 -41.2265C99.9618 -52.271 109.545 -59.1708 122.219 -61.6864C122.386 -61.7103 122.53 -61.7103 122.674 -61.6864C122.841 -61.7343 123.009 -61.7103 123.177 -61.7103C127.417 -61.7103 131.155 -60.1531 134.605 -56.9907C141.864 -50.2825 144.691 -40.6036 142.559 -29.7029C137.312 -2.94215 125.213 18.5239 106.622 34.0485C99.8899 39.6546 94.1161 42.817 87.8632 44.3024C86.5455 44.6138 85.2518 44.7576 84.03 44.7576ZM122.674 -59.6739C122.65 -59.6739 122.65 -59.6739 122.626 -59.6739C110.551 -57.2542 101.471 -50.7137 95.6015 -40.2203C94.188 -37.7047 93.2057 -34.8298 92.2474 -32.0507C91.4329 -29.6789 90.5944 -27.2592 89.4923 -24.9592C87.5517 -20.9583 85.3955 -16.9574 83.3352 -13.1002C80.3884 -7.56598 77.3218 -1.86406 74.8062 3.9337C69.3439 16.4875 68.9845 26.6216 73.6563 35.7974C76.4833 41.3796 81.3707 43.6555 87.408 42.242C93.3255 40.8525 98.8598 37.8099 105.328 32.4194C123.536 17.2063 135.395 -3.85254 140.546 -30.1341C141.96 -37.3214 141.84 -47.5753 133.215 -55.5053C130.077 -58.4042 126.818 -59.7218 122.961 -59.6739C122.817 -59.65 122.77 -59.65 122.674 -59.6739Z" fill="white"/>
<path d="M16.4453 220.128C14.6964 220.128 12.8277 219.433 10.959 218.068C6.81437 215.025 3.89153 212.27 1.83117 209.395C-1.5229 204.699 -4.73323 199.788 -7.82377 195.044C-10.0998 191.547 -12.3757 188.049 -14.7236 184.599C-25.6723 168.643 -31.7575 149.621 -33.3867 126.382C-34.1533 115.313 -35.4949 103.957 -37.3636 92.6731C-39.6635 78.8496 -37.2438 74.5372 -25.1212 70.6081C-24.9296 70.5363 -24.7379 70.5362 -24.5463 70.5842C-24.4504 70.5602 -24.3306 70.5363 -24.2348 70.5602C-22.7015 70.656 -21.1443 70.7279 -19.587 70.7998C-16.185 70.9675 -12.6633 71.1113 -9.23731 71.6144C0.896797 73.0997 9.85698 77.6756 16.637 84.8869C25.693 94.5179 31.5387 106.497 36.7375 117.925C40.3312 125.855 42.1519 132.587 42.4394 139.151C42.8946 150.028 38.6781 159.587 34.9407 168.02C29.5981 180.047 26.8669 190.349 26.3399 200.435C26.1003 205.154 24.7587 209.802 23.3452 214.115C22.3629 217.109 20.6619 219.074 18.3859 219.817C17.763 220.032 17.1162 220.128 16.4453 220.128ZM-24.5223 72.6206C-35.6147 76.2142 -37.4115 79.5443 -35.3032 92.3377C-33.4106 103.694 -32.069 115.098 -31.3023 126.238C-29.7211 149.07 -23.7317 167.78 -12.9986 183.425C-10.6268 186.875 -8.35087 190.397 -6.05093 193.918C-2.98434 198.638 0.20203 203.549 3.53215 208.197C5.47272 210.904 8.22788 213.516 12.2049 216.415C14.2173 217.9 16.1579 218.403 17.763 217.876C19.3682 217.349 20.638 215.84 21.4046 213.516C22.7702 209.347 24.0639 204.867 24.3035 200.363C24.8545 190.037 27.6336 179.496 33.072 167.229C36.7135 159.012 40.8343 149.692 40.403 139.295C40.1395 132.994 38.3906 126.501 34.8928 118.835C29.7658 107.551 24.016 95.7397 15.1516 86.3483C8.68306 79.4964 0.154118 75.1122 -9.52479 73.6987C-12.8549 73.2195 -16.3288 73.0518 -19.6829 72.9081C-21.2401 72.8362 -22.7973 72.7643 -24.3546 72.6685C-24.4025 72.6445 -24.4744 72.6206 -24.5223 72.6206Z" fill="white"/>
<path d="M157.077 199.836C150.584 199.836 144.044 199.596 137.695 199.356C133.766 199.213 129.837 199.069 125.908 198.973C124.063 198.925 122.242 198.973 120.398 198.997C117.619 199.045 114.744 199.117 111.917 198.877C99.1233 197.847 92.7985 191.498 93.1818 179.975C93.613 166.918 94.6192 153.334 96.1765 139.606C97.4942 128.011 102.286 119.098 110.431 113.085C117.858 107.599 126.746 105.059 133.646 103.478C137.863 102.496 142.199 101.873 146.416 101.25C148.308 100.986 150.225 100.699 152.118 100.387C152.261 100.363 152.405 100.363 152.525 100.411C152.645 100.387 152.741 100.387 152.884 100.387C154.489 100.531 156.095 100.627 157.7 100.723C161.246 100.938 164.911 101.154 168.409 101.992C188.414 106.832 201.758 120.44 210.383 144.853C211.125 146.937 211.293 149.213 211.461 151.393C212.204 161.743 208.466 170.775 204.92 178.441C200.584 187.761 193.301 194.086 183.838 196.721C177.177 198.59 169.751 199.62 161.749 199.788C160.191 199.836 158.634 199.836 157.077 199.836ZM124.135 196.889C124.734 196.889 125.333 196.889 125.956 196.913C129.909 197.009 133.838 197.152 137.791 197.296C145.649 197.584 153.771 197.895 161.725 197.727C169.559 197.56 176.818 196.553 183.287 194.757C192.127 192.289 198.979 186.347 203.052 177.579C207.34 168.355 210.047 160.449 209.424 151.753C209.257 149.524 209.113 147.392 208.466 145.571C200.105 121.901 187.216 108.701 167.954 104.053C164.624 103.238 161.054 103.047 157.604 102.831C155.975 102.735 154.322 102.639 152.717 102.472C152.669 102.472 152.621 102.448 152.573 102.448C152.549 102.448 152.525 102.448 152.501 102.472C150.608 102.783 148.692 103.047 146.775 103.334C142.606 103.933 138.318 104.556 134.197 105.514C127.489 107.071 118.864 109.539 111.725 114.786C104.059 120.44 99.5545 128.873 98.2848 139.87C96.7275 153.549 95.7213 167.062 95.314 180.071C94.9786 190.564 100.321 195.907 112.132 196.841C114.863 197.057 117.69 197.009 120.398 196.937C121.596 196.913 122.865 196.889 124.135 196.889Z" fill="white"/>
<path d="M80.9633 357.238C75.6687 357.238 70.3022 356.112 64.9117 353.86C58.6827 351.273 52.262 347.511 45.3143 342.36C32.9761 333.208 26.9148 321.254 27.37 306.783C27.5856 299.787 27.5856 292.313 27.37 283.975C27.1783 276.932 25.669 271.757 22.6024 267.684C17.763 261.264 13.6662 256.232 9.71318 251.848C3.05295 244.421 -4.49371 235.341 -9.81231 224.225C-11.2258 221.302 -12.5914 218.355 -13.981 215.409C-18.0298 206.832 -22.1984 197.967 -26.7744 189.51C-34.0575 176.046 -40.8854 162.702 -44.2635 147.441C-44.6468 145.668 -45.0301 143.871 -45.4134 142.098C-47.6654 131.509 -50.0133 120.56 -55.5475 110.953C-57.7516 107.144 -60.2672 103.382 -62.6869 99.7648C-64.5796 96.9378 -66.5441 93.991 -68.3649 91.0203C-75.9595 78.6102 -76.2709 66.0564 -69.2274 54.7244C-58.111 36.8759 -38.4897 28.6105 -18.0298 33.1625L-16.784 33.45C-7.96758 35.4145 1.13633 37.4509 10.384 35.7739C16.6609 34.6479 22.9139 32.7073 25.9325 26.3106C28.6158 20.6326 30.772 14.8349 32.3292 9.08501C32.9282 6.90486 33.4553 4.70078 33.9823 2.49667C36.2343 -6.72704 38.5582 -16.2622 45.0747 -24.0724C48.285 -27.9296 51.711 -31.7149 55.0172 -35.3804C57.0056 -37.5845 58.9941 -39.7887 60.9587 -42.0407C70.2782 -52.6539 79.9092 -63.6265 91.2652 -73.1377C100.8 -81.1156 109.617 -89.2612 112.779 -100.857C115.534 -110.991 117.187 -120.622 117.69 -129.462C118.122 -137.033 118.026 -144.771 117.954 -152.246C117.882 -158.954 117.786 -165.878 118.098 -172.706C118.457 -181.163 119.823 -188.925 122.171 -195.801C125.501 -205.528 130.077 -215.087 140.977 -218.896C141.169 -218.968 141.385 -218.968 141.576 -218.92C141.672 -218.944 141.768 -218.944 141.864 -218.944C148.141 -218.657 150.824 -214.057 153.196 -210.008C153.507 -209.505 153.795 -208.978 154.106 -208.475C155.927 -205.48 157.652 -202.437 159.377 -199.395C160.766 -196.951 162.156 -194.507 163.593 -192.088L166.971 -186.41C176.075 -171.197 185.467 -155.48 192.51 -138.734C197.997 -125.677 199.242 -114.105 196.296 -103.3C194.858 -98.0298 192.175 -92.3997 187.815 -85.6197C180.484 -74.2398 177.153 -62.8599 177.609 -50.8331C177.752 -46.976 177.704 -43.0469 177.68 -39.2616C177.657 -36.1471 177.609 -33.0326 177.68 -29.9181C177.896 -20.6465 174.925 -11.5905 168.888 -3.01361C151.471 21.7586 135.323 40.6133 118.05 56.3535C113.282 60.7138 108.036 64.595 102.477 67.9011C95.5536 71.9979 88.3423 75.8311 81.3706 79.5446C78.6395 81.006 75.8843 82.4674 73.1531 83.9288C63.618 89.0797 58.6587 95.4285 57.0296 104.532C56.1192 109.635 56.6463 114.643 57.1494 119.506C57.4129 122.022 57.6765 124.633 57.7483 127.244C57.7962 128.802 57.8921 130.359 57.9639 131.94C58.2275 136.732 58.515 141.691 57.5087 146.339C55.6161 155.107 52.3579 163.516 49.1475 171.374C45.9133 179.376 42.9665 188.049 43.4935 197.32C43.9966 206.065 46.081 214.834 49.6746 223.362C55.9755 238.24 65.4627 246.146 78.7113 247.464C87.0246 248.302 95.5536 248.686 103.795 249.045C107.341 249.213 110.91 249.357 114.456 249.548C122.578 250.003 129.094 252.184 134.413 256.232C143.732 263.348 150.489 273.099 155.04 286.084C157.053 291.834 158.826 297.44 158.419 302.854C157.556 314.234 151.615 322.931 140.786 328.68C130.316 334.239 116.636 341.665 103.603 350.051C96.2962 354.866 88.7017 357.238 80.9633 357.238ZM-29.0982 34.025C-44.6707 34.025 -58.8297 41.8591 -67.5264 55.8265C-74.1147 66.4397 -73.8272 78.2269 -66.6639 89.9422C-64.8671 92.865 -62.9265 95.7879 -61.0338 98.6149C-58.5902 102.256 -56.0746 106.042 -53.8226 109.923C-48.1206 119.817 -45.7488 130.934 -43.4489 141.667C-43.0656 143.44 -42.6822 145.237 -42.2989 147.009C-38.9688 162.031 -32.2128 175.232 -25.0015 188.552C-20.4016 197.057 -16.209 205.945 -12.1602 214.546C-10.7706 217.493 -9.38109 220.416 -7.99154 223.362C-2.76877 234.263 4.63415 243.199 11.1985 250.507C15.1755 254.939 19.2963 260.018 24.1836 266.486C27.5138 270.918 29.1668 276.477 29.3585 283.951C29.5741 292.337 29.5741 299.835 29.3585 306.879C28.9512 320.607 34.701 332.011 46.4643 340.731C53.2682 345.786 59.5452 349.452 65.6304 351.991C78.3998 357.31 90.4506 356.136 102.477 348.398C115.582 339.965 129.334 332.49 139.827 326.932C149.985 321.541 155.544 313.419 156.358 302.782C156.741 297.751 155.017 292.385 153.076 286.85C148.668 274.249 142.151 264.809 133.143 257.957C128.16 254.172 122.003 252.112 114.312 251.68C110.767 251.489 107.221 251.321 103.675 251.177C95.4098 250.818 86.8569 250.435 78.4717 249.596C64.4086 248.183 54.3463 239.869 47.734 224.225C44.0445 215.48 41.8884 206.472 41.3852 197.488C40.8342 187.809 43.8529 178.873 47.183 170.632C50.3454 162.845 53.5797 154.532 55.4244 145.931C56.3588 141.547 56.0952 136.732 55.8317 132.084C55.7359 130.503 55.664 128.921 55.6161 127.34C55.5442 124.801 55.2807 122.237 55.0172 119.746C54.4901 114.738 53.963 109.587 54.9213 104.197C56.6702 94.4223 61.9649 87.5943 72.099 82.132C74.8302 80.6466 77.5853 79.1852 80.3404 77.7238C87.2881 74.0343 94.4755 70.2011 101.351 66.1283C106.79 62.894 111.917 59.1087 116.588 54.8442C133.718 39.2238 149.794 20.4649 167.115 -4.18753C172.889 -12.3811 175.716 -21.0298 175.524 -29.8462C175.452 -32.9846 175.5 -36.0992 175.524 -39.2376C175.572 -42.999 175.596 -46.9041 175.452 -50.7133C174.973 -63.1713 178.423 -74.9585 185.994 -86.6978C190.234 -93.2862 192.846 -98.7245 194.235 -103.804C197.038 -114.129 195.816 -125.294 190.522 -137.895C183.55 -154.498 174.183 -170.142 165.127 -185.308L161.725 -190.986C160.287 -193.429 158.874 -195.873 157.484 -198.341C155.759 -201.359 154.034 -204.402 152.237 -207.373C151.926 -207.876 151.615 -208.403 151.303 -208.93C149.003 -212.883 146.799 -216.62 141.648 -216.836C141.576 -216.836 141.528 -216.86 141.456 -216.86C130.939 -213.122 126.938 -203.659 124.015 -195.082C121.739 -188.398 120.398 -180.828 120.038 -172.562C119.751 -165.806 119.823 -158.906 119.895 -152.222C119.99 -144.699 120.062 -136.937 119.631 -129.295C119.128 -120.31 117.451 -110.56 114.648 -100.282C111.342 -88.1113 102.262 -79.7261 92.463 -71.5326C81.2269 -62.1172 71.6438 -51.2165 62.3721 -40.6511C60.4076 -38.3991 58.3952 -36.195 56.4067 -33.9669C53.1245 -30.3254 49.7225 -26.54 46.5122 -22.7308C40.2832 -15.2799 38.127 -6.39163 35.8271 2.99977C35.276 5.22784 34.749 7.43196 34.15 9.63606C32.5688 15.5057 30.3647 21.3993 27.6096 27.1971C24.1597 34.4562 17.0682 36.6364 10.5517 37.8103C0.896774 39.5592 -8.42278 37.4749 -17.4309 35.4624L-18.6766 35.1749C-22.0786 34.4322 -25.6244 34.025 -29.0982 34.025Z" fill="white"/>
<path d="M4.68202 167.852C4.56223 167.852 4.44242 167.852 4.32263 167.852C1.04043 167.733 -2.31366 165.792 -4.63755 162.654C-10.7468 154.436 -13.2383 146.41 -12.304 138.121C-11.5134 131.221 -10.5551 122.644 -1.25951 119.338C-1.06785 119.266 -0.852231 119.266 -0.660569 119.314C-0.492866 119.266 -0.301178 119.266 -0.109517 119.314C0.752959 119.578 1.66334 119.769 2.57373 119.961C4.65805 120.416 6.81424 120.872 8.56314 122.045C15.5109 126.741 19.7274 133.21 20.7097 140.732C21.7398 148.519 19.0566 156.76 13.3547 163.301C10.1444 167.038 6.91008 167.852 4.68202 167.852ZM-0.660569 121.351C-8.63847 124.226 -9.45303 131.413 -10.2436 138.361C-11.1301 146.099 -8.73428 153.646 -2.96048 161.408C-1.01991 164.019 1.7352 165.648 4.3945 165.768C7.00588 165.888 9.49748 164.594 11.7735 161.959C17.0921 155.85 19.5836 148.207 18.6493 141.02C17.7389 134.096 13.8338 128.131 7.38921 123.77C5.9757 122.812 4.10701 122.405 2.11853 121.998C1.18418 121.806 0.249822 121.614 -0.660569 121.351Z" fill="white"/>
<path d="M145.889 184.359C139.995 184.359 133.622 183.401 126.627 181.508C118.721 179.376 113.69 173.914 112.085 165.768C111.126 160.953 110.791 155.874 111.054 150.627C111.797 135.821 117.331 127.532 129.55 122.932C132.568 121.782 135.755 121.063 138.845 120.344C140.259 120.033 141.672 119.698 143.062 119.338C143.23 119.29 143.397 119.29 143.565 119.338C143.661 119.314 143.781 119.314 143.9 119.314C145.697 119.458 147.518 119.53 149.339 119.578C153.388 119.698 157.58 119.841 161.461 121.039C170.661 123.866 185.778 132.012 183.694 154.748C182.64 166.056 177.082 174.345 167.139 179.4C160.647 182.706 153.675 184.359 145.889 184.359ZM143.565 121.351C142.151 121.71 140.738 122.045 139.3 122.381C136.282 123.076 133.167 123.794 130.268 124.872C118.936 129.161 113.81 136.899 113.091 150.747C112.827 155.754 113.187 160.809 114.097 165.385C115.582 172.836 119.967 177.579 127.154 179.544C142.822 183.784 155.232 183.161 166.181 177.579C175.572 172.788 180.627 165.289 181.61 154.58C183.574 133.306 169.439 125.687 160.838 123.028C157.245 121.926 153.172 121.782 149.267 121.662C147.398 121.59 145.553 121.542 143.709 121.375C143.661 121.375 143.613 121.351 143.565 121.351Z" fill="white"/>
</g>
</g>
<path d="M243.814 20.1617C243.814 20.1617 257.706 21.6775 249.129 48.7012C240.553 75.7158 240.82 81.0095 239.782 91.9162C238.565 104.7 248.417 110.263 248.417 110.263L229.55 108.466L221.807 42.7621L224.137 18.2881L243.814 20.1617Z" fill="#E0E0E0"/>
<path d="M227.231 237.711L36.7448 219.574L56.2185 33.0825L236.519 40.7708L227.231 237.711Z" fill="#E0E0E0"/>
<path d="M221.148 232.277L30.662 214.139L50.1366 27.6392L235.436 41.6327L221.148 232.277Z" fill="#EBEBEB"/>
<path d="M217.696 226.689L27.6012 208.589L45.3737 21.9357L235.629 39.6008L217.696 226.689Z" fill="#FAFAFA"/>
<path d="M217.696 226.689C217.862 224.948 224.789 151.805 235.42 39.5807L235.61 39.8011C180.477 34.6894 115.271 28.6462 45.6524 22.1919C45.5523 22.1824 45.4522 22.1729 45.3521 22.1634L45.6112 21.949C39.1004 90.2311 32.9948 154.258 27.8114 208.599L27.6221 208.37C141.506 219.351 215.94 226.522 217.696 226.689C215.94 226.522 141.49 219.515 27.5813 208.798L27.3721 208.778L27.3921 208.569C32.5573 154.226 38.6447 90.1969 45.1373 21.913L45.1599 21.6761L45.3964 21.6987C45.4964 21.7082 45.5965 21.7177 45.6966 21.7272C115.314 28.1997 180.517 34.2703 235.648 39.4002L235.858 39.4201L235.838 39.6297C224.952 151.83 217.862 224.948 217.696 226.689Z" fill="#263238"/>
<path d="M235.677 39.0997C226.952 26.7116 239.148 19.3222 243.005 19.5056L62.0075 2.1704C52.5473 1.26043 44.5377 9.12202 45.2677 18.6157C45.3771 20.0696 45.7339 21.5287 45.7339 21.5287" fill="#F5F5F5"/>
<path d="M233.871 108.878C233.872 108.868 233.953 108.876 234.118 108.883C234.301 108.891 234.546 108.914 234.848 108.934C235.522 108.989 236.469 109.07 237.689 109.168C240.202 109.388 243.833 109.716 248.412 110.124L248.34 110.402C246.884 109.786 245.413 108.836 244.202 107.48C242.981 106.132 242.043 104.415 241.38 102.513C240.716 100.611 240.29 98.5383 239.991 96.3676C239.847 95.2782 239.732 94.1731 239.638 93.0424C239.591 92.4771 239.534 91.9109 239.535 91.3225C239.518 90.7324 239.519 90.1441 239.575 89.5609C239.717 87.2023 240.084 84.7916 240.511 82.3314C240.929 79.8704 241.444 77.3542 241.991 74.7859C243.103 69.6603 244.4 64.3316 245.847 58.8791C246.445 56.5456 247.149 54.2589 247.758 52.0091C248.35 49.7485 248.876 47.5 249.372 45.2854C249.858 43.0699 250.332 40.89 250.792 38.7548C251.014 37.6818 251.261 36.6295 251.387 35.5934C251.514 34.5482 251.549 33.5034 251.51 32.4699C251.43 30.412 251.025 28.4058 250.335 26.584C249.645 24.7714 248.649 23.0859 247.273 21.916C245.889 20.736 244.109 20.2448 242.43 20.3331C240.75 20.4306 239.137 20.8838 237.853 21.7453C236.551 22.596 235.553 23.7238 234.781 24.8915C234.017 26.0692 233.46 27.2941 233.091 28.4726C232.278 30.8409 232.69 33.0684 233.231 34.7105C233.789 36.3726 234.454 37.5761 234.9 38.3909C235.12 38.7796 235.302 39.082 235.428 39.3054C235.546 39.5098 235.609 39.6169 235.599 39.6252C235.59 39.6334 235.516 39.5345 235.388 39.3384C235.251 39.1414 235.059 38.8473 234.821 38.4477C234.346 37.6486 233.643 36.4599 233.059 34.777C232.492 33.1231 232.038 30.8457 232.841 28.3937C233.204 27.187 233.764 25.9347 234.531 24.7206C235.316 23.5173 236.336 22.3456 237.679 21.4529C239.014 20.5411 240.685 20.0566 242.429 19.9561C244.175 19.8464 246.081 20.359 247.542 21.6013C248.993 22.8429 250.022 24.5682 250.745 26.4299C251.457 28.2998 251.878 30.3442 251.962 32.4485C252.008 33.5011 251.971 34.5733 251.841 35.6458C251.71 36.7275 251.463 37.7797 251.251 38.8536C250.809 40.9906 250.335 43.1705 249.839 45.3942C249.343 47.6089 248.816 49.8664 248.224 52.1362C247.612 54.4133 246.92 56.6735 246.312 59.0062C244.866 64.4495 243.57 69.7691 242.45 74.8848C241.903 77.4439 241.38 79.9501 240.953 82.4103C240.518 84.8605 240.152 87.2621 240.003 89.5925C239.948 90.1757 239.948 90.7458 239.958 91.3168C239.95 91.8861 240.006 92.4523 240.053 93.0176C240.148 94.1483 240.254 95.2525 240.389 96.332C240.671 98.4827 241.082 100.535 241.72 102.407C242.359 104.28 243.263 105.965 244.442 107.282C245.61 108.607 247.026 109.542 248.437 110.154L249.3 110.531L248.373 110.433C243.8 109.97 240.173 109.597 237.663 109.349C236.446 109.215 235.491 109.115 234.828 109.042C234.52 109.004 234.284 108.972 234.102 108.955C233.961 108.895 233.871 108.878 233.871 108.878Z" fill="#263238"/>
<path d="M124.607 13.988C124.675 14.0496 124.07 14.7183 123.397 15.9966C123.062 16.6267 122.747 17.4242 122.486 18.3372C122.252 19.2527 122.08 20.2845 122.05 21.3757C122.037 22.4687 122.169 23.5017 122.375 24.4224C122.6 25.3357 122.881 26.144 123.196 26.7899C123.815 28.0902 124.402 28.7804 124.332 28.8381C124.302 28.8628 124.143 28.7006 123.879 28.3904C123.595 28.0876 123.257 27.5957 122.905 26.9462C122.544 26.305 122.21 25.4733 121.951 24.5292C121.721 23.5786 121.567 22.4974 121.582 21.368C121.608 20.2303 121.801 19.1638 122.074 18.2244C122.366 17.2868 122.727 16.4753 123.109 15.8405C123.491 15.2057 123.849 14.7249 124.143 14.4311C124.411 14.1256 124.582 13.9672 124.607 13.988Z" fill="#263238"/>
<path d="M120.7 7.1062C120.766 7.18603 119.446 7.94295 118.019 9.8206C116.596 11.6527 115.157 14.8073 115.467 18.395C115.796 21.9845 117.773 24.8391 119.498 26.3825C121.247 27.9741 122.677 28.4781 122.622 28.574C122.61 28.6004 122.253 28.4929 121.647 28.2053C121.041 27.9178 120.199 27.4146 119.272 26.6368C117.443 25.1203 115.335 22.1889 114.995 18.4419C114.673 14.6876 116.221 11.4423 117.754 9.61151C118.522 8.68244 119.263 8.03583 119.814 7.64697C120.356 7.25725 120.684 7.08625 120.7 7.1062Z" fill="#263238"/>
<path d="M209.134 162.553C209.134 162.553 208.932 162.552 208.54 162.524C208.13 162.494 207.547 162.438 206.791 162.385C205.234 162.246 202.976 162.049 200.064 161.79C194.212 161.251 185.768 160.475 175.349 159.51C154.469 157.541 125.646 154.824 93.8218 151.821C81.4769 150.646 69.5878 149.504 58.6621 148.464L58.4346 148.443L58.4563 148.215C60.7137 124.892 62.6515 104.831 64.0266 90.582C64.7306 83.4775 65.2958 77.8308 65.6762 73.9319C65.8783 72.0019 66.0288 70.5176 66.136 69.4888C66.1919 68.9977 66.2375 68.6158 66.2635 68.3425C66.2969 68.0882 66.319 67.9524 66.319 67.9524C66.319 67.9524 66.3159 68.0809 66.2999 68.346C66.2829 68.6202 66.2465 69.0029 66.2087 69.4958C66.1198 70.5262 65.9875 72.0123 65.8218 73.9457C65.4686 77.8473 64.9489 83.4982 64.2995 90.608C62.9608 104.86 61.0867 124.928 58.893 148.256L58.6873 148.007C69.613 149.047 81.5039 150.17 93.8487 151.346C125.677 154.404 154.485 157.174 175.362 159.181C185.775 160.2 194.215 161.031 200.063 161.606C202.963 161.901 205.226 162.135 206.781 162.292C207.535 162.373 208.117 162.437 208.525 162.485C208.935 162.515 209.134 162.553 209.134 162.553Z" fill="#263238"/>
<path d="M88.0013 131.003L72.7999 129.556L71.3502 144.781L86.5516 146.229L88.0013 131.003Z" fill="#DF263E"/>
<path d="M111.316 122.245L96.1148 120.798L93.6292 146.903L108.831 148.35L111.316 122.245Z" fill="#DF263E"/>
<path d="M134.864 112.01L119.662 110.563L115.999 149.033L131.201 150.48L134.864 112.01Z" fill="#DF263E"/>
<path d="M157.861 100.317L142.66 98.8691L137.687 151.097L152.888 152.545L157.861 100.317Z" fill="#DF263E"/>
<path d="M181.726 84.8166L166.525 83.3691L159.875 153.21L175.076 154.658L181.726 84.8166Z" fill="#DF263E"/>
<path d="M205.03 73.4738L189.829 72.0264L181.968 154.587L197.169 156.035L205.03 73.4738Z" fill="#DF263E"/>
<path d="M74.2853 113.956C74.2861 113.947 74.3541 113.908 74.4902 113.829C74.6453 113.742 74.8584 113.625 75.1205 113.475C75.7011 113.163 76.5238 112.717 77.5878 112.147C79.773 110.985 82.9062 109.316 86.8413 107.226C94.7851 103.045 105.938 97.1658 118.878 90.3529L119.246 90.158L119.206 90.5771C119 92.7366 118.781 95.0419 118.566 97.3935L118.22 97.1676C122.305 94.9545 126.535 92.6633 130.861 90.317C148.279 80.9239 164.034 72.4115 175.472 66.2462C181.178 63.1946 185.793 60.7194 189.013 59.0032C190.598 58.1703 191.835 57.5158 192.705 57.0562C193.11 56.8466 193.429 56.6838 193.67 56.5597C193.891 56.452 194.007 56.3987 194.006 56.4078C194.014 56.4177 193.907 56.4811 193.693 56.6078C193.46 56.7419 193.15 56.9147 192.752 57.1434C191.898 57.623 190.668 58.2966 189.098 59.1677C185.893 60.922 181.301 63.4454 175.627 66.546C164.213 72.7503 148.474 81.2918 131.078 90.7421C126.742 93.0876 122.513 95.3697 118.429 97.5827L118.041 97.7941L118.083 97.3568C118.307 95.0059 118.526 92.7007 118.741 90.5421L119.069 90.7663C106.097 97.5211 94.9128 103.343 86.9543 107.485C82.9963 109.527 79.8302 111.156 77.6385 112.29C76.568 112.831 75.7288 113.257 75.14 113.56C74.8705 113.69 74.6583 113.799 74.4949 113.875C74.3615 113.927 74.2853 113.956 74.2853 113.956Z" fill="#263238"/>
<path d="M193.412 62.8332C193.349 62.8271 193.362 62.1112 193.427 60.9406C193.493 59.77 193.62 58.1455 193.793 56.3322L194.007 56.5917C193.825 56.5743 193.625 56.5553 193.424 56.5362C191.478 56.3509 189.715 56.1555 188.446 55.9887C187.177 55.8218 186.391 55.6918 186.397 55.628C186.403 55.5642 187.2 55.5758 188.477 55.6606C189.755 55.7364 191.523 55.8771 193.47 56.0624C193.67 56.0815 193.861 56.0997 194.052 56.1179L194.288 56.1404L194.266 56.3773C194.084 58.1897 193.902 59.8089 193.755 60.9718C193.598 62.1337 193.476 62.8392 193.412 62.8332Z" fill="#263238"/>
<path d="M102.665 164.8C102.653 164.927 97.9486 164.59 92.1537 164.038C86.3588 163.486 81.675 162.93 81.6872 162.802C81.6993 162.675 86.4039 163.012 92.1988 163.564C97.9937 164.116 102.677 164.672 102.665 164.8Z" fill="#263238"/>
<path d="M91.2089 170.972C91.0815 170.96 91.0773 169.847 91.2066 168.489C91.3359 167.132 91.55 166.04 91.6774 166.052C91.8048 166.064 91.8089 167.177 91.6797 168.535C91.5504 169.892 91.3363 170.984 91.2089 170.972Z" fill="#263238"/>
<path d="M116.683 175.88C116.671 176.008 104.052 174.917 88.4959 173.435C72.9397 171.954 60.3414 170.644 60.3535 170.517C60.3657 170.389 72.9848 171.48 88.541 172.962C104.088 174.442 116.695 175.753 116.683 175.88Z" fill="#263238"/>
<path d="M60.0593 177.559C59.9319 177.547 59.9676 176.015 60.1472 174.129C60.3268 172.243 60.5809 170.732 60.7082 170.744C60.8356 170.756 60.7998 172.288 60.6203 174.174C60.4415 176.051 60.1957 177.572 60.0593 177.559Z" fill="#263238"/>
<path d="M80.1724 178.711C80.045 178.699 80.0608 177.377 80.2152 175.755C80.3696 174.133 80.6037 172.831 80.7311 172.843C80.8585 172.855 80.8427 174.178 80.6883 175.8C80.5347 177.413 80.2997 178.723 80.1724 178.711Z" fill="#263238"/>
<path d="M100.742 181.047C100.615 181.035 100.642 179.585 100.812 177.808C100.981 176.031 101.227 174.602 101.354 174.614C101.482 174.626 101.454 176.076 101.285 177.853C101.116 179.63 100.869 181.059 100.742 181.047Z" fill="#263238"/>
<path d="M116.425 182.54C116.298 182.528 116.33 181.032 116.505 179.201C116.679 177.369 116.93 175.895 117.057 175.907C117.184 175.919 117.152 177.415 116.978 179.246C116.803 181.077 116.562 182.553 116.425 182.54Z" fill="#263238"/>
<path d="M66.8745 180.121C66.8624 180.248 63.8044 180.067 60.0473 179.71C56.2901 179.352 53.253 178.952 53.2651 178.825C53.2772 178.697 56.3352 178.878 60.0924 179.236C63.8495 179.594 66.8875 179.984 66.8745 180.121Z" fill="#263238"/>
<path d="M84.2684 181.777C84.2562 181.904 81.9169 181.792 79.0513 181.519C76.1766 181.245 73.8672 180.915 73.8794 180.788C73.8915 180.66 76.2308 180.773 79.0964 181.045C81.9621 181.318 84.2814 181.64 84.2684 181.777Z" fill="#263238"/>
<path d="M106.33 184.447C106.318 184.575 103.815 184.447 100.731 184.153C97.6468 183.86 95.1646 183.513 95.1767 183.385C95.1889 183.258 97.6919 183.386 100.776 183.679C103.851 183.972 106.342 184.32 106.33 184.447Z" fill="#263238"/>
<path d="M124.378 185.21C124.366 185.337 121.69 185.193 118.406 184.88C115.113 184.566 112.457 184.203 112.47 184.076C112.482 183.948 115.158 184.093 118.451 184.406C121.735 184.719 124.39 185.082 124.378 185.21Z" fill="#263238"/>
<path d="M59.4393 186.097C59.3119 186.085 59.2877 185.181 59.3919 184.088C59.4968 182.985 59.6902 182.112 59.8175 182.124C59.9449 182.136 59.969 183.04 59.8649 184.133C59.7608 185.226 59.5666 186.109 59.4393 186.097Z" fill="#263238"/>
<path d="M72.3754 187.329C72.3633 187.456 66.8491 187.042 60.0625 186.396C53.276 185.749 47.7827 185.116 47.7948 184.988C47.807 184.861 53.3212 185.276 60.1077 185.922C66.8942 186.568 72.3884 187.192 72.3754 187.329Z" fill="#263238"/>
<path d="M71.835 193.005C71.7076 192.992 71.7199 191.706 71.8691 190.139C72.0184 188.572 72.249 187.307 72.3764 187.319C72.5037 187.331 72.4914 188.617 72.3422 190.184C72.1921 191.761 71.9714 193.018 71.835 193.005Z" fill="#263238"/>
<path d="M47.227 191.048C47.0997 191.036 47.1198 189.668 47.2786 188C47.4382 186.324 47.6757 184.985 47.8031 184.998C47.9305 185.01 47.9104 186.378 47.7516 188.045C47.5928 189.713 47.3544 191.06 47.227 191.048Z" fill="#263238"/>
<path d="M100.395 189.996C100.267 189.984 100.243 189.081 100.347 187.987C100.452 186.885 100.646 186.011 100.773 186.023C100.9 186.036 100.924 186.939 100.82 188.032C100.716 189.126 100.522 190.008 100.395 189.996Z" fill="#263238"/>
<path d="M130.27 192.841C130.258 192.968 120.959 192.193 109.497 191.102C98.0341 190.011 88.7563 189.017 88.7684 188.889C88.7805 188.762 98.0792 189.537 109.542 190.628C120.995 191.719 130.283 192.704 130.27 192.841Z" fill="#263238"/>
<path d="M112.79 196.904C112.663 196.892 112.675 195.606 112.825 194.039C112.974 192.471 113.204 191.206 113.332 191.218C113.459 191.23 113.447 192.517 113.298 194.084C113.147 195.66 112.927 196.917 112.79 196.904Z" fill="#263238"/>
<path d="M130.575 198.597C130.448 198.585 130.46 197.299 130.61 195.732C130.759 194.165 130.989 192.9 131.117 192.912C131.244 192.924 131.232 194.21 131.083 195.777C130.933 197.353 130.703 198.61 130.575 198.597Z" fill="#263238"/>
<path d="M88.1825 194.947C88.0551 194.935 88.0752 193.567 88.234 191.9C88.3936 190.223 88.6312 188.885 88.7586 188.897C88.8859 188.909 88.8658 190.277 88.707 191.945C88.5483 193.612 88.3099 194.959 88.1825 194.947Z" fill="#263238"/>
<path d="M51.7343 194.998C51.7221 195.126 49.5466 195.029 46.872 194.774C44.1975 194.52 42.0428 194.204 42.0549 194.077C42.067 193.949 44.2426 194.046 46.9171 194.301C49.5917 194.555 51.7464 194.871 51.7343 194.998Z" fill="#263238"/>
<path d="M75.8714 196.598C75.8593 196.726 73.5018 196.612 70.618 196.337C67.7251 196.062 65.3975 195.73 65.4096 195.602C65.4218 195.475 67.7793 195.589 70.6631 195.863C73.5469 196.138 75.8844 196.462 75.8714 196.598Z" fill="#263238"/>
<path d="M93.2561 198.253C93.244 198.381 91.1685 198.294 88.6213 198.051C86.0741 197.809 84.0194 197.503 84.0316 197.375C84.0437 197.248 86.1192 197.335 88.6664 197.577C91.2227 197.821 93.2691 198.117 93.2561 198.253Z" fill="#263238"/>
<path d="M116.7 200.486C116.687 200.613 114.439 200.509 111.674 200.246C108.908 199.983 106.681 199.66 106.693 199.533C106.705 199.405 108.953 199.509 111.719 199.772C114.484 200.036 116.713 200.349 116.7 200.486Z" fill="#263238"/>
<path d="M135.509 201.642C135.497 201.77 133.212 201.662 130.41 201.396C127.608 201.129 125.344 200.803 125.356 200.675C125.368 200.548 127.653 200.655 130.455 200.922C133.257 201.189 135.521 201.515 135.509 201.642Z" fill="#263238"/>
<path d="M204.296 211.916L140.115 205.805L143.905 166.005L208.086 172.116L204.296 211.916ZM140.174 205.764L204.255 211.866L208.036 172.157L143.955 166.056L140.174 205.764Z" fill="#263238"/>
<path d="M189.845 199.405C185.557 197.296 180 201.474 175.824 199.155C173.392 197.802 172.519 194.823 171.508 192.226C170.498 189.628 168.609 186.81 165.825 186.839C163.023 186.866 160.469 189.869 157.86 188.839C156.214 188.186 155.547 186.228 155.291 184.484C155.026 182.731 154.915 180.817 153.737 179.491C152.56 178.165 149.845 178.238 149.479 179.968L147.472 201.044L197.625 205.819C197.625 205.819 191.327 200.135 189.845 199.405Z" fill="white"/>
<path d="M198.962 205.946C198.957 205.992 186.8 204.871 171.808 203.444C156.816 202.016 144.665 200.822 144.67 200.777C144.674 200.731 156.831 201.852 171.824 203.28C186.816 204.707 198.966 205.901 198.962 205.946Z" fill="#E0E0E0"/>
<path d="M199.838 196.744C199.834 196.789 187.676 195.668 172.684 194.241C157.692 192.813 145.542 191.62 145.546 191.574C145.55 191.529 157.708 192.649 172.7 194.077C187.692 195.504 199.842 196.698 199.838 196.744Z" fill="#263238"/>
<path d="M200.714 187.541C200.71 187.586 188.553 186.465 173.561 185.038C158.568 183.61 146.418 182.417 146.422 182.371C146.427 182.326 158.584 183.446 173.576 184.874C188.568 186.301 200.719 187.495 200.714 187.541Z" fill="#263238"/>
<path d="M201.548 178.785C201.544 178.83 189.386 177.709 174.394 176.282C159.402 174.854 147.252 173.661 147.256 173.615C147.26 173.57 159.418 174.69 174.41 176.118C189.402 177.545 201.552 178.739 201.548 178.785Z" fill="#263238"/>
<path d="M69.2462 37.4026C69.2462 37.4026 69.2743 37.3961 69.338 37.4022C69.4017 37.4082 69.4927 37.4169 69.6018 37.4273C69.8301 37.4398 70.1641 37.4992 70.5938 37.6137C71.0136 37.7364 71.5274 37.9324 72.0545 38.2768C72.5817 38.6212 73.1106 39.1405 73.5328 39.8151C73.9361 40.4971 74.2882 41.3306 74.3717 42.2855C74.446 43.2396 74.2016 44.2645 73.7158 45.2204C73.4771 45.7034 73.1764 46.162 72.8402 46.6081C72.5039 47.0542 72.1677 47.5003 71.8718 48.0054C71.2734 48.9874 70.7638 50.0973 70.44 51.2802L70.414 51.3604L70.3322 51.3526C69.5697 51.2616 68.7709 51.1672 67.963 51.0719C67.1096 50.9722 66.2752 50.8652 65.4764 50.7708L65.3855 50.7621L65.3941 50.671C65.5186 49.46 65.1259 48.2825 64.6937 47.23C64.4685 46.7028 64.2233 46.1922 63.9864 45.6915C63.7586 45.1918 63.4918 44.7158 63.3294 44.2039C62.9856 43.1873 63.0507 42.1178 63.3558 41.2274C63.6518 40.3362 64.0665 39.5482 64.6085 38.9654C65.1423 38.3726 65.7744 38.0007 66.3562 37.771C66.938 37.5414 67.4704 37.445 67.9058 37.4037C68.3412 37.3624 68.6804 37.3671 68.9087 37.3797C69.0179 37.3901 69.1089 37.3987 69.1634 37.4039C69.2198 37.3909 69.247 37.3935 69.2462 37.4026C69.2462 37.4026 69.2189 37.4 69.1543 37.4031C69.0907 37.397 68.9988 37.3974 68.8979 37.397C68.6687 37.3936 68.3377 37.3989 67.9097 37.4592C67.4826 37.5105 66.9584 37.6169 66.3857 37.8474C65.822 38.0788 65.2081 38.4524 64.6843 39.037C64.1704 39.6132 63.7657 40.393 63.4806 41.2669C63.1954 42.1408 63.1346 43.1648 63.4729 44.144C63.637 44.6377 63.8955 45.1036 64.1316 45.6134C64.3594 46.1132 64.6136 46.6247 64.8388 47.1518C65.2792 48.2144 65.6893 49.4027 65.5587 50.6775L65.4764 50.5777C66.2753 50.6721 67.1105 50.77 67.963 50.8788C68.7709 50.9741 69.5788 51.0694 70.3322 51.1596L70.2334 51.2329C70.5697 50.0145 71.0875 48.9145 71.6976 47.9061C72.0026 47.4018 72.3489 46.9475 72.6851 46.5014C73.0204 46.0644 73.312 45.6049 73.5491 45.1402C74.0322 44.2116 74.265 43.2132 74.2062 42.2881C74.1374 41.3714 73.8026 40.5488 73.4076 39.8768C72.9936 39.2121 72.492 38.6955 71.983 38.3528C71.465 38.0092 70.9694 37.8149 70.5605 37.6749C70.1399 37.5613 69.8076 37.4836 69.5802 37.462C69.4719 37.4425 69.39 37.4347 69.3272 37.4195C69.2735 37.4052 69.2462 37.4026 69.2462 37.4026Z" fill="#263238"/>
<path d="M68.6587 50.8994C68.6587 50.8994 68.6522 50.8712 68.6566 50.8256C68.6527 50.7701 68.6505 50.6963 68.651 50.5953C68.6519 50.3931 68.6432 50.098 68.6333 49.7201C68.6234 48.9561 68.6175 47.8614 68.6914 46.5076C68.7144 46.1696 68.7391 45.8134 68.7747 45.4398C68.8102 45.0663 68.8467 44.6836 68.9204 44.2952C68.9941 43.9069 69.1158 43.4955 69.3524 43.1319C69.5881 42.7774 69.9395 42.4615 70.3918 42.339C70.835 42.2157 71.3604 42.3853 71.6641 42.7636C71.8113 42.9523 71.8971 43.2087 71.8546 43.4621C71.822 43.7073 71.6903 43.9338 71.5166 44.1195C71.3428 44.3052 71.1106 44.4302 70.8736 44.5088C70.6367 44.5874 70.385 44.6278 70.1259 44.6491C69.6178 44.6834 69.1049 44.6714 68.5863 44.622C68.0687 44.5635 67.5618 44.4877 67.071 44.3398C66.8306 44.2617 66.5919 44.1655 66.3749 44.0345C66.1579 43.9035 65.9725 43.7295 65.827 43.5226C65.6814 43.3156 65.5849 43.0766 65.5619 42.8354C65.5399 42.585 65.6097 42.3342 65.7479 42.1359C65.877 41.9367 66.0854 41.7727 66.3115 41.7115C66.5468 41.6511 66.798 41.7118 66.9877 41.8402C67.1866 41.9695 67.3355 42.14 67.4356 42.3426C67.5356 42.5452 67.5885 42.7617 67.6049 42.9747C67.6469 43.4016 67.5888 43.8191 67.5606 44.2117C67.4942 45.0053 67.433 45.7442 67.377 46.4285C67.2577 47.7779 67.1718 48.873 67.1089 49.6301C67.0733 50.0037 67.0455 50.2953 67.0347 50.5057C67.0251 50.6059 67.0182 50.6788 67.013 50.7335C67.0078 50.7882 67.0061 50.8064 67.0061 50.8064C67.0061 50.8064 67.0087 50.7791 67.0039 50.7326C67.0091 50.678 67.0161 50.6051 67.0165 50.504C67.0356 50.3035 67.0543 50.0111 67.0816 49.6275C67.1445 48.8704 67.2213 47.7744 67.3315 46.4241C67.3867 45.749 67.4478 45.0101 67.506 44.2065C67.5351 43.8047 67.5923 43.3964 67.5494 42.9786C67.523 42.7738 67.4793 42.5582 67.3775 42.3738C67.2766 42.1803 67.1367 42.0107 66.9544 41.9014C66.7729 41.783 66.5481 41.734 66.3319 41.787C66.1157 41.8399 65.9272 41.9875 65.8081 42.1784C65.6798 42.3685 65.6209 42.6019 65.6356 42.8332C65.6503 43.0644 65.7477 43.2944 65.8859 43.4822C66.1605 43.8761 66.6136 44.1308 67.0871 44.2678C67.5696 44.4057 68.0756 44.4906 68.5842 44.5482C69.0927 44.6059 69.6057 44.6179 70.1056 44.5736C70.3555 44.5514 70.5973 44.5193 70.8342 44.4407C71.0621 44.3612 71.2753 44.2436 71.4473 44.0761C71.6102 43.9077 71.7319 43.6895 71.7627 43.4626C71.8026 43.2365 71.7242 42.9992 71.5852 42.8204C71.3071 42.463 70.8089 42.296 70.384 42.421C69.9607 42.5278 69.6102 42.8347 69.3845 43.1809C69.1579 43.5363 69.0378 43.9294 68.955 44.3169C68.8813 44.7053 68.8449 45.0879 68.8002 45.4607C68.7655 45.8251 68.7408 46.1814 68.7178 46.5193C68.6349 47.8722 68.6399 48.976 68.6415 49.7301C68.6424 50.1071 68.6419 50.4013 68.641 50.6035C68.6406 50.7046 68.6427 50.7784 68.6375 50.833C68.6613 50.8721 68.6587 50.8994 68.6587 50.8994Z" fill="#263238"/>
<path d="M65.493 50.5979C65.5012 50.6079 65.4826 50.9003 65.4439 51.4023C65.3975 51.9863 65.3407 52.6797 65.2717 53.5006L65.2587 53.4442C65.668 54.0624 66.124 54.7678 66.6213 55.5231L66.5429 55.4789C67.135 55.5261 67.7636 55.5767 68.4195 55.63L68.3341 55.6587C68.6864 55.3336 69.0494 54.9912 69.4216 54.6497C69.6027 54.483 69.7847 54.3073 69.9649 54.1498L69.9307 54.2201C70.0538 53.1193 70.1709 52.0823 70.2794 51.1364L70.3699 51.2462C69.0088 51.0798 67.8296 50.9307 66.877 50.8124C66.4967 50.7578 66.1701 50.7175 65.8716 50.6707C65.6277 50.6291 65.493 50.5979 65.493 50.5979C65.4848 50.5879 65.603 50.5992 65.8313 50.6117C66.1224 50.6394 66.4508 50.6615 66.8238 50.697C67.7972 50.7897 68.998 50.9041 70.3899 51.0366L70.4899 51.0461L70.4804 51.1463C70.381 52.0931 70.2722 53.1401 70.159 54.2326L70.1546 54.2782L70.1247 54.3029C69.9436 54.4695 69.7625 54.6362 69.5806 54.8119C69.2084 55.1535 68.8453 55.4959 68.4931 55.8209L68.4532 55.8539L68.4078 55.8496C67.7519 55.7963 67.1242 55.7365 66.532 55.6893L66.4774 55.6841L66.4536 55.6451C65.9664 54.8815 65.5203 54.1679 65.13 53.5423L65.1144 53.5132L65.117 53.4859C65.2233 52.6593 65.31 51.9412 65.3846 51.3507C65.4414 50.8504 65.4765 50.5779 65.493 50.5979Z" fill="#263238"/>
<path d="M69.9376 53.9545C69.9367 53.9636 69.8765 53.9211 69.7725 53.856C69.6686 53.791 69.5126 53.6934 69.3103 53.6006C68.9166 53.3976 68.3309 53.1855 67.6586 53.1123C66.9863 53.0391 66.372 53.1277 65.9478 53.2436C65.7317 53.2966 65.561 53.3539 65.4466 53.3982C65.3322 53.4424 65.2659 53.4637 65.2659 53.4637C65.2659 53.4637 65.3249 53.4233 65.4392 53.3791C65.5545 53.3257 65.726 53.2593 65.934 53.1963C66.359 53.0713 66.9841 52.9653 67.6746 53.0403C68.3561 53.1143 68.9499 53.3364 69.342 53.5576C69.5425 53.6686 69.6894 53.7654 69.7925 53.8395C69.8873 53.9037 69.9384 53.9454 69.9376 53.9545Z" fill="#263238"/>
<path d="M70.0361 53.2094C70.0352 53.2185 69.975 53.176 69.8711 53.1109C69.7671 53.0458 69.6111 52.9482 69.4089 52.8554C69.0151 52.6524 68.4294 52.4404 67.7571 52.3672C67.0848 52.294 66.4705 52.3826 66.0463 52.4985C65.8302 52.5515 65.6595 52.6088 65.5451 52.653C65.4307 52.6973 65.3645 52.7186 65.3645 52.7186C65.3645 52.7186 65.4234 52.6782 65.5377 52.6339C65.653 52.5806 65.8246 52.5141 66.0325 52.4512C66.4575 52.3262 67.0826 52.2202 67.7731 52.2951C68.4546 52.3692 69.0485 52.5913 69.4405 52.8125C69.641 52.9235 69.7879 53.0202 69.891 53.0944C69.9858 53.1586 70.037 53.2003 70.0361 53.2094Z" fill="#263238"/>
<path d="M70.0863 52.4882C70.0855 52.4973 70.0253 52.4548 69.9213 52.3897C69.8173 52.3246 69.6614 52.2271 69.4591 52.1342C69.0653 51.9312 68.4797 51.7192 67.8074 51.646C67.1351 51.5728 66.5208 51.6614 66.0966 51.7773C65.8805 51.8303 65.7098 51.8876 65.5954 51.9318C65.481 51.9761 65.4147 51.9974 65.4147 51.9974C65.4147 51.9974 65.4737 51.957 65.588 51.9128C65.7033 51.8594 65.8748 51.793 66.0828 51.73C66.5078 51.605 67.1329 51.499 67.8234 51.5739C68.5048 51.648 69.0987 51.8701 69.4907 52.0913C69.6913 52.2023 69.8381 52.2991 69.9412 52.3732C70.0361 52.4374 70.0863 52.4882 70.0863 52.4882Z" fill="#263238"/>
<path d="M85.5941 73.7601C85.5941 73.7601 82.1558 90.3962 83.6448 99.8242L106.163 100.975C106.163 100.975 102.939 83.9347 106.585 76.8713L85.5941 73.7601Z" fill="#EBEBEB"/>
<path d="M85.7363 73.231C85.7363 73.231 84.1627 91.3962 84.5549 97.0144L107.382 98.1031C107.382 98.1031 107.089 80.0727 108.306 75.38L85.7363 73.231Z" fill="white"/>
<path d="M104.151 82.6802C104.152 82.7631 100.714 82.7116 96.4781 82.5657C92.2418 82.4197 88.8082 82.2307 88.816 82.1487C88.8148 82.0658 92.2522 82.1173 96.4885 82.2632C100.725 82.4092 104.159 82.5891 104.151 82.6802Z" fill="white"/>
<path d="M103.794 86.5165C103.796 86.5994 100.358 86.5479 96.1219 86.402C91.8857 86.2561 88.4521 86.0671 88.4599 85.9851C88.4586 85.9022 91.8961 85.9537 96.1324 86.0996C100.369 86.2455 103.793 86.4337 103.794 86.5165Z" fill="white"/>
<path d="M99.5681 89.9305C99.5637 89.976 99.0755 89.9939 98.2862 89.9923C97.4969 89.9907 96.4066 89.9696 95.1988 89.9282C93.991 89.8868 92.9041 89.8292 92.1109 89.7721C91.3177 89.715 90.8364 89.6599 90.8308 89.6226C90.8352 89.5771 91.3234 89.5592 92.1127 89.5608C92.902 89.5624 93.9924 89.5835 95.2001 89.6249C96.4079 89.6664 97.4948 89.7239 98.288 89.781C99.082 89.829 99.5724 89.8849 99.5681 89.9305Z" fill="white"/>
<path d="M140.35 48.6969C140.338 48.8245 127.037 47.6683 110.644 46.1074C94.2507 44.5465 80.9701 43.1716 80.9823 43.044C80.9944 42.9165 94.2958 44.0727 110.689 45.6336C127.082 47.1945 140.363 48.5693 140.35 48.6969Z" fill="#263238"/>
<path d="M102.272 50.5415C102.26 50.669 97.2642 50.3037 91.1145 49.7181C84.9648 49.1326 79.99 48.5486 80.0021 48.421C80.0142 48.2934 85.0099 48.6588 91.1596 49.2443C97.3093 49.8299 102.284 50.4139 102.272 50.5415Z" fill="#263238"/>
<path d="M114.098 51.6674C114.086 51.795 112.156 51.7215 109.782 51.4955C107.408 51.2694 105.498 50.9773 105.511 50.8497C105.523 50.7221 107.453 50.7956 109.827 51.0216C112.201 51.2477 114.111 51.5398 114.098 51.6674Z" fill="#263238"/>
<path d="M232.75 120.65C232.741 120.649 232.739 120.575 232.733 120.437C232.731 120.271 232.732 120.069 232.728 119.82C232.737 119.242 232.748 118.452 232.769 117.461C232.822 115.361 232.901 112.408 232.999 108.776C233.242 101.407 233.581 91.289 233.946 80.1252C234.368 68.9483 234.752 58.8435 235.032 51.4687C235.194 47.8341 235.319 44.8854 235.418 42.7893C235.475 41.8018 235.513 41.0147 235.551 40.4298C235.565 40.1829 235.584 39.9825 235.6 39.8185C235.613 39.6818 235.619 39.6089 235.629 39.6098C235.638 39.6106 235.64 39.6844 235.645 39.8228C235.648 39.9885 235.647 40.1907 235.651 40.4393C235.641 41.0177 235.63 41.8074 235.61 42.7984C235.557 44.8897 235.477 47.8518 235.379 51.4834C235.137 58.8525 234.797 68.9708 234.431 80.1437C234.01 91.3115 233.626 101.425 233.347 108.791C233.184 112.426 233.059 115.384 232.961 117.471C232.904 118.458 232.864 119.254 232.837 119.831C232.823 120.078 232.804 120.278 232.788 120.442C232.775 120.579 232.759 120.651 232.75 120.65Z" fill="#263238"/>
<path d="M237.592 18.9902C237.592 18.9902 237.408 18.9911 237.062 18.9673C236.697 18.9417 236.178 18.8924 235.513 18.8382C234.13 18.7157 232.128 18.5342 229.561 18.2991C224.375 17.8144 216.905 17.1124 207.68 16.2432C189.188 14.4548 163.673 11.9978 135.493 9.27784C105.882 6.36635 79.2173 3.73552 60.7825 1.92504L60.8197 1.91939C56.5933 2.53753 53.1209 4.58823 50.7575 6.94678C48.3559 9.3201 47.0451 11.9996 46.337 14.2307C45.6271 16.4801 45.4974 18.325 45.4712 19.5637C45.4677 20.1794 45.478 20.6493 45.5031 20.9643C45.5191 21.2784 45.5216 21.4441 45.5216 21.4441C45.5216 21.4441 45.3987 20.8072 45.3794 19.5642C45.3691 18.322 45.4725 16.4653 46.1667 14.1869C46.8502 11.9258 48.1562 9.19995 50.5721 6.77283C52.9589 4.36133 56.4738 2.25032 60.7765 1.60267L60.7955 1.59529L60.8137 1.59702C79.252 3.37105 105.921 5.94721 135.538 8.80403C163.713 11.5787 189.223 14.0904 207.712 15.906C216.931 16.839 224.397 17.5867 229.579 18.1168C232.141 18.3884 234.141 18.5972 235.523 18.738C236.186 18.8104 236.704 18.8688 237.067 18.9126C237.412 18.9546 237.592 18.9902 237.592 18.9902Z" fill="#263238"/>
<defs>
<radialGradient id="paint0_radial" cx="0" cy="0" r="1" gradientUnits="userSpaceOnUse" gradientTransform="translate(341.559 -103.698) rotate(133.711) scale(482.308 463.321)">
<stop stop-color="#BA2034"/>
<stop offset="1" stop-color="#FC2B46"/>
</radialGradient>
<radialGradient id="paint1_radial" cx="0" cy="0" r="1" gradientUnits="userSpaceOnUse" gradientTransform="translate(341.559 -103.698) rotate(133.711) scale(482.308 463.321)">
<stop stop-color="#BA2034"/>
<stop offset="1" stop-color="#FC2B46"/>
</radialGradient>
</defs>
</svg>
