<svg width="24" height="25" viewBox="0 0 24 25" fill="none" xmlns="http://www.w3.org/2000/svg">
<g opacity="0.75">
<path d="M4.983 8.17385C6.1914 8.17385 7.171 7.19425 7.171 5.98585C7.171 4.77745 6.1914 3.79785 4.983 3.79785C3.7746 3.79785 2.795 4.77745 2.795 5.98585C2.795 7.19425 3.7746 8.17385 4.983 8.17385Z" fill="white"/>
<path d="M9.237 9.83223V21.9712H13.006V15.9682C13.006 14.3842 13.304 12.8502 15.268 12.8502C17.205 12.8502 17.229 14.6612 17.229 16.0682V21.9722H21V15.3152C21 12.0452 20.296 9.53223 16.474 9.53223C14.639 9.53223 13.409 10.5392 12.906 11.4922H12.855V9.83223H9.237ZM3.095 9.83223H6.87V21.9712H3.095V9.83223Z" fill="white"/>
</g>
</svg>
