<svg width="68" height="87" viewBox="0 0 68 87" fill="none" xmlns="http://www.w3.org/2000/svg">
<path d="M9.8647 81.2721H8.59442V73.6504H9.8647V81.2721ZM18.7566 80.4252V80.8486L18.3332 81.2721C17.9098 81.2721 17.9098 81.2721 17.9098 81.2721C17.9098 81.2721 17.9098 80.8486 17.4864 80.8486L12.8287 75.7675V81.2721H11.5584V74.4972C11.5584 74.0738 11.5584 74.0738 11.5584 74.0738C11.5584 73.6504 11.9818 73.6504 11.9818 73.6504C11.9818 73.6504 11.9818 73.6504 12.4053 73.6504C12.4053 73.6504 12.4053 73.6504 12.8287 73.6504L17.4864 78.7315V73.6504H18.7566V80.4252ZM26.3783 77.8846H22.1441V76.6144H26.3783V77.8846ZM27.2252 74.9207H21.7206V81.2721H20.4504V74.4972V74.0738C20.4504 73.6504 20.8738 73.6504 20.8738 73.6504H27.2252V74.9207ZM35.6937 77.8846C35.6937 78.7315 35.6937 79.1549 35.6937 79.1549C35.2703 79.5784 35.2703 80.0018 34.8468 80.4252C34.4234 80.4252 34.4234 80.8486 34 80.8486C33.5766 81.2721 33.1531 81.2721 32.7297 81.2721H31.036C30.6126 81.2721 30.1892 81.2721 29.7657 80.8486C29.3423 80.8486 28.9189 80.4252 28.9189 80.4252C28.4955 80.0018 28.072 79.5784 28.072 79.1549C28.072 79.1549 27.6486 78.7315 27.6486 77.8846V76.6144C27.6486 76.1909 28.072 75.7675 28.072 75.3441C28.072 74.9207 28.4955 74.9207 28.9189 74.4972C28.9189 74.0738 29.3423 74.0738 29.7657 73.6504C30.1892 73.6504 30.6126 73.6504 31.036 73.6504H32.7297C33.1531 73.6504 33.5766 73.6504 34 73.6504C34.4234 74.0738 34.4234 74.0738 34.8468 74.4972C35.2703 74.9207 35.2703 74.9207 35.6937 75.3441C35.6937 75.7675 35.6937 76.1909 35.6937 76.6144V77.8846ZM34.4234 76.6144C34.4234 76.6144 34.4234 76.1909 34.4234 75.7675C34.4234 75.7675 34 75.7675 34 75.3441C34 75.3441 33.5766 75.3441 33.5766 74.9207C33.1531 74.9207 33.1531 74.9207 32.7297 74.9207H31.036C30.6126 74.9207 30.6126 74.9207 30.1892 74.9207C30.1892 75.3441 29.7657 75.3441 29.7657 75.3441C29.3423 75.7675 29.3423 75.7675 29.3423 75.7675C29.3423 76.1909 29.3423 76.6144 29.3423 76.6144V77.8846C29.3423 78.3081 29.3423 78.7315 29.3423 78.7315C29.3423 79.1549 29.3423 79.1549 29.7657 79.1549C29.7657 79.5784 30.1892 79.5784 30.1892 79.5784C30.6126 80.0018 30.6126 80.0018 31.036 80.0018H32.7297C33.1531 80.0018 33.1531 80.0018 33.5766 79.5784C33.5766 79.5784 34 79.5784 34 79.1549C34 79.1549 34.4234 79.1549 34.4234 78.7315C34.4234 78.7315 34.4234 78.3081 34.4234 77.8846V76.6144ZM44.5856 76.1909C44.5856 76.6144 44.5856 76.6144 44.1622 77.0378V77.4612C43.7388 77.8846 43.7388 77.8846 43.7388 78.3081C43.3154 78.3081 43.3154 78.3081 42.8919 78.3081L42.4685 78.7315H42.0451L44.5856 81.2721H42.8919L39.928 78.7315H39.0811V77.4612H42.0451C42.0451 77.4612 42.4685 77.4612 42.4685 77.0378H42.8919V76.6144V76.1909V75.3441V74.9207H38.2343V81.2721H36.964V74.4972V74.0738C37.3874 74.0738 37.3874 74.0738 37.3874 74.0738C37.3874 73.6504 37.3874 73.6504 37.3874 73.6504H37.8108H42.8919C43.3154 73.6504 43.3154 73.6504 43.7388 74.0738C43.7388 74.0738 43.7388 74.0738 44.1622 74.4972C44.1622 74.4972 44.1622 74.4972 44.1622 74.9207C44.5856 74.9207 44.5856 75.3441 44.5856 75.3441V76.1909ZM52.2073 81.2721H47.5496L47.1262 80.8486H46.7028H46.2794C46.2794 80.4252 46.2794 80.4252 45.8559 80.4252C45.8559 80.0018 45.8559 80.0018 45.8559 80.0018C45.8559 79.5784 45.8559 79.5784 45.8559 79.1549V75.7675C45.8559 75.3441 45.8559 75.3441 45.8559 75.3441C45.8559 74.9207 45.8559 74.9207 45.8559 74.9207C45.8559 74.4972 45.8559 74.4972 46.2794 74.4972C46.2794 74.0738 46.2794 74.0738 46.2794 74.0738C46.7028 74.0738 46.7028 74.0738 47.1262 73.6504C47.1262 73.6504 47.1262 73.6504 47.5496 73.6504H52.2073V74.9207H47.5496C47.5496 74.9207 47.1262 74.9207 47.1262 75.3441C47.1262 75.3441 47.1262 75.3441 47.1262 75.7675V79.1549V79.5784H47.5496H52.2073V81.2721ZM59.829 77.8846H55.5947V76.6144H59.829V77.8846ZM60.2524 81.2721H55.5947C55.1713 81.2721 55.1713 80.8486 54.7479 80.8486H54.3244C53.901 80.4252 53.901 80.4252 53.901 80.0018C53.4776 80.0018 53.4776 79.5784 53.4776 79.1549V74.4972V74.0738H53.901C53.901 73.6504 53.901 73.6504 53.901 73.6504H54.3244H60.2524V74.9207H54.7479V79.1549C54.7479 79.5784 54.7479 79.5784 55.1713 79.5784C55.1713 79.5784 55.1713 79.5784 55.5947 79.5784H60.2524V81.2721Z" fill="white"/>
<path fill-rule="evenodd" clip-rule="evenodd" d="M18.7567 30.0373C16.2161 34.2715 14.9458 33.0013 10.7116 35.1184C8.59443 36.8121 5.63045 39.3527 6.05387 43.1635C6.90072 42.7401 7.74758 42.3166 8.59443 42.3166C11.135 40.6229 17.063 40.6229 20.4504 41.4698C20.8738 41.4698 21.2972 41.8932 21.7206 41.8932C22.5675 42.3166 22.9909 42.7401 23.8378 43.1635C23.8378 42.7401 24.6846 42.7401 25.9549 42.3166C37.8108 38.9292 54.7479 30.0373 59.829 18.1814C61.0993 16.4877 62.3695 10.9831 61.0993 7.5957V8.44256C60.6758 10.1363 60.2524 11.4065 59.4056 13.1002C58.9821 14.3705 58.1353 16.0642 56.0182 18.6048C55.5947 19.0282 55.5947 19.0282 55.1713 19.4516C55.1713 19.8751 54.7479 20.2985 54.3244 20.7219C51.3605 23.6859 47.1262 26.2265 43.3154 28.3436C39.928 30.0373 21.7206 38.5058 19.1801 34.2715C18.7567 33.0013 18.7567 30.4607 18.7567 30.0373Z" fill="white"/>
<path fill-rule="evenodd" clip-rule="evenodd" d="M59.829 20.7219C59.829 21.5687 59.4056 23.2624 58.9822 24.1093C58.1353 26.6498 56.4416 28.767 54.3245 30.8841C45.4325 40.6229 37.3874 42.74 26.3783 46.5509C34.4234 55.0194 46.2794 65.1816 58.9822 64.3348C51.7839 60.9473 45.4325 57.5599 37.8108 49.5148C47.5496 45.2806 59.4056 35.9652 60.2524 24.9561C60.2524 23.2624 60.2524 21.9921 59.829 20.7219C59.829 20.2984 59.829 20.2984 59.829 20.7219Z" fill="url(#paint0_linear)"/>
<defs>
<linearGradient id="paint0_linear" x1="37.2398" y1="33.372" x2="55.6337" y2="69.0775" gradientUnits="userSpaceOnUse">
<stop stop-color="#9F041B"/>
<stop offset="0.364706" stop-color="#CA3B4C"/>
<stop offset="0.721569" stop-color="#E44D5D"/>
<stop offset="1" stop-color="#F5737E"/>
</linearGradient>
</defs>
</svg>
