<svg width="63" height="80" viewBox="0 0 63 80" fill="none" xmlns="http://www.w3.org/2000/svg">
<path d="M8.60869 73.5691H7.45651V66.6561H8.60869V73.5691ZM16.6739 72.801V73.1851L16.2898 73.5691C15.9058 73.5691 15.9058 73.5691 15.9058 73.5691C15.9058 73.5691 15.9058 73.1851 15.5217 73.1851L11.2971 68.5764V73.5691H10.1449V67.4242C10.1449 67.0401 10.1449 67.0401 10.1449 67.0401C10.1449 66.6561 10.529 66.6561 10.529 66.6561C10.529 66.6561 10.529 66.6561 10.913 66.6561C10.913 66.6561 10.913 66.6561 11.2971 66.6561L15.5217 71.2648V66.6561H16.6739V72.801ZM23.587 70.4967H19.7464V69.3445H23.587V70.4967ZM24.3551 67.8083H19.3623V73.5691H18.2101V67.4242V67.0401C18.2101 66.6561 18.5942 66.6561 18.5942 66.6561H24.3551V67.8083ZM32.0362 70.4967C32.0362 71.2648 32.0362 71.6488 32.0362 71.6488C31.6522 72.0329 31.6522 72.4169 31.2681 72.801C30.8841 72.801 30.8841 73.1851 30.5 73.1851C30.1159 73.5691 29.7319 73.5691 29.3478 73.5691H27.8116C27.4275 73.5691 27.0435 73.5691 26.6594 73.1851C26.2754 73.1851 25.8913 72.801 25.8913 72.801C25.5072 72.4169 25.1232 72.0329 25.1232 71.6488C25.1232 71.6488 24.7391 71.2648 24.7391 70.4967V69.3445C24.7391 68.9604 25.1232 68.5764 25.1232 68.1923C25.1232 67.8083 25.5072 67.8083 25.8913 67.4242C25.8913 67.0401 26.2754 67.0401 26.6594 66.6561C27.0435 66.6561 27.4275 66.6561 27.8116 66.6561H29.3478C29.7319 66.6561 30.1159 66.6561 30.5 66.6561C30.8841 67.0401 30.8841 67.0401 31.2681 67.4242C31.6522 67.8083 31.6522 67.8083 32.0362 68.1923C32.0362 68.5764 32.0362 68.9604 32.0362 69.3445V70.4967ZM30.8841 69.3445C30.8841 69.3445 30.8841 68.9604 30.8841 68.5764C30.8841 68.5764 30.5 68.5764 30.5 68.1923C30.5 68.1923 30.1159 68.1923 30.1159 67.8083C29.7319 67.8083 29.7319 67.8083 29.3478 67.8083H27.8116C27.4275 67.8083 27.4275 67.8083 27.0435 67.8083C27.0435 68.1923 26.6594 68.1923 26.6594 68.1923C26.2754 68.5764 26.2754 68.5764 26.2754 68.5764C26.2754 68.9604 26.2754 69.3445 26.2754 69.3445V70.4967C26.2754 70.8807 26.2754 71.2648 26.2754 71.2648C26.2754 71.6488 26.2754 71.6488 26.6594 71.6488C26.6594 72.0329 27.0435 72.0329 27.0435 72.0329C27.4275 72.4169 27.4275 72.4169 27.8116 72.4169H29.3478C29.7319 72.4169 29.7319 72.4169 30.1159 72.0329C30.1159 72.0329 30.5 72.0329 30.5 71.6488C30.5 71.6488 30.8841 71.6488 30.8841 71.2648C30.8841 71.2648 30.8841 70.8807 30.8841 70.4967V69.3445ZM40.1014 68.9604C40.1014 69.3445 40.1014 69.3445 39.7174 69.7285V70.1126C39.3333 70.4967 39.3333 70.4967 39.3333 70.8807C38.9493 70.8807 38.9493 70.8807 38.5652 70.8807L38.1812 71.2648H37.7971L40.1014 73.5691H38.5652L35.8768 71.2648H35.1087V70.1126H37.7971C37.7971 70.1126 38.1812 70.1126 38.1812 69.7285H38.5652V69.3445V68.9604V68.1923V67.8083H34.3406V73.5691H33.1884V67.4242V67.0401C33.5725 67.0401 33.5725 67.0401 33.5725 67.0401C33.5725 66.6561 33.5725 66.6561 33.5725 66.6561H33.9565H38.5652C38.9493 66.6561 38.9493 66.6561 39.3333 67.0401C39.3333 67.0401 39.3333 67.0401 39.7174 67.4242C39.7174 67.4242 39.7174 67.4242 39.7174 67.8083C40.1014 67.8083 40.1014 68.1923 40.1014 68.1923V68.9604ZM47.0145 73.5691H42.7899L42.4058 73.1851H42.0217H41.6377C41.6377 72.801 41.6377 72.801 41.2536 72.801C41.2536 72.4169 41.2536 72.4169 41.2536 72.4169C41.2536 72.0329 41.2536 72.0329 41.2536 71.6488V68.5764C41.2536 68.1923 41.2536 68.1923 41.2536 68.1923C41.2536 67.8083 41.2536 67.8083 41.2536 67.8083C41.2536 67.4242 41.2536 67.4242 41.6377 67.4242C41.6377 67.0401 41.6377 67.0401 41.6377 67.0401C42.0217 67.0401 42.0217 67.0401 42.4058 66.6561C42.4058 66.6561 42.4058 66.6561 42.7899 66.6561H47.0145V67.8083H42.7899C42.7899 67.8083 42.4058 67.8083 42.4058 68.1923C42.4058 68.1923 42.4058 68.1923 42.4058 68.5764V71.6488V72.0329H42.7899H47.0145V73.5691ZM53.9275 70.4967H50.087V69.3445H53.9275V70.4967ZM54.3116 73.5691H50.087C49.7029 73.5691 49.7029 73.1851 49.3188 73.1851H48.9348C48.5507 72.801 48.5507 72.801 48.5507 72.4169C48.1667 72.4169 48.1667 72.0329 48.1667 71.6488V67.4242V67.0401H48.5507C48.5507 66.6561 48.5507 66.6561 48.5507 66.6561H48.9348H54.3116V67.8083H49.3188V71.6488C49.3188 72.0329 49.3188 72.0329 49.7029 72.0329C49.7029 72.0329 49.7029 72.0329 50.087 72.0329H54.3116V73.5691Z" fill="white"/>
<path fill-rule="evenodd" clip-rule="evenodd" d="M16.6739 27.0981C14.3696 30.9387 13.2174 29.7865 9.3768 31.7068C7.45651 33.243 4.7681 35.5474 5.15216 39.0039C5.92028 38.6199 6.68839 38.2358 7.45651 38.2358C9.76086 36.6996 15.1377 36.6996 18.2101 37.4677C18.5942 37.4677 18.9782 37.8517 19.3623 37.8517C20.1304 38.2358 20.5145 38.6199 21.2826 39.0039C21.2826 38.6199 22.0507 38.6199 23.2029 38.2358C33.9565 35.1633 49.3188 27.0981 53.9275 16.3445C55.0797 14.8083 56.2319 9.81551 55.0797 6.74304V7.51116C54.6956 9.04739 54.3116 10.1996 53.5435 11.7358C53.1594 12.888 52.3913 14.4242 50.471 16.7286C50.0869 17.1126 50.0869 17.1126 49.7029 17.4967C49.7029 17.8807 49.3188 18.2648 48.9348 18.6488C46.2464 21.3372 42.4058 23.6416 38.9493 25.5619C35.8768 27.0981 19.3623 34.7793 17.058 30.9387C16.6739 29.7865 16.6739 27.4822 16.6739 27.0981Z" fill="white"/>
<path fill-rule="evenodd" clip-rule="evenodd" d="M53.9275 18.6488C53.9275 19.417 53.5435 20.9532 53.1594 21.7213C52.3913 24.0256 50.8551 25.9459 48.9348 27.8662C40.8696 36.6996 33.5725 38.6199 23.587 42.0764C30.8841 49.7575 41.6377 58.9749 53.1594 58.2068C46.6304 55.1343 40.8696 52.0619 33.9565 44.7648C42.7899 40.9242 53.5435 32.4749 54.3116 22.4894C54.3116 20.9532 54.3116 19.801 53.9275 18.6488C53.9275 18.2648 53.9275 18.2648 53.9275 18.6488Z" fill="white"/>
</svg>
