<svg width="65" height="64" viewBox="0 0 65 64" fill="none" xmlns="http://www.w3.org/2000/svg">
<circle cx="32.5" cy="32" r="32" fill="#DF263E"/>
<path d="M39.3334 18.6666H26C24.5294 18.6666 23.3334 19.8626 23.3334 21.3333V42.6666C23.3334 44.1373 24.5294 45.3333 26 45.3333H39.3334C40.804 45.3333 42 44.1373 42 42.6666V21.3333C42 19.8626 40.804 18.6666 39.3334 18.6666ZM26 42.6666V21.3333H39.3334L39.336 42.6666H26Z" fill="white"/>
<path d="M32.6667 41.3333C33.4031 41.3333 34 40.7363 34 40C34 39.2636 33.4031 38.6666 32.6667 38.6666C31.9303 38.6666 31.3334 39.2636 31.3334 40C31.3334 40.7363 31.9303 41.3333 32.6667 41.3333Z" fill="white"/>
</svg>
