<svg width="27" height="19" viewBox="0 0 27 19" fill="none" xmlns="http://www.w3.org/2000/svg">
<path d="M0.86 18.825C0.773334 18.2183 0.708333 17.59 0.665 16.94C0.621667 16.29 0.6 15.8133 0.6 15.51C0.6 12.6067 1.12 9.855 2.16 7.255C3.2 4.61166 4.47833 2.38 5.995 0.559999L12.56 2.055C11.7367 3.91833 11.065 6.04166 10.545 8.425C10.0683 10.765 9.83 12.9967 9.83 15.12C9.83 15.2067 9.83 15.4017 9.83 15.705C9.83 15.965 9.83 16.29 9.83 16.68C9.87333 17.0267 9.895 17.395 9.895 17.785C9.93833 18.175 9.98167 18.5217 10.025 18.825H0.86ZM14.835 18.825C14.7483 18.2183 14.6833 17.59 14.64 16.94C14.5967 16.29 14.575 15.8133 14.575 15.51C14.575 12.6067 15.095 9.855 16.135 7.255C17.175 4.61166 18.4533 2.38 19.97 0.559999L26.535 2.055C25.7117 3.91833 25.04 6.04166 24.52 8.425C24.0433 10.765 23.805 12.9967 23.805 15.12C23.805 15.2067 23.805 15.4017 23.805 15.705C23.805 15.965 23.805 16.29 23.805 16.68C23.8483 17.0267 23.87 17.395 23.87 17.785C23.9133 18.175 23.9567 18.5217 24 18.825H14.835Z" fill="#DF263E"/>
</svg>
