<svg width="64" height="64" viewBox="0 0 64 64" fill="none" xmlns="http://www.w3.org/2000/svg">
<circle cx="32" cy="32" r="32" fill="#DF263E"/>
<path d="M44.2286 19.512C42.7306 19.1723 41.1993 19.0006 39.6633 19C36.2166 19 33.4459 19.9507 31.6486 21.748C30.2288 23.1669 28.8176 24.5945 27.4153 26.0307C25.7966 25.848 21.9793 25.76 19.3926 28.348C19.2682 28.4714 19.1695 28.6183 19.1021 28.7801C19.0347 28.9419 19 29.1154 19 29.2907C19 29.4659 19.0347 29.6395 19.1021 29.8012C19.1695 29.963 19.2682 30.1099 19.3926 30.2333L34.4766 45.3173C34.6001 45.4416 34.747 45.5402 34.9088 45.6075C35.0706 45.6747 35.2441 45.7094 35.4193 45.7094C35.5945 45.7094 35.768 45.6747 35.9297 45.6075C36.0915 45.5402 36.2384 45.4416 36.3619 45.3173C38.9673 42.7133 38.8873 38.8987 38.7179 37.304L42.9633 33.06C47.2179 28.8053 45.2833 20.8173 45.1993 20.48C45.1403 20.2459 45.0188 20.0322 44.8479 19.8617C44.6769 19.6912 44.4629 19.5704 44.2286 19.512ZM41.0779 31.176L36.3633 35.8893C36.2081 36.0445 36.0937 36.2356 36.0302 36.4457C35.9667 36.6557 35.9561 36.8782 35.9993 37.0933C36.0059 37.1267 36.5419 40.0827 35.2846 42.352L22.3579 29.4267C24.6246 28.176 27.6126 28.7547 27.6219 28.7547C28.0619 28.848 28.5339 28.7067 28.8526 28.3773C28.8566 28.3733 30.7273 26.44 33.5353 23.632C35.1593 22.008 37.7633 21.6667 39.6633 21.6667C40.9259 21.6667 42.0539 21.8147 42.7726 21.9373C43.0979 23.8453 43.6059 28.6467 41.0779 31.176Z" fill="white"/>
<path d="M37.3058 30.072C38.7786 30.072 39.9725 28.8781 39.9725 27.4053C39.9725 25.9326 38.7786 24.7386 37.3058 24.7386C35.8331 24.7386 34.6392 25.9326 34.6392 27.4053C34.6392 28.8781 35.8331 30.072 37.3058 30.072Z" fill="white"/>
</svg>
