<svg width="24" height="25" viewBox="0 0 24 25" fill="none" xmlns="http://www.w3.org/2000/svg">
<g opacity="0.75">
<path d="M11.857 18.3941C8.91 18.3941 7.563 16.8701 7.563 15.7531C7.563 15.4871 7.671 15.2321 7.861 15.0481C7.95477 14.9575 8.06625 14.8873 8.18843 14.8419C8.31061 14.7965 8.44086 14.7768 8.571 14.7841C9.832 14.7841 9.502 16.7041 11.857 16.7041C13.06 16.7041 13.767 15.9681 13.767 15.2791C13.767 14.8641 13.533 14.3901 12.739 14.2001L10.11 13.5271C7.999 12.9821 7.631 11.7901 7.631 10.6851C7.631 8.39206 9.699 7.56106 11.667 7.56106C13.481 7.56106 15.637 8.57706 15.637 9.95206C15.637 10.5441 15.149 10.8621 14.582 10.8621C13.504 10.8621 13.685 9.32606 11.519 9.32606C10.442 9.32606 9.874 9.83906 9.874 10.5561C9.874 11.2731 10.713 11.5161 11.448 11.6791L13.389 12.1241C15.515 12.6101 16.08 13.8751 16.08 15.0871C16.08 16.9521 14.657 18.3921 11.854 18.3921L11.857 18.3941ZM19.993 14.4501C20.079 13.9601 20.121 13.4641 20.121 12.9681C20.1278 11.7394 19.8673 10.524 19.3576 9.40614C18.8479 8.28823 18.1011 7.29457 17.169 6.49406C16.2458 5.70096 15.1579 5.123 13.9839 4.80201C12.8099 4.48102 11.5793 4.42502 10.381 4.63806C9.63925 4.20345 8.79471 3.97522 7.935 3.97706C7.06472 3.98486 6.21184 4.22179 5.46223 4.664C4.71263 5.10622 4.09275 5.73811 3.665 6.49606C3.23172 7.25949 3.0027 8.12178 3.00007 8.99959C2.99744 9.87741 3.2213 10.7411 3.65 11.5071C3.40917 12.8413 3.49061 14.2138 3.88755 15.5102C4.28449 16.8066 4.98543 17.9894 5.932 18.9601C6.86953 19.9209 8.02787 20.6378 9.30602 21.0483C10.5842 21.4588 11.9433 21.5504 13.265 21.3151C14.0059 21.7493 14.8493 21.9778 15.708 21.9771C16.578 21.9692 17.4306 21.7323 18.18 21.2903C18.9294 20.8483 19.5492 20.2167 19.977 19.4591C20.4108 18.6962 20.6403 17.8342 20.6431 16.9567C20.6459 16.0791 20.4219 15.2157 19.993 14.4501Z" fill="white"/>
</g>
</svg>
