<svg width="65" height="64" viewBox="0 0 65 64" fill="none" xmlns="http://www.w3.org/2000/svg">
<circle cx="32.5" cy="32" r="32" fill="#DF263E"/>
<path d="M33 18.6667C25.648 18.6667 19.6667 24.6481 19.6667 32.0001C19.6667 39.3521 25.648 45.3334 33 45.3334C40.352 45.3334 46.3333 39.3521 46.3333 32.0001C46.3333 24.6481 40.352 18.6667 33 18.6667ZM33 42.6667C27.1187 42.6667 22.3333 37.8814 22.3333 32.0001C22.3333 26.1187 27.1187 21.3334 33 21.3334C38.8813 21.3334 43.6667 26.1187 43.6667 32.0001C43.6667 37.8814 38.8813 42.6667 33 42.6667Z" fill="white"/>
<path d="M36.772 35.7708C36.2846 36.2566 35.709 36.6448 35.076 36.9148C33.9364 37.3959 32.6651 37.4661 31.4794 37.1135C30.2937 36.7608 29.2674 36.0072 28.576 34.9814L26.3653 36.4734C26.9419 37.3243 27.6755 38.0574 28.5267 38.6334C29.3929 39.2192 30.3661 39.6284 31.3907 39.8374C32.4531 40.0541 33.5483 40.0541 34.6107 39.8374C35.6351 39.6281 36.6083 39.2189 37.4747 38.6334C37.892 38.3508 38.2907 38.0228 38.656 37.6588C39.0187 37.2974 39.3493 36.8974 39.6347 36.4734L37.424 34.9814C37.2324 35.2648 37.014 35.5291 36.772 35.7708Z" fill="white"/>
<path d="M28.3333 32C29.4379 32 30.3333 31.1046 30.3333 30C30.3333 28.8954 29.4379 28 28.3333 28C27.2288 28 26.3333 28.8954 26.3333 30C26.3333 31.1046 27.2288 32 28.3333 32Z" fill="white"/>
<path d="M37.6573 31.9813C38.7568 31.9813 39.648 31.0901 39.648 29.9907C39.648 28.8913 38.7568 28 37.6573 28C36.5579 28 35.6667 28.8913 35.6667 29.9907C35.6667 31.0901 36.5579 31.9813 37.6573 31.9813Z" fill="white"/>
</svg>
